<?xml version="1.0" encoding="utf-8"?>
<!-- Generator: Adobe Illustrator 27.4.1, SVG Export Plug-In . SVG Version: 6.00 Build 0)  -->
<svg version="1.2" baseProfile="tiny" id="Layer_1" xmlns="http://www.w3.org/2000/svg" xmlns:xlink="http://www.w3.org/1999/xlink"
	 x="0px" y="0px" viewBox="0 0 24 24" overflow="visible" xml:space="preserve">
<g id="surface1">
	<path fill="#2E71CC" d="M24,12c0,6.6-5.4,12-12,12S0,18.6,0,12S5.4,0,12,0S24,5.4,24,12z"/>
	<path fill="#FFFFFF" d="M10.4,16.3c-0.8,0-1.4-0.6-1.4-1.4c0-0.8,0.6-1.4,1.4-1.4c0.8,0,1.4,0.6,1.4,1.4
		C11.8,15.7,11.1,16.3,10.4,16.3z"/>
	<path fill="#FFFFFF" d="M10,12c0,0.8-0.6,1.4-1.4,1.4c-0.7-0.1-1.3-0.7-1.3-1.4s0.6-1.3,1.3-1.4C9.4,10.6,10,11.3,10,12z"/>
	<path fill="#FFFFFF" d="M13.6,10.5c-0.8,0-1.4-0.7-1.4-1.4c0-0.8,0.7-1.4,1.4-1.3c0.4,0,0.7,0.2,1,0.4c0.3,0.3,0.4,0.6,0.4,1
		c0,0.4-0.2,0.7-0.4,1C14.3,10.4,14,10.5,13.6,10.5z"/>
	<path fill="#FFFFFF" d="M13.6,13.5c0.4,0,0.7,0.1,1,0.4c0.3,0.3,0.4,0.6,0.4,1c0,0.5-0.2,1-0.7,1.3s-1,0.3-1.5,0
		c-0.5-0.3-0.7-0.8-0.7-1.3c0-0.4,0.1-0.7,0.4-1C12.9,13.6,13.3,13.5,13.6,13.5z"/>
	<path fill="#FFFFFF" d="M16.7,12c0,0.8-0.7,1.4-1.4,1.4c-0.8,0-1.4-0.6-1.4-1.4c0-0.8,0.6-1.4,1.4-1.4c0.4,0,0.7,0.2,1,0.4
		C16.6,11.3,16.7,11.7,16.7,12z"/>
	<path fill="#FFFFFF" d="M11.7,9.1c0,0.8-0.6,1.4-1.4,1.4c-0.8,0-1.4-0.6-1.4-1.4c0-0.8,0.6-1.4,1.4-1.4c0.4,0,0.7,0.1,1,0.4
		C11.6,8.4,11.7,8.8,11.7,9.1z"/>
	<path fill="#FFFFFF" d="M11.2,17.7c0-0.4,0.4-0.8,0.8-0.8c0.4,0,0.8,0.4,0.8,0.8c0,0.3-0.1,0.6-0.4,0.8c-0.3,0.2-0.6,0.2-0.9,0
		C11.3,18.3,11.2,18,11.2,17.7L11.2,17.7z"/>
	<path fill="#FFFFFF" d="M7,15.6c-0.2,0-0.4-0.1-0.6-0.2c-0.2-0.2-0.2-0.4-0.2-0.6c0-0.4,0.4-0.7,0.8-0.7c0.4,0,0.8,0.3,0.8,0.7
		c0,0.2-0.1,0.4-0.2,0.6C7.5,15.6,7.2,15.6,7,15.6z"/>
	<path fill="#FFFFFF" d="M12,5.4c0.3,0,0.6,0.1,0.8,0.4c0.2,0.3,0.2,0.6,0,0.9C12.6,7,12.3,7.1,12,7.1c-0.4,0-0.8-0.4-0.8-0.8
		C11.1,5.8,11.5,5.4,12,5.4z"/>
	<path fill="#FFFFFF" d="M16.9,15.6c-0.2,0-0.4-0.1-0.6-0.2c-0.2-0.1-0.2-0.4-0.2-0.6c0-0.2,0.1-0.4,0.2-0.6
		c0.2-0.2,0.4-0.2,0.6-0.2c0.4,0,0.8,0.4,0.8,0.8C17.8,15.3,17.4,15.6,16.9,15.6z"/>
	<path fill="#FFFFFF" d="M7,10c-0.2,0-0.4-0.1-0.6-0.2C6.3,9.6,6.2,9.4,6.2,9.2c0-0.2,0.1-0.4,0.2-0.6C6.6,8.4,6.8,8.3,7,8.3
		c0.5,0,0.8,0.4,0.8,0.8c0,0.2-0.1,0.4-0.3,0.6C7.5,9.9,7.2,10,7,10z"/>
	<path fill="#FFFFFF" d="M16.9,8.3c0.2,0,0.4,0.1,0.6,0.2c0.2,0.1,0.3,0.3,0.3,0.6c0,0.5-0.4,0.8-0.8,0.9c-0.4,0-0.8-0.4-0.8-0.8
		c0-0.2,0.1-0.4,0.2-0.6C16.5,8.4,16.7,8.3,16.9,8.3z"/>
	<path fill="#FFFFFF" d="M4.6,11.3c0.4,0,0.7,0.3,0.7,0.7c0,0.4-0.3,0.7-0.7,0.7c-0.4,0-0.7-0.3-0.7-0.7c0-0.2,0.1-0.3,0.2-0.5
		C4.2,11.4,4.4,11.3,4.6,11.3z"/>
	<path fill="#FFFFFF" d="M16.4,5.6c0,0.2-0.1,0.4-0.2,0.5c-0.1,0.1-0.3,0.2-0.5,0.2c-0.4,0-0.7-0.3-0.6-0.7c0-0.2,0.1-0.4,0.2-0.5
		s0.3-0.2,0.5-0.2c0.2,0,0.3,0.1,0.4,0.2C16.3,5.2,16.4,5.4,16.4,5.6z"/>
	<path fill="#FFFFFF" d="M8.3,19.1c-0.2,0-0.4-0.1-0.5-0.2c-0.1-0.1-0.2-0.3-0.2-0.5c0-0.4,0.3-0.7,0.7-0.7C8.7,17.7,9,18,9,18.4
		C9,18.8,8.7,19,8.3,19.1z"/>
	<path fill="#FFFFFF" d="M15,18.4c0-0.2,0.1-0.4,0.2-0.5c0.1-0.1,0.3-0.2,0.5-0.2c0.4,0,0.7,0.3,0.7,0.7c0,0.2-0.1,0.4-0.2,0.5
		c-0.1,0.1-0.3,0.2-0.5,0.2c-0.2,0-0.4-0.1-0.5-0.2S15,18.6,15,18.4z"/>
	<path fill="#FFFFFF" d="M20.1,11.9c0,0.2-0.1,0.4-0.2,0.5c-0.1,0.1-0.3,0.2-0.5,0.2c-0.3,0-0.5-0.1-0.7-0.3s-0.1-0.5,0-0.7
		c0.1-0.2,0.4-0.3,0.7-0.3C19.8,11.3,20.1,11.6,20.1,11.9z"/>
	<path fill="#FFFFFF" d="M8.2,6.2c-0.4,0-0.7-0.3-0.7-0.7c0-0.4,0.3-0.7,0.7-0.7c0.2,0,0.4,0.1,0.5,0.2c0.1,0.1,0.2,0.3,0.2,0.5
		C8.9,5.9,8.6,6.2,8.2,6.2z"/>
	<path fill="#FFFFFF" d="M12,20.6c0.1,0,0.3,0.1,0.4,0.2c0.1,0.1,0.1,0.2,0.1,0.4c0,0.2-0.1,0.4-0.3,0.5c-0.2,0.1-0.4,0.1-0.6,0
		c-0.2-0.1-0.2-0.3-0.2-0.5C11.5,20.8,11.8,20.6,12,20.6z"/>
	<path fill="#FFFFFF" d="M4.1,8C3.8,8,3.6,7.8,3.6,7.5C3.6,7.2,3.8,7,4.1,7c0.3,0,0.5,0.2,0.5,0.5C4.6,7.8,4.4,8,4.1,8z"/>
	<path fill="#FFFFFF" d="M4.1,16.1c0.3,0,0.5,0.2,0.6,0.5c0,0.1-0.1,0.3-0.2,0.4c-0.1,0.1-0.2,0.1-0.4,0.1c-0.1,0-0.3-0.1-0.4-0.2
		c-0.1-0.1-0.1-0.2-0.1-0.4C3.6,16.3,3.8,16.1,4.1,16.1z"/>
	<path fill="#FFFFFF" d="M20.4,16.6c0,0.1-0.1,0.3-0.1,0.4c-0.1,0.1-0.2,0.2-0.4,0.2c-0.1,0-0.3,0-0.4-0.1c-0.1-0.1-0.2-0.2-0.2-0.4
		c0-0.1,0-0.3,0.1-0.4c0.1-0.1,0.2-0.2,0.4-0.2c0.1,0,0.3,0.1,0.4,0.2C20.4,16.3,20.4,16.4,20.4,16.6z"/>
	<path fill="#FFFFFF" d="M12,2.3c0.1,0,0.3,0.1,0.4,0.2c0.1,0.1,0.1,0.2,0.1,0.4c0,0.1-0.1,0.3-0.2,0.4c-0.1,0.1-0.2,0.1-0.4,0.1
		c-0.3,0-0.5-0.3-0.5-0.5C11.5,2.6,11.7,2.3,12,2.3z"/>
	<path fill="#FFFFFF" d="M19.9,6.9c0.3,0,0.5,0.2,0.5,0.5c0,0.3-0.2,0.5-0.5,0.5c-0.3,0-0.5-0.2-0.5-0.5C19.4,7.1,19.6,6.9,19.9,6.9
		z"/>
	<path fill="#FFFFFF" d="M17.4,3.3c0,0.1,0,0.2-0.1,0.3c-0.1,0.1-0.2,0.1-0.3,0.1c-0.2,0-0.4-0.2-0.4-0.4s0.2-0.4,0.4-0.4
		c0.1,0,0.2,0,0.3,0.1C17.4,3.1,17.4,3.2,17.4,3.3z"/>
	<path fill="#FFFFFF" d="M22.1,11.6c0.2,0,0.4,0.2,0.4,0.4c0,0.2-0.2,0.4-0.4,0.4c-0.2,0-0.4-0.2-0.4-0.4c0-0.1,0-0.2,0.1-0.3
		C21.9,11.6,22,11.6,22.1,11.6z"/>
	<path fill="#FFFFFF" d="M7,21.1c-0.1,0-0.2,0-0.3-0.1c-0.1-0.1-0.1-0.2-0.1-0.3c0-0.2,0.2-0.4,0.4-0.4c0.2,0,0.4,0.2,0.5,0.4
		c0,0.1,0,0.2-0.1,0.3C7.3,21.1,7.1,21.1,7,21.1z"/>
	<path fill="#FFFFFF" d="M2.4,12c0,0.1,0,0.2-0.1,0.3c-0.1,0.1-0.2,0.1-0.3,0.1c-0.1,0-0.2,0-0.3-0.1c-0.1-0.1-0.1-0.2-0.1-0.3
		c0-0.1,0-0.2,0.1-0.3c0.1-0.1,0.2-0.1,0.3-0.1C2.2,11.6,2.4,11.8,2.4,12z"/>
	<path fill="#FFFFFF" d="M17.4,20.7c0,0.1,0,0.2-0.1,0.3c-0.1,0.1-0.2,0.1-0.3,0.1c-0.1,0-0.2,0-0.3-0.1s-0.1-0.2-0.1-0.3
		c0-0.2,0.2-0.4,0.4-0.4C17.2,20.3,17.4,20.5,17.4,20.7z"/>
	<path fill="#FFFFFF" d="M7,2.9c0.2,0,0.4,0.2,0.4,0.4c0,0.2-0.2,0.4-0.4,0.4c-0.2,0-0.4-0.2-0.4-0.4C6.6,3.1,6.8,2.9,7,2.9z"/>
</g>
</svg>
