<?xml version="1.0" encoding="utf-8"?>
<!-- Generator: Adobe Illustrator 27.4.1, SVG Export Plug-In . SVG Version: 6.00 Build 0)  -->
<svg version="1.2" baseProfile="tiny" id="Layer_1" xmlns="http://www.w3.org/2000/svg" xmlns:xlink="http://www.w3.org/1999/xlink"
	 x="0px" y="0px" viewBox="0 0 24 24" overflow="visible" xml:space="preserve">
<g id="surface1">
	<path fill-rule="evenodd" fill="#F0B90B" d="M12,0c6.6,0,12,5.4,12,12s-5.4,12-12,12S0,18.6,0,12S5.4,0,12,0z"/>
	<path fill="#FFFFFF" d="M6.6,12v3.2l2.7,1.6v1.9L5,16.1v-5L6.6,12z M6.6,8.8v1.8L5,9.7V7.9L6.6,7l1.6,0.9L6.6,8.8z M10.4,7.9L12,7
		l1.6,0.9L12,8.8L10.4,7.9z"/>
	<path fill="#FFFFFF" d="M7.7,14.5v-1.9l1.6,0.9v1.8L7.7,14.5z M10.4,17.4l1.6,0.9l1.6-0.9v1.8l-1.6,1l-1.6-0.9V17.4z M15.8,7.9
		L17.4,7L19,7.9v1.8l-1.6,0.9V8.8L15.8,7.9z M17.4,15.2V12l1.6-0.9v5l-4.3,2.5v-1.9L17.4,15.2z"/>
	<path fill="#FFFFFF" d="M16.3,14.5l-1.6,0.9v-1.8l1.6-0.9V14.5z"/>
	<path fill="#FFFFFF" d="M16.3,9.5v1.9L13.6,13v3.2L12,17l-1.6-0.9v-3.2l-2.7-1.6V9.5l1.6-0.9l2.7,1.6l2.7-1.6L16.3,9.5z M7.7,6.3
		L12,3.8l4.3,2.5l-1.6,0.9L12,5.6L9.3,7.2L7.7,6.3z"/>
</g>
</svg>
