<?xml version="1.0" encoding="utf-8"?>
<!-- Generator: Adobe Illustrator 27.4.1, SVG Export Plug-In . SVG Version: 6.00 Build 0)  -->
<svg version="1.2" baseProfile="tiny" id="Layer_1" xmlns="http://www.w3.org/2000/svg" xmlns:xlink="http://www.w3.org/1999/xlink"
	 x="0px" y="0px" viewBox="0 0 24 24" overflow="visible" xml:space="preserve">
<g id="surface1">
	<path fill="#F4F4F4" d="M24,12c0,6.6-5.4,12-12,12S0,18.6,0,12S5.4,0,12,0S24,5.4,24,12z"/>
	<path fill="#3E3D3E" d="M12.8,2H13c0.5,0.1,1,0.1,1.4,0.3c2.8,0.9,4.9,3.3,5.4,6.2c0.1,0.5,0.1,1,0.1,1.5c-0.1,1.3-0.4,2.6-1.1,3.7
		c-0.9,1.4-2.1,2.5-3.6,3.1c-0.6,0.2-1.2,0.4-1.8,0.5c-0.3,0-0.5,0-0.8,0.1c-0.3,0.1-0.6,0-0.9,0.1c-1,0.2-1.8,0.9-2.1,1.9
		c-0.1,0.2-0.1,0.5-0.1,0.7l-0.2,1.1c0,0.1,0,0.2-0.1,0.2C9,21.8,8.6,22.1,8.1,22c-0.1,0-0.3-0.1-0.4-0.1c-0.4-0.2-0.6-0.7-0.5-1.1
		l0.4-2.1C7.7,18,7.9,17.2,8,16.4l0.6-2.7C8.8,13,9,12.1,9.1,11.3l0.4-1.8c0.1-0.6,0.7-0.9,1.3-0.8c0.5,0.1,0.8,0.5,0.8,1
		c0,0.1,0,0.3-0.1,0.4c-0.3,1.2-0.5,2.5-0.8,3.7c-0.1,0.5-0.2,1-0.3,1.5c-0.1,0.8,0,0.1,0,0.1v0.1c0,0,0,0,0.1,0
		c0.3-0.1,0.6-0.1,0.9-0.2l1.1-0.1l0.7-0.1c0.6-0.1,1.2-0.3,1.7-0.5c2-1,3.2-3.2,3-5.4c-0.1-1.8-1.1-3.4-2.6-4.3
		c-0.6-0.4-1.3-0.6-2-0.8C12.9,4,12.4,4,12,4c-1.3,0.1-2.5,0.6-3.4,1.4C7.8,6.3,7.3,7.2,7,8.2C6.9,8.6,6.8,9,6.8,9.5
		c0,0.4,0,0.8,0.1,1.2c0,0.3,0.1,0.6,0.2,0.8c0.1,0.3,0.1,0.7-0.1,1c-0.4,0.5-1,0.6-1.5,0.3c0,0-0.1,0-0.1-0.1
		c-0.2-0.1-0.3-0.3-0.4-0.5c-0.1-0.5-0.3-1-0.3-1.4c0-0.4-0.1-0.7-0.1-1.1c0-1.7,0.6-3.4,1.7-4.8c1-1.2,2.3-2.1,3.8-2.5
		C10.6,2.2,11,2.1,11.5,2h0.3c0,0,0,0,0.1,0H12.8z"/>
	<path fill="#FE00FE" d="M12.4,22.4L12.4,22.4c-0.4-0.1-0.7-0.3-0.8-0.5c-0.1-0.2-0.2-0.4-0.2-0.6c-0.1-0.6,0.3-1.1,0.9-1.3
		c0.5-0.2,1-0.1,1.3,0.3c0.2,0.2,0.4,0.5,0.4,0.9c0,0.1,0,0.2,0,0.3s0,0.2-0.1,0.3c-0.2,0.4-0.5,0.6-0.9,0.7h-0.1L12.4,22.4z"/>
</g>
</svg>
