<?xml version="1.0" encoding="utf-8"?>
<!-- Generator: Adobe Illustrator 27.4.1, SVG Export Plug-In . SVG Version: 6.00 Build 0)  -->
<svg version="1.2" baseProfile="tiny" id="Layer_1" xmlns="http://www.w3.org/2000/svg" xmlns:xlink="http://www.w3.org/1999/xlink"
	 x="0px" y="0px" viewBox="0 0 24 24" overflow="visible" xml:space="preserve">
<g id="surface1">
	<path fill="#2E71CC" d="M24,12c0,6.6-5.4,12-12,12S0,18.6,0,12S5.4,0,12,0S24,5.4,24,12z"/>
	<path fill="#C1CCF5" d="M12,2l-0.1,0.4v12.8l0.1,0.1l6-3.5L12,2z"/>
	<path fill="#FFFFFF" d="M12,2l-6,9.9l6,3.5V2z"/>
	<path fill="#C1CCF5" d="M12,16.6l-0.1,4.6l0.1,0.2l6-8.4L12,16.6z"/>
	<path fill="#FFFFFF" d="M12,21.4v-4.8L6,13L12,21.4z"/>
	<path fill="#8297EB" d="M12,15.4l6-3.5l-6-2.7V15.4z"/>
	<path fill="#C1CCF5" d="M6,11.9l6,3.5V9.2L6,11.9z"/>
</g>
</svg>
