<?xml version="1.0" encoding="utf-8"?>
<!-- Generator: Adobe Illustrator 27.4.1, SVG Export Plug-In . SVG Version: 6.00 Build 0)  -->
<svg version="1.2" baseProfile="tiny" id="Layer_1" xmlns="http://www.w3.org/2000/svg" xmlns:xlink="http://www.w3.org/1999/xlink"
	 x="0px" y="0px" viewBox="0 0 24 24" overflow="visible" xml:space="preserve">
<g id="surface1">
	<path d="M24,12c0,6.6-5.4,12-12,12S0,18.6,0,12S5.4,0,12,0S24,5.4,24,12z"/>
	<path fill="#00EDFF" d="M17.4,8.5H3.5c-0.1,0-0.2-0.1-0.3-0.2C3.1,8.2,3.2,8.1,3.3,8l2.6-2.7c0.2-0.2,0.4-0.2,0.6-0.2h13.9
		c0.1,0,0.2,0.1,0.3,0.2c0,0.1,0,0.2-0.1,0.3L18,8.3C17.8,8.5,17.6,8.5,17.4,8.5z"/>
	<path fill="#00EDFF" d="M17.4,18.9H3.5c-0.1,0-0.2-0.1-0.3-0.2c0-0.1,0-0.2,0.1-0.3l2.6-2.7c0.2-0.2,0.4-0.2,0.6-0.2h13.9
		c0.1,0,0.2,0.1,0.3,0.2c0,0.1,0,0.2-0.1,0.3L18,18.7C17.8,18.8,17.6,18.9,17.4,18.9z"/>
	<path fill="#00EDFF" d="M6.6,13.7h13.9c0.1,0,0.2-0.1,0.3-0.2c0-0.1,0-0.2-0.1-0.3l-2.6-2.7c-0.2-0.2-0.4-0.2-0.6-0.2h-14
		c-0.1,0-0.2,0.1-0.3,0.2c0,0.1,0,0.2,0.1,0.3L6,13.5C6.2,13.6,6.4,13.7,6.6,13.7z"/>
</g>
</svg>
