<?xml version="1.0" encoding="utf-8"?>
<!-- Generator: Adobe Illustrator 27.4.1, SVG Export Plug-In . SVG Version: 6.00 Build 0)  -->
<svg version="1.2" baseProfile="tiny" id="Layer_1" xmlns="http://www.w3.org/2000/svg" xmlns:xlink="http://www.w3.org/1999/xlink"
	 x="0px" y="0px" viewBox="0 0 24 24" overflow="visible" xml:space="preserve">
<g id="surface1">
	<path fill="#7E45DE" d="M24,12c0,6.6-5.4,12-12,12S0,18.6,0,12S5.4,0,12,0S24,5.4,24,12z"/>
	<path fill="#FFFFFF" d="M11,15.1l1.7-1c0.2,0.4,0.2,0.8,0.2,1.2c0,0.5,0.3,1.1,0.8,1.3c0.6,0.3,1.2,0.7,1.8,1c0.4,0.3,1,0.3,1.4,0
		c0.7-0.4,1.3-0.8,1.9-1.1c0.4-0.2,0.6-0.6,0.6-1.1v-2.1c0-0.5-0.2-0.9-0.7-1.1c-0.6-0.3-1.1-0.6-1.7-1c-0.6-0.4-1.3-0.4-1.9,0
		c-1.8,1.1-3.7,2.1-5.6,3.2c-2.1,1.2-1.8,0.9-3.5,0c-0.8-0.4-1.6-0.9-2.4-1.3c-0.6-0.2-1-0.9-0.9-1.5c0-1.3,0-2.6,0-3.9
		c0-0.6,0.3-1.1,0.8-1.3C4.7,5.7,5.8,5,7,4.4C7.6,4,8.3,4,8.8,4.4c1,0.6,2.1,1.3,3.1,1.8c0.7,0.3,1.1,0.9,1,1.6c0,0.4,0,0.7,0,1
		c-0.5,0.4-1,0.7-1.6,1C11.1,9.5,11,9.1,11,8.7c0.1-0.6-0.2-1.1-0.7-1.3c-0.6-0.3-1.2-0.7-1.8-1c-0.4-0.3-1-0.3-1.4,0
		c-0.7,0.4-1.3,0.7-2,1.1C4.8,7.7,4.5,8.1,4.6,8.6c0,0.5,0,1,0,1.5C4.4,11,5,11.9,5.9,12.2c2,1.1,1.8,1.3,3.9,0
		c1.8-1.1,3.6-2,5.4-3.1c0.6-0.4,1.3-0.4,1.9,0c1.1,0.7,2.2,1.3,3.3,1.9c0.6,0.2,0.9,0.8,0.9,1.5c0,1.3,0,2.6,0,3.8
		c0,0.6-0.3,1.1-0.8,1.4c-1.1,0.6-2.3,1.3-3.4,1.9c-0.5,0.3-1.2,0.3-1.7,0c-1.1-0.7-2.3-1.3-3.4-1.9c-0.5-0.2-0.9-0.8-0.8-1.4
		C11,15.9,11,15.5,11,15.1z"/>
</g>
</svg>
