<?xml version="1.0" encoding="utf-8"?>
<!-- Generator: Adobe Illustrator 27.4.1, SVG Export Plug-In . SVG Version: 6.00 Build 0)  -->
<svg version="1.2" baseProfile="tiny" id="Layer_1" xmlns="http://www.w3.org/2000/svg" xmlns:xlink="http://www.w3.org/1999/xlink"
	 x="0px" y="0px" viewBox="0 0 24 24" overflow="visible" xml:space="preserve">
<g id="surface1">
	<path fill="#EF0601" d="M12,0C5.4,0,0,5.4,0,12s5.4,12,12,12s12-5.4,12-12S18.6,0,12,0z M19.8,17.7c-0.6,1-1.5,1.9-2.5,2.5
		c-1.2,0.8-2.6,1.4-4.1,1.8c-1.1,0.2-2.2,0.2-3.2-0.2c-2-0.7-3.9-1.8-5.3-3.4c-0.5-0.5-0.8-1.1-1.1-1.7c-0.1-0.3-0.2-0.7-0.1-1
		c0-0.5,0.1-1,0.2-1.5c0.1-1.1,0.5-2.2,1-3.2c0-0.1,0-0.1,0-0.2c-0.1-0.2-0.2-0.5-0.3-0.8C4.2,9.4,4.1,8.8,4,8.2
		C3.9,7.8,3.8,7.4,3.8,7c-0.1-0.9-0.1-1.8,0-2.7C3.8,4,3.9,3.8,4,3.6c0.1-0.2,0.3-0.3,0.5-0.2c0.4,0.1,0.8,0.2,1.2,0.5
		c0.5,0.3,1,0.7,1.4,1.2l0.1,0.1l1.4,1.5c0.1,0.1,0.1,0.1,0.2,0.1c0.8-0.3,1.6-0.5,2.4-0.5c0.6,0,1.1,0,1.7,0
		c0.7,0.1,1.4,0.2,2.1,0.5c0.1,0,0.1,0,0.2-0.1l0.3-0.4c0.3-0.4,0.7-0.8,1-1.1c0.3-0.4,0.5-0.5,0.8-0.7c0.7-0.5,1.3-0.8,1.9-1
		c0.2,0,0.3,0,0.5-0.1c0.2-0.1,0.1,0,0.1,0.1c0.2,0.3,0.3,0.6,0.4,1c0.1,0.9,0.1,1.7-0.1,2.6C20,7.4,19.9,7.7,19.9,8v0.1
		c-0.2,0.9-0.5,1.8-0.8,2.6c0,0.1,0,0.2,0,0.3c0.4,0.7,0.7,1.4,0.9,2.2c0.2,0.7,0.3,1.4,0.3,2.1c0,0.2,0,0.4,0,0.5
		C20.3,16.4,20.1,17.1,19.8,17.7z"/>
	<path fill="#EF0601" d="M20.4,15.7c0,0.7-0.2,1.4-0.6,2c-0.6,1-1.5,1.9-2.5,2.5c-1.2,0.8-2.6,1.4-4.1,1.8c-1.1,0.2-2.2,0.2-3.2-0.2
		c-2-0.7-3.9-1.8-5.3-3.4c-0.5-0.5-0.8-1.1-1.1-1.7c-0.1-0.3-0.2-0.7-0.1-1c0-0.5,0.1-1,0.2-1.5c0.1-1.1,0.5-2.2,1-3.2
		c0-0.1,0-0.1,0-0.2c-0.1-0.2-0.2-0.5-0.3-0.8C4.2,9.4,4.1,8.8,4,8.2C3.9,7.8,3.8,7.4,3.8,7c-0.1-0.9-0.1-1.8,0-2.7
		C3.8,4,3.9,3.8,4,3.6c0.1-0.2,0.3-0.3,0.5-0.2c0.4,0.1,0.8,0.2,1.2,0.5c0.5,0.3,1,0.7,1.4,1.2l0.1,0.1l1.4,1.5
		c0.1,0.1,0.1,0.1,0.2,0.1c0.8-0.3,1.6-0.5,2.4-0.5c0.6,0,1.1,0,1.7,0c0.7,0.1,1.4,0.2,2.1,0.5c0.1,0,0.1,0,0.2-0.1l0.3-0.4
		c0.3-0.4,0.7-0.8,1-1.1c0.3-0.4,0.5-0.5,0.8-0.7c0.7-0.5,1.3-0.8,1.9-1c0.2,0,0.3,0,0.5-0.1c0.2-0.1,0.1,0,0.1,0.1
		c0.2,0.3,0.3,0.6,0.4,1c0.1,0.9,0.1,1.7-0.1,2.6C20,7.4,19.9,7.7,19.9,8v0.1c-0.2,0.9-0.5,1.8-0.8,2.6c0,0.1,0,0.2,0,0.3
		c0.4,0.7,0.7,1.4,0.9,2.2c0.2,0.7,0.3,1.4,0.3,2.1C20.4,15.4,20.4,15.6,20.4,15.7z"/>
	<path fill="#FEA309" d="M20.4,15.2c-0.1-0.7-0.2-1.4-0.4-2.1c-0.2-0.8-0.5-1.5-0.8-2.2c0-0.1,0-0.2,0-0.3c0.3-0.9,0.5-1.7,0.7-2.6
		V7.9C20,7.7,20,7.4,20.1,7.1c0.2-0.9,0.2-1.7,0.1-2.6c-0.1-0.4-0.2-0.7-0.4-1l-0.1-0.1c-0.1,0-0.3,0-0.5,0.1
		c-0.6,0.2-1.2,0.5-1.7,1c-0.3,0.2-0.6,0.5-0.8,0.7c-0.3,0.2-0.7,0.7-1,1.1l-0.3,0.4c-0.1,0.1-0.1,0.1-0.2,0.1
		c-0.7-0.2-1.4-0.4-2.1-0.5c-0.6,0-1.2,0-1.7,0c-0.8,0-1.7,0.2-2.4,0.5c-0.1,0-0.2,0-0.2-0.1L7.2,5.2L7.1,5.1
		C6.6,4.6,6.2,4.3,5.7,3.9C5.3,3.7,4.9,3.5,4.5,3.4c-0.2,0-0.4,0-0.5,0.2C3.9,3.8,3.8,4.1,3.8,4.3C3.6,5.2,3.6,6.1,3.8,7
		c0,0.4,0.1,0.8,0.2,1.1C4.1,8.8,4.2,9.4,4.4,10c0.1,0.3,0.2,0.5,0.3,0.7c0,0.1,0,0.1,0,0.2c-0.5,1-0.9,2.1-1.1,3.2
		c-0.1,0.5-0.2,1-0.2,1.5c0.4-0.1,0.7-0.1,1.1-0.1c1.3,0,2.5,0.5,3.4,1.4l0.2,0.2c0.1,0,0.1-0.1,0.1-0.1c0.3-0.6,0.6-1.2,1.1-1.8
		c0.8-0.8,1.9-1.2,3-1.1c1.1,0.1,2.1,0.8,2.6,1.8c0.2,0.4,0.4,0.8,0.5,1.2c0.1,0,0.1-0.1,0.1-0.1c0.7-0.7,1.7-1.2,2.7-1.4
		c0.6-0.1,1.2-0.1,1.8,0h0.2C20.4,15.6,20.4,15.4,20.4,15.2z M9.2,11.1c0,0.2-0.1,0.4-0.3,0.5c-0.3,0.1-0.6,0.1-0.9,0.1
		c-0.1,0-0.3,0-0.4,0c-0.3,0-0.5-0.2-0.5-0.5c0-0.1,0-0.3,0.1-0.4c0.2-0.4,0.7-0.7,1.1-0.6C8.8,10.2,9.1,10.6,9.2,11.1z M5.2,9.7
		L5.1,9.8C5,9.4,4.8,9,4.7,8.5C4.6,8,4.4,7.5,4.4,6.9c0-0.2-0.1-0.4-0.1-0.6c0-0.2,0-0.5,0-0.7c0-0.3,0.1-0.6,0.2-0.9
		c0-0.1,0.1-0.1,0.2-0.1C5.1,4.8,5.6,5.1,6,5.4c0.4,0.3,0.8,0.6,1.2,1C7.4,6.6,7.6,6.8,7.8,7c0,0,0.1,0.1,0,0.1
		C7.2,7.5,6.7,7.9,6.2,8.4C5.8,8.8,5.5,9.2,5.2,9.7z M10,14.3c-0.1,0-0.3,0-0.4,0c-0.8-0.1-1.5-0.3-2.2-0.6
		c-0.2-0.1-0.4-0.2-0.5-0.4c-0.1-0.1-0.1-0.1-0.1-0.2c0-0.2,0-0.5,0-0.7c0.1-0.2,0.1-0.2,0.3-0.2c0.3,0,0.5,0.1,0.8,0.3
		c0.5,0.3,1.1,0.6,1.6,0.9c0.2,0.1,0.4,0.3,0.5,0.5c0.1,0.1,0.1,0.2,0.1,0.3C10.1,14.2,10.1,14.2,10,14.3z M14.6,11
		c0-0.1,0.1-0.3,0.2-0.4c0.2-0.3,0.5-0.4,0.8-0.5c0.6,0,1.1,0.4,1.2,0.9c0,0.2-0.1,0.4-0.2,0.6c-0.1,0-0.1,0.1-0.2,0.1
		c-0.2,0-0.4,0-0.5,0c-0.3,0-0.5,0-0.8-0.1c-0.1,0-0.2-0.1-0.3-0.2C14.6,11.3,14.6,11.1,14.6,11z M17,13.4c-0.5,0.3-1,0.5-1.5,0.7
		c-0.4,0.1-0.7,0.2-1.1,0.2c-0.1,0-0.2,0-0.3,0c-0.1,0-0.1-0.1-0.1-0.2c0-0.2,0.1-0.3,0.2-0.4c0.1-0.1,0.2-0.2,0.4-0.3
		c0.6-0.4,1.1-0.7,1.8-1c0.2-0.1,0.5-0.2,0.7-0.2c0.1,0,0.2,0,0.2,0.1c0.1,0.2,0.1,0.5,0.1,0.7C17.3,13.2,17.2,13.3,17,13.4z
		 M18.6,9.8C18.4,9.5,18.2,9.3,18,9c-0.3-0.4-0.7-0.8-1.1-1.2c-0.3-0.3-0.6-0.5-0.9-0.7c-0.1,0-0.1-0.1,0-0.1c0.4-0.4,0.7-0.7,1.1-1
		c0.4-0.4,0.8-0.7,1.2-1c0.2-0.1,0.5-0.3,0.8-0.4c0.1,0,0.1,0,0.1,0c0.1,0.3,0.2,0.5,0.2,0.8c0,0.3,0,0.6,0,0.9
		c0,0.4-0.1,0.7-0.2,1.1c-0.2,0.7-0.3,1.3-0.6,2C18.7,9.6,18.6,9.7,18.6,9.8z"/>
	<path fill="#FEFDFD" d="M20.2,15.7c-0.6-0.1-1.2-0.1-1.8,0c-1,0.2-2,0.7-2.7,1.4l-0.1,0.1c-0.1-0.4-0.3-0.8-0.5-1.2
		c-0.5-1-1.5-1.6-2.6-1.8c-1.1-0.1-2.2,0.3-3,1.1c-0.5,0.5-0.8,1.1-1.1,1.8c0,0,0,0.1-0.1,0.1L8,17c-0.9-0.9-2.2-1.5-3.5-1.4
		c-0.4,0-0.7,0-1.1,0.1c0,0.3,0,0.7,0.1,1c0.2,0.7,0.6,1.2,1.1,1.7C6.1,20,8,21.2,10,21.8c1,0.4,2.1,0.4,3.2,0.2
		c1.5-0.3,2.9-0.9,4.1-1.8c1-0.7,1.9-1.5,2.5-2.5c0.4-0.6,0.6-1.3,0.6-2H20.2z M12.7,19.4C12.6,19.4,12.6,19.4,12.7,19.4
		c-0.1,0-0.3-0.1-0.3,0l-0.1,0.1l-0.1,0.1c0,0-0.1,0-0.1-0.1L12,19.3c0-0.1-0.1-0.1-0.1-0.1s-0.1,0-0.1,0.1c0,0.1-0.1,0.1-0.1,0
		l-0.2-0.1c-0.1,0-0.1-0.1-0.1-0.2s0.1,0,0.1,0c0.2,0,0.5,0,0.7,0h0.7c0.1,0,0.1,0,0.1,0.1C12.9,19.4,12.8,19.4,12.7,19.4z
		 M14.4,18.6c-0.1,0.2-0.1,0.4-0.1,0.5c0,0.2-0.1,0.1-0.1,0.1c-0.1,0-0.1,0-0.1,0.1l-0.2,0.6c-0.1-0.1-0.1-0.3-0.1-0.4
		c0-0.2,0-0.4,0-0.6c0-0.1,0-0.1-0.1-0.1c-0.9,0.1-1.8,0.1-2.6,0c-0.1,0-0.1,0-0.1,0.1c0,0.1,0,0.5,0,0.7c0,0.1,0,0.2-0.1,0.3
		c-0.1-0.2-0.2-0.4-0.3-0.6c0-0.1,0-0.2-0.2-0.1c-0.2,0-0.1,0-0.1-0.1V19c0-0.2-0.1-0.3-0.2-0.4v-0.1c0,0,0,0,0.1,0h0.6
		c0,0,0.1,0,0.1,0.1c0,0.1,0,0,0.1,0h0.9c0,0,0.1,0,0.1-0.1l0.1-0.2v-0.1c0,0,0.1-0.1,0.1-0.2s0-0.3,0-0.5c-0.1-0.1-0.3-0.1-0.4-0.2
		c-0.2-0.1-0.4-0.3-0.6-0.5c-0.1-0.1-0.2-0.3-0.2-0.5V16c0-0.1,0-0.2,0.1-0.3c0.1-0.1,0.2-0.1,0.3-0.1h1.5c0.3,0,0.5,0.3,0.5,0.5
		c0,0.2,0,0.4,0,0.6c-0.1,0.4-0.4,0.8-0.8,0.9c-0.1,0.1-0.2,0.1-0.1,0.2c0,0.1,0,0.3,0,0.4c0,0.1,0,0.1,0,0.1s0.2,0.1,0.2,0.2
		s0.1,0.1,0.2,0.1c0.2,0,0.5,0,0.7,0h0.1c0,0,0.2-0.1,0.3-0.1L14.4,18.6C14.4,18.5,14.4,18.5,14.4,18.6z"/>
	<path fill="#FE8300" d="M18.6,9.8C18.4,9.5,18.2,9.3,18,9c-0.3-0.4-0.7-0.8-1.1-1.2c-0.3-0.3-0.6-0.5-0.9-0.7c-0.1,0-0.1-0.1,0-0.1
		c0.4-0.4,0.7-0.7,1.1-1c0.4-0.4,0.8-0.7,1.2-1c0.2-0.1,0.5-0.3,0.8-0.4c0.1,0,0.1,0,0.1,0c0.1,0.3,0.2,0.5,0.2,0.8
		c0,0.3,0,0.6,0,0.9c0,0.4-0.1,0.7-0.2,1.1c-0.2,0.7-0.3,1.3-0.6,2C18.7,9.6,18.6,9.7,18.6,9.8z"/>
	<path fill="#FE8300" d="M5.1,9.8C5,9.4,4.8,9,4.7,8.5C4.6,8,4.4,7.5,4.4,6.9c0-0.2-0.1-0.4-0.1-0.6c0-0.2,0-0.5,0-0.7
		c0-0.3,0.1-0.6,0.2-0.9c0-0.1,0.1-0.1,0.2-0.1C5.1,4.8,5.6,5.1,6,5.4c0.4,0.3,0.8,0.6,1.2,1C7.4,6.6,7.6,6.8,7.8,7
		c0,0,0.1,0.1,0,0.1C7.2,7.5,6.7,7.9,6.2,8.4c-0.4,0.4-0.7,0.8-1,1.3L5.1,9.8z"/>
	<path fill="#020100" d="M9.6,14.3C8.8,14.2,8,14,7.3,13.7c-0.2-0.1-0.4-0.2-0.5-0.4c-0.1-0.1-0.1-0.1-0.1-0.2c0-0.2,0-0.5,0-0.7
		c0.1-0.2,0.1-0.2,0.3-0.2c0.3,0.1,0.5,0.1,0.8,0.3c0.5,0.3,1.1,0.6,1.5,0.9c0.2,0.1,0.4,0.3,0.5,0.5c0.2,0,0.2,0.1,0.2,0.2
		c0,0.1,0,0.1-0.1,0.2C9.8,14.3,9.7,14.3,9.6,14.3z"/>
	<path fill="#020100" d="M14.4,14.3c-0.1,0-0.2,0-0.3,0c-0.1,0-0.1-0.1-0.1-0.2c0-0.2,0.1-0.3,0.2-0.4c0.1-0.1,0.2-0.2,0.4-0.3
		c0.6-0.4,1.1-0.7,1.8-1c0.2-0.1,0.5-0.2,0.7-0.2c0.1,0,0.1,0,0.2,0.1c0.1,0.2,0.1,0.5,0.1,0.7s-0.1,0.4-0.3,0.5
		c-0.5,0.3-1,0.5-1.5,0.7C15.1,14.2,14.8,14.3,14.4,14.3z"/>
	<path fill="#FEFDFD" d="M8,11.6c-0.1,0-0.3,0-0.4,0c-0.3,0-0.5-0.2-0.5-0.5c0-0.1,0-0.3,0.1-0.4c0.2-0.4,0.7-0.7,1.2-0.6
		c0.5,0.1,0.8,0.5,0.9,1c0,0.2-0.1,0.4-0.3,0.5C8.6,11.6,8.3,11.7,8,11.6z"/>
	<path fill="#FEFDFD" d="M15.8,11.6c-0.3,0-0.5,0-0.8-0.1c-0.1,0-0.3-0.1-0.3-0.2c-0.1-0.1-0.1-0.3,0-0.4c0-0.1,0.1-0.3,0.2-0.4
		c0.2-0.3,0.5-0.4,0.8-0.5c0.6,0,1.1,0.4,1.2,0.9c0,0.2-0.1,0.4-0.2,0.6c-0.1,0-0.1,0.1-0.2,0.1C16.1,11.6,15.9,11.7,15.8,11.6z"/>
	<path fill="#020100" d="M13.7,19.9c-0.1-0.1-0.1-0.3-0.1-0.4c0-0.2,0-0.4,0-0.6c0-0.1,0-0.1-0.1-0.1c-0.9,0.1-1.8,0.1-2.6,0
		c-0.1,0-0.1,0-0.1,0.1c0,0.1,0,0.5,0,0.7c0,0.1,0,0.2-0.1,0.3c-0.1-0.2-0.2-0.4-0.3-0.6c0-0.1,0-0.2-0.2-0.1c-0.2,0-0.1,0-0.1-0.1
		V19c0-0.2-0.1-0.3-0.2-0.4v-0.1c0,0,0,0,0.1,0h0.6c0,0,0.1,0,0.1,0.1c0,0.1,0,0,0.1,0h0.9c0,0,0.1,0,0.1-0.1l0.1-0.2v-0.1
		c0,0,0.1-0.1,0.1-0.2s0-0.3,0-0.5c-0.1-0.1-0.3-0.1-0.4-0.2c-0.2-0.1-0.4-0.3-0.6-0.5c-0.1-0.1-0.2-0.3-0.2-0.5V16
		c0-0.1,0-0.2,0.1-0.3c0.1-0.1,0.2-0.1,0.3-0.1h1.5c0.3,0,0.5,0.3,0.5,0.5c0,0.2,0,0.4,0,0.6c-0.1,0.4-0.4,0.8-0.8,0.9
		c-0.1,0.1-0.2,0.1-0.1,0.2c0,0.1,0,0.3,0,0.4c0,0.1,0,0.1,0,0.1s0.2,0.1,0.2,0.2s0.1,0.1,0.2,0.1c0.2,0,0.5,0,0.7,0h0.1
		c0,0,0.2-0.1,0.3-0.1h0.4c0.1,0,0.1,0,0,0.1c0,0.1-0.1,0.4-0.1,0.5c0,0.2-0.1,0.1-0.1,0.1c-0.1,0-0.1,0-0.1,0.1L13.7,19.9z"/>
	<path fill="#020100" d="M12.1,19.1h0.7c0.1,0,0.1,0,0.1,0.1c0,0.1-0.1,0.1-0.2,0.2c-0.1,0.1-0.1,0-0.1,0s-0.2-0.1-0.2,0l-0.1,0.1
		l-0.1,0.1c0,0-0.1,0-0.1-0.1L12,19.3c0-0.1-0.1-0.1-0.1-0.1s-0.1,0-0.1,0.1c0,0.1-0.1,0.1-0.1,0l-0.2-0.1c-0.1,0-0.1-0.1-0.1-0.2
		s0.1,0,0.1,0C11.6,19.1,11.9,19.1,12.1,19.1z"/>
</g>
</svg>
