<?xml version="1.0" encoding="utf-8"?>
<!-- Generator: Adobe Illustrator 27.4.1, SVG Export Plug-In . SVG Version: 6.00 Build 0)  -->
<svg version="1.2" baseProfile="tiny" id="Layer_1" xmlns="http://www.w3.org/2000/svg" xmlns:xlink="http://www.w3.org/1999/xlink"
	 x="0px" y="0px" viewBox="0 0 24 24" overflow="visible" xml:space="preserve">
<g id="surface1">
	<path fill="#53AE94" d="M24,12c0,6.6-5.4,12-12,12S0,18.6,0,12S5.4,0,12,0S24,5.4,24,12z"/>
	<path fill="#FFFFFF" d="M13.7,10.4v-2h4.6V5.3H5.7v3.1h4.6v2c-3.7,0.2-6.6,0.9-6.6,1.8c0,0.9,2.8,1.6,6.6,1.8v6.5h3.3V14
		c3.7-0.2,6.6-0.9,6.6-1.8C20.2,11.3,17.4,10.6,13.7,10.4z M13.7,13.5c-0.1,0-0.6,0-1.7,0c-0.9,0-1.5,0-1.7,0
		c-3.3-0.1-5.8-0.7-5.8-1.4c0-0.7,2.5-1.3,5.8-1.4V13c0.2,0,0.8,0.1,1.7,0.1c1,0,1.5,0,1.6-0.1v-2.3c3.3,0.1,5.8,0.7,5.8,1.4
		C19.4,12.8,17,13.3,13.7,13.5"/>
</g>
</svg>
