<?xml version="1.0" encoding="utf-8"?>
<!-- Generator: Adobe Illustrator 27.4.1, SVG Export Plug-In . SVG Version: 6.00 Build 0)  -->
<svg version="1.2" baseProfile="tiny" id="Layer_1" xmlns="http://www.w3.org/2000/svg" xmlns:xlink="http://www.w3.org/1999/xlink"
	 x="0px" y="0px" viewBox="0 0 24 24" overflow="visible" xml:space="preserve">
<g id="surface1">
	<path fill="#333333" d="M24,12c0,6.6-5.4,12-12,12S0,18.6,0,12S5.4,0,12,0S24,5.4,24,12z"/>
	<path fill="#FFFFFF" d="M2.6,15.9c0-0.2,0-0.4,0-0.6c-0.2-0.6,0.2-1.2,0.8-1.4c0.6-0.2,0.7-0.9,0.7-1.5c-0.2-3.7,2.1-7,5.6-8
		c2.2-0.7,4.6-0.4,6.5,0.9c0.1,0.1,0.3,0.2,0.4,0.3c-0.4,0.2-0.8,0.4-1.3,0.6c-0.2,0-0.4,0-0.6-0.1c-2.1-1-4.5-0.8-6.4,0.5
		c-1.9,1.3-3,3.4-2.9,5.7c0,0.2,0,0.3,0,0.6l15.8-8c0,0.5,0,0.9,0,1.4c0,0.2-0.2,0.3-0.4,0.4c-4,2.1-8.1,4.1-12.2,6.2l-5.6,2.9
		C3,15.8,2.8,15.8,2.6,15.9z"/>
	<path fill="#FFFFFF" d="M2.6,19.2c0-0.5,0-0.9,0-1.4c0-0.1,0.2-0.3,0.4-0.4c5.6-2.9,11.3-5.8,16.9-8.6L21.4,8c0,0.5,0,1,0,1.5
		c0,0.1-0.2,0.2-0.3,0.3c-0.8,0.3-1.3,1.1-1.1,1.9c0.2,3-1.4,5.7-4,7.1c-2.5,1.5-5.6,1.4-8-0.1l-0.5-0.3c0.5-0.2,0.9-0.5,1.3-0.7
		c0.2,0,0.3,0,0.5,0.1c1.9,0.9,4.1,0.9,6-0.1c1.9-1,3.1-2.9,3.3-5c0-0.5,0-1.1,0-1.6L2.6,19.2z"/>
</g>
</svg>
