<?xml version="1.0" encoding="UTF-8"?>
<svg id="Layer_1" data-name="Layer 1" xmlns="http://www.w3.org/2000/svg" viewBox="0 0 24 24">
  <circle cx="12" cy="12" r="12" style="stroke-width: 0px;"/>
  <path d="m12,.53c6.33,0,11.47,5.15,11.47,11.47s-5.15,11.47-11.47,11.47S.52,18.33.52,12,5.67.53,12,.53M12,0C5.37,0,0,5.37,0,12s5.37,12,12,12,12-5.37,12-12S18.63,0,12,0h0Z" style="fill: #fff; stroke-width: 0px;"/>
  <path d="m18.3,14.07c-.07.34-.17.64-.32.91-.18.33-.43.64-.77.92-.32.26-.66.46-1,.57-.34.12-.77.17-1.29.17-.69,0-1.32-.14-1.87-.43-.55-.28-.96-.7-1.23-1.26-.29.51-.69.91-1.21,1.21-.52.3-1.17.45-1.94.45-.51,0-.96-.08-1.37-.23-.4-.15-.75-.38-1.04-.67-.23-.23-.41-.5-.55-.81-.13-.31-.2-.66-.2-1.05s.08-.75.23-1.07c.15-.32.36-.6.62-.82.26-.23.56-.4.9-.53.34-.13.7-.19,1.07-.19.47-.01.94-.02,1.41-.03.46,0,.93,0,1.41,0v-.94c0-.59-.17-1.02-.51-1.29-.34-.27-.79-.41-1.34-.41s-1.01.12-1.38.37c-.36.25-.56.65-.6,1.21l-1.42-.26c.04-.39.15-.73.32-1.03.2-.36.46-.65.78-.88.32-.22.68-.39,1.08-.49.41-.1.82-.15,1.23-.15.26,0,.51.03.78.08.27.05.53.13.78.23.25.1.49.24.7.41.21.17.39.36.55.58.29-.4.65-.72,1.09-.94s.99-.33,1.65-.33c.75,0,1.35.14,1.81.41.46.27.84.65,1.15,1.13.26.41.44.85.54,1.33.09.48.14,1.04.14,1.69v.45l-5.93.02v.07c0,.37.04.73.12,1.08.08.35.21.66.4.94.19.27.43.49.73.66s.67.25,1.11.25.83-.13,1.21-.38c.38-.26.64-.66.76-1.21l1.41.25Zm-9.64-1.73c-.45,0-.84.13-1.17.39-.33.26-.49.63-.49,1.12s.16.86.48,1.12c.32.26.71.39,1.17.39.33,0,.66-.05.99-.15.32-.1.6-.26.83-.49.33-.33.54-.68.6-1.02.07-.35.1-.72.1-1.13v-.24l-2.51.02Zm8.32-1.09c-.01-.4-.06-.77-.15-1.1-.09-.33-.23-.61-.43-.86-.16-.21-.37-.38-.62-.51-.26-.13-.58-.2-.97-.2-.33,0-.62.06-.87.17-.24.12-.46.27-.64.47-.24.26-.43.55-.55.9-.12.35-.18.72-.18,1.13h4.4Z" style="fill: #fff; stroke-width: 0px;"/>
</svg>