<?xml version="1.0" encoding="utf-8"?>
<!-- Generator: Adobe Illustrator 27.4.1, SVG Export Plug-In . SVG Version: 6.00 Build 0)  -->
<svg version="1.2" baseProfile="tiny" id="Layer_1" xmlns="http://www.w3.org/2000/svg" xmlns:xlink="http://www.w3.org/1999/xlink"
	 x="0px" y="0px" viewBox="0 0 24 24" overflow="visible" xml:space="preserve">
<g id="surface1">
	<path fill="#988430" d="M24,12c0,6.6-5.4,12-12,12S0,18.6,0,12S5.4,0,12,0S24,5.4,24,12z"/>
	<path fill="#BA9F33" d="M23.4,12c0,6.3-5.1,11.4-11.4,11.4S0.6,18.3,0.6,12S5.7,0.6,12,0.6S23.4,5.7,23.4,12z"/>
	<path fill-rule="evenodd" fill="#CFB66C" d="M5.2,10.7c-0.1-0.1-0.1-0.1-0.2-0.2c-0.1-0.1-0.1-0.1-0.2-0.2l-0.2-0.2
		c0,0-0.1-0.1-0.1-0.1c0,0-0.1-0.1-0.1-0.1C4.2,9.7,3.9,9.5,3.6,9.2C3.9,9.5,4.2,9.7,4.4,10l0.1,0.1c0,0,0.1,0.1,0.1,0.1l0.2,0.2
		C4.9,10.4,5,10.5,5,10.5C5.1,10.6,5.2,10.7,5.2,10.7z M1.7,10.7c0,0,1,0.1,1.4,0.2C3.6,10.9,5,11.1,5,11.1L1.7,10.7z M1.7,10.7
		c0.3,0,0.5,0.1,0.8,0.1c0.1,0,0.3,0,0.4,0l0.2,0c0.1,0,0.1,0,0.2,0L4.1,11l0.4,0.1c0.1,0,0.3,0.1,0.4,0.1c-0.1,0-0.3,0-0.4-0.1
		L4.1,11l-0.8-0.1c-0.1,0-0.1,0-0.2,0l-0.2,0c-0.1,0-0.3,0-0.4-0.1C2.2,10.8,2,10.7,1.7,10.7z M4.9,11.4c0,0-1,0.3-1.4,0.4
		c-0.3,0.1-1.4,0.4-1.4,0.4L4.9,11.4z"/>
	<path fill-rule="evenodd" fill="#CFB66C" d="M4.9,11.4c-0.2,0.1-0.5,0.1-0.7,0.2l-0.7,0.2C3.2,11.8,3,11.9,2.8,12l-0.3,0.1
		c-0.1,0-0.2,0.1-0.4,0.1c0.1,0,0.2-0.1,0.3-0.1l0.3-0.1c0.2-0.1,0.5-0.1,0.7-0.2c0.2-0.1,0.5-0.1,0.7-0.2
		C4.4,11.5,4.6,11.4,4.9,11.4z M2.2,12.8c0.1,0,1.4-0.7,1.7-0.8c0.2-0.1,0.6-0.2,0.6-0.2L2.2,12.8z"/>
	<path fill-rule="evenodd" fill="#CFB66C" d="M2.2,12.8c0.1,0,0.2-0.1,0.3-0.1l0.3-0.1l0.6-0.3C3.6,12.2,3.8,12.1,4,12
		c0.1,0,0.2-0.1,0.3-0.1l0.2-0.1c0.1,0,0.1,0,0.2,0C4.4,11.9,4.2,11.9,4,12c-0.2,0.1-0.4,0.2-0.6,0.3l-0.6,0.3
		C2.6,12.6,2.4,12.7,2.2,12.8z M2.4,13.3c0,0,1.2-0.7,1.6-0.9c0.2-0.1,0.9-0.5,0.9-0.5L2.4,13.3z"/>
	<path fill-rule="evenodd" fill="#CFB66C" d="M2.4,13.3C2.6,13.2,2.8,13.1,3,13l0.3-0.2c0.1-0.1,0.2-0.1,0.3-0.2
		c0.1-0.1,0.2-0.1,0.3-0.2c0.1,0,0.1-0.1,0.2-0.1l0.2-0.1c0.2-0.1,0.4-0.2,0.7-0.3c-0.2,0.1-0.4,0.2-0.6,0.4
		c-0.1,0.1-0.2,0.1-0.3,0.2c-0.1,0.1-0.2,0.1-0.3,0.2c-0.1,0.1-0.2,0.1-0.3,0.2L3,13L2.4,13.3z M4.9,12.1c0,0-0.7,0.6-1,0.8
		c-0.2,0.2-0.9,0.7-0.9,0.7L4.9,12.1z"/>
	<path fill-rule="evenodd" fill="#E2CC85" d="M9.1,16.7L8.8,16L9,15.1l1.6-0.6l-0.7-1.4l0.3-1.4l0.6-1.2l1.9-0.3l1.4-1.4L17.2,9
		l0.6,3.3l-1.2,4.1L16,18.5l-2.7,0.1l-1.2-0.9l-1.5-0.6L9.1,16.7z"/>
	<path fill-rule="evenodd" fill="#F1D789" d="M13.8,16.7c0,0-0.4,0.2-1,0.1c-0.2-0.2-1.5-0.4-1.5-0.4s-0.2,0-0.4,0.1
		c-0.3,0.1-0.6,0.1-0.8,0.2c-0.2,0.1-0.5-0.3-0.7-0.3C9.2,16.3,9,16.1,9,16.1L8.4,16l-1.1-0.5l-1.7-1.7l-0.5,0.7L5,15.5l0.5,1.1
		l1.4,1.3l2.7,0.7l1.6-0.5l2-0.9L13.8,16.7z"/>
	<path fill-rule="evenodd" fill="#F4ECB4" d="M4.1,10.6l0.3-1l0.4-0.7l1.3-0.1L5.8,10l-1.1,2l0.5,1.8l-0.8,0.4l-0.2-0.4l-0.2-0.9
		l0-1L4.1,10.6z"/>
	<path fill-rule="evenodd" fill="#F3E19D" d="M5.6,16.6l-0.3-0.4c0,0-0.1-0.2,0-0.3c0-0.2,0-0.2,0-0.2c0-0.1-0.2-0.3-0.2-0.4
		c0-0.2,0-0.2,0.1-0.4c0.1-0.1,0.1-0.4,0.1-0.4l0.2,0.1l0-0.1c0,0,0.1,0.1,0.1,0.1c0-0.1,0-0.6,0.1-0.7c0.1-0.1,0.4,0.5,0.4,0.5
		L6,13.7l-0.4-0.9L5,11.9l0-0.9v-0.1c0,0-0.3,0.4-0.4,0.8c-0.1,0.2,0.1,0.5,0.1,0.9c0,0.4-0.1,0.3,0,0.5c0.1,0.1,0.3,0.4,0.2,0.6
		c-0.1,0.2-0.3,0.1-0.3,0.1s0,0.1-0.1,0.2c0-0.1-0.1-0.1-0.1-0.2c0,0,0,0.1,0,0.1s0-0.1-0.1-0.3c-0.1-0.2-0.1-0.5-0.2-0.7
		C4,12.9,4,13.2,4,13.2l0,0.4l0.2,0.6l0.2,0.4L4.5,15l0.1,0.3l0.1,0.2l0.1,0.5l0.4,0.5l0.2,0.1L5.6,16.6z"/>
	<path fill-rule="evenodd" fill="#F2E8B0" d="M4.4,9.8c0,0-0.3,0.5-0.4,1.1c-0.1,0.5-0.2,1.1-0.1,1.9c0.1,0.7,0.2,1.2,0.3,1.5
		c0.2,0.5,0.6,1.3,0.6,1.3l0,0c-0.1-0.1-0.1-0.3-0.2-0.4c-0.1-0.2-0.1-0.5-0.1-0.6c0-0.1-0.1-0.2-0.1-0.3c0-0.1,0-0.3-0.1-0.5
		c0-0.1-0.1-0.2-0.1-0.4c0-0.2,0-0.5,0-0.7c0-0.4-0.1-0.6,0-0.8c0-0.2,0.2-0.8,0.4-1.2c0.1-0.3,0-0.5,0.2-0.8
		c0.1-0.2,0.2-0.5,0.3-0.6C4.8,9,4.4,9.8,4.4,9.8z"/>
	<path fill-rule="evenodd" fill="#F5EEC0" d="M5.9,9.6c0,0-0.2,0.1-0.2,0.1C5.6,9.8,5.5,9.9,5.4,10c-0.1,0.1-0.1,0.2-0.2,0.4
		c-0.1,0.2-0.3,0.4-0.3,0.5c0,0.1-0.1,0.5-0.1,0.7c0,0.2,0,0.4,0,0.4l0.1,0c0,0,0,0.1,0.1,0.2C5.2,12.4,5.2,12,5.2,12l0.4-1.4
		l0.6-0.4l0.1-0.3L5.9,9.6z"/>
	<path fill-rule="evenodd" fill="#E6DB9D" d="M6.2,10.2c0,0-0.3,0-0.4,0.1c-0.1,0-0.1,0.1-0.1,0.1c-0.1,0.1-0.2,0.2-0.3,0.3
		c-0.1,0.1-0.1,0.3-0.2,0.7c0,0.2,0,0.3,0,0.4c0,0.2,0,0.3,0,0.4c0,0.2,0.2,0.3,0.2,0.5l0.4-0.2L6.1,11l0.8-0.5L6.4,10L6.2,10.2z"/>
	<path fill-rule="evenodd" fill="#E5CB7A" d="M4.1,20.2C4.1,20.1,4.1,20.1,4.1,20.2c0.1-0.5,0.1-0.9,0.1-1.2
		c0.1-0.3,0.1-0.5,0.1-0.6c0-0.2,0-0.3,0-0.5c0-0.2,0.2-0.4,0.2-0.6c0-0.1-0.1-0.2-0.1-0.3c-0.1-0.1-0.1-0.2-0.1-0.2
		s0.4-0.3,0.4-1.4c0,0,0,0,0,0L4.9,16L5,16.2l0.5,1l0.7,0.6l1,0.7l0.6,0.7l0.1,1.8l-0.8,1l-0.1,0.2C5.9,21.6,4.9,21,4.1,20.2z"/>
	<path fill-rule="evenodd" fill="#D8C173" d="M6.5,21.9c0,0,0-0.2,0.2-0.4c0,0.1,0,0.1,0,0.1c0-0.1,0.3-0.4,0.8-0.5
		c0.5-0.1,0.6-0.5,0.6-0.5l1.1-1l1.3-1.2l1.5-0.5l0.7-0.2c0,0,0,0.1,0,0.2c0.1,0,0.4-0.1,0.7-0.2c0.1,0,0.2-0.1,0.3,0
		C14,17.8,14,18,14,18.1c0.1,0,0.3-0.2,0.5-0.2c0.2,0,0.4,0.3,0.6,0.3c0.3,0,0.4-0.2,0.6-0.3c0.1-0.1,0.3-0.2,0.4-0.3
		c0.2-0.2,2.8-1,2.8-1l0.9,0.1l0.1,1l-0.1,2.5c0,0,0,0,0,0l-4.1,2.1l-5.6,0.9C8.9,23,7.7,22.6,6.6,22L6.5,21.9z"/>
	<path fill-rule="evenodd" fill="#F1D789" d="M4.4,20.5c0.1-0.2,0.2-0.3,0.2-0.4c0,0.1,0,0.3,0.1,0.6C4.6,20.6,4.5,20.5,4.4,20.5z"
		/>
	<path fill-rule="evenodd" fill="#E0CD81" d="M8.5,22.8l0.7-0.2l0.1,0c0,0,0,0,0,0.1c0.1-0.1,0.2,0,0.2-0.1c0,0.1,0.1,0.3,0.2,0.3
		c0.1,0,0.3-0.1,0.4-0.2c0.1-0.1,0.3-0.3,0.4-0.3c0,0.1,0.1,0.2,0.1,0.3c0.2-0.1,0.4-0.7,0.8-0.6c0.1-0.3,0.3-0.5,0.6-0.7
		c0.4-0.3,0.6-0.3,0.9-0.2c0.1-0.2,0.3-0.3,0.4-0.4c0.1,0,0.2,0.1,0.4,0c0.2-0.1,0.4-0.4,0.6-0.4c0.1,0,0.3,0,0.4,0.1
		c0,0,0.7-0.7,1.2-1c0-0.1-0.1-0.3,0.5-0.8c0,0,0,0.1,0,0.1c0,0,0.2-0.1,0.3-0.2c0.2-0.2,0.5-0.3,0.7-0.4c0.3-0.1,0.6,0.1,0.6,0.1
		c0,0,0.1,0,0.1,0c0.1,0,0.1,0,0.2,0c0,0.1,0.1,0.3,0,0.4c0.1,0,0.1,0.1,0.2,0.1c0,0.1-0.1,0.3-0.2,0.3c0.1,0,0.1,0.1,0.3,0.2
		c-0.1,0.1-0.2,0.2-0.2,0.3c0,0.1-0.2,0.5-0.3,0.6s-0.2,0.4-0.2,0.5c0,0.1-0.2,0.3-0.3,0.4c0.1,0,0.6-0.2,0.8-0.2
		c-0.1,0.1-0.4,0.5-0.7,1C15,23.4,11.6,23.8,8.5,22.8L8.5,22.8z"/>
	<path fill-rule="evenodd" fill="#DFC57C" d="M6.2,10.1c0,0-0.2,0-0.2,0c0,0,0.2,0.1,0.2,0.1c0.1,0,0.2,0.1,0.2,0.2
		c0,0.1,1.2,0.6,1.2,0.6l0.8,0l0.3-0.4l-0.6-0.5L8.7,9L8.1,9.1L6.9,9.8L6.3,10L6.2,10.1z"/>
	<path fill-rule="evenodd" fill="#E5CC7C" d="M8.1,10.5c0,0,0.1,0.1,0.1,0.1c0.2,0,0.3,0,0.4,0.1C8.7,10.9,9,11.3,9,11.3l0.7,0.3
		l0-0.9L9,10.1L8.1,10.5L8.1,10.5L8.1,10.5z"/>
	<path fill-rule="evenodd" fill="#D2C281" d="M7.9,10.8c0,0,0.1,0,0.3-0.1c0.2-0.1,0.4-0.2,0.6-0.1c0.2,0.1,0.1,0.3,0.3,0.5
		c0.1,0.1,0.3,0.1,0.4,0.3c0.1,0.1,0.5,0.1,0.5,0.1l0.2,0.8L9.6,13l-0.2,1H8.6l-0.7-0.3l-0.4-0.9l0.2-0.9L7.9,10.8z"/>
	<path fill-rule="evenodd" fill="#E2C270" d="M9.5,10.9C9.5,10.9,9.5,10.9,9.5,10.9c0,0,0,0.1,0,0.2c0,0.1,0.1,0.3,0,0.3
		c0,0,0.1,0.1,0.1,0.2c0,0.1,0,0.2,0.3,0.2c0,0-0.1,0-0.1,0.1c0,0,0.1,0.1,0.2,0.3c0.1,0,0.3-0.1,0.3-0.1l0,0l0.1,0c0,0-0.1,0,0-0.2
		c0.1-0.2,0.1-0.2,0.1-0.2c0,0,0-0.2,0-0.3c0-0.1,0.1-0.4,0.1-0.4l-0.1-0.7L10.2,10L9.9,9.7l-0.3,0.5l-0.2,0.2L9.5,10.9L9.5,10.9z"
		/>
	<path fill-rule="evenodd" fill="#CCB360" d="M10.3,10.3c0,0,0.1,0.2,0.1,0.3c0,0,0-0.1,0-0.1c0,0,0,0.3,0.1,0.4c0,0,0,0,0,0
		c0,0,0.1,0.2,0,0.4c0.1-0.1,0.2-0.2,0.3-0.3c0.1-0.1,0.2-0.1,0.3-0.1c0.1,0,0.3,0.1,0.4,0.1c0.4,0,0.8-0.3,1.1-0.4
		c0.2-0.1,0.4-0.1,0.5-0.2c0.1-0.1,0.2-0.2,0.3-0.3c0.1-0.2,0.3-0.4,0.4-0.5c-0.1,0-0.1,0-0.2,0c0,0,0,0,0.1-0.1
		c0.1-0.1,0.2-0.1,0.3-0.1c0.2,0,0.3,0,0.5,0c0.1,0,0.2,0,0.2,0s0.1,0.1,0.4,0.1c0.3,0,0.5,0,0.6,0c0.2,0,0.7,0,0.8,0
		c0.1,0,0.2,0,0.3,0.1l-0.5-1.4l-1.7-1.5l-1,0.7l-1.6,1.6l-1.5,0.6l-0.3,0.4L10.3,10.3L10.3,10.3z"/>
	<path fill-rule="evenodd" fill="#D5B457" d="M13.7,9.5c0,0,0,0,0.1-0.1c0.1-0.1,0.2-0.1,0.3-0.1c0.2,0,0.3,0,0.5,0
		c0.1,0,0.2,0,0.2,0s0.1,0.1,0.4,0.1c0.3,0,0.5,0,0.6,0c0.2,0,0.7,0,0.8,0c0.1,0,0.2,0,0.3,0.1l-0.2-0.6l-0.2-0.5l-0.7-0.8
		c0,0-0.9-0.5-0.9-0.5c0,0-0.3-0.1-0.3-0.1l-0.8,0.5l-0.7,1.8l0,0.4l0.5,0.2c0.1-0.2,0.2-0.3,0.4-0.4C13.8,9.5,13.7,9.5,13.7,9.5z"
		/>
	<path fill-rule="evenodd" fill="#D2B257" d="M13.7,9.7c-0.1,0-0.1,0-0.1-0.1c-0.1-0.2-0.1-0.2-0.2-0.2c0,0-0.1,0.1-0.2,0.1
		c0,0-0.1-0.1-0.1-0.1l0,0c0,0-0.2,0.2-0.4,0.4c-0.2,0.2-0.5,0.5-0.6,0.6c-0.1,0.1-0.6,0.1-0.7,0.1c-0.2,0-0.3,0.1-0.3,0.2
		c0,0,0.1,0.1,0.1,0.1c0,0-0.1,0-0.2,0c0,0,0,0.1,0.1,0.2c0,0,0.1,0,0.1,0c0.2,0,0.3,0.1,0.4,0.1c0.4,0,0.8-0.3,1.1-0.4
		c0.2-0.1,0.4-0.1,0.5-0.2c0.1-0.1,0.2-0.2,0.3-0.3C13.6,9.8,13.6,9.7,13.7,9.7z"/>
	<path fill-rule="evenodd" fill="#D2B159" d="M7.5,19.3c0,0,0-0.1-0.4-0.5C7,18.6,7,18.6,6.9,18.5c-0.2-0.2-0.3-0.2-0.4-0.3
		C6.2,18,6,18,5.7,17.8c-0.2-0.2-0.5-0.7-0.7-1.2C4.9,16.1,4.9,16,4.9,16c0,0,0.1-0.1,0.1-0.1C5,15.9,5,16,5,16c0,0,0.1,0.1,0.1,0.1
		c0.1,0.1,0.2,0.2,0.3,0.4c0-0.2-0.1-0.3-0.1-0.3s0.3,0.2,0.6,0.4c0.3,0.2,0.4,0.3,0.5,0.4c0.1,0.1,0.3,0.5,0.4,0.6
		c0.1,0.1,1.4,0.5,1.4,0.5l0.6,0.5l0.3,0.7L9,19.8l-0.5,0.1l-0.8-0.3L7.5,19.3z"/>
	<path fill-rule="evenodd" fill="#C2A44D" d="M5.8,16.9c0,0,0.2,0.3,0.5,0.5c0.3,0.2,0.9,0.4,1.4,0.5C8.1,18,8.3,18,8.6,18
		c0.7,0,1.2-0.2,1.7-0.2c0.3,0,0.7-0.1,1.1-0.2c0.5-0.1,0.8-0.3,1.2-0.5c0.3-0.1,0.6-0.2,0.8-0.4c0.3-0.2,0.5-0.4,0.8-0.5
		c0,0.1-0.1,0.3-0.3,0.4c0.1,0,0.3,0,0.3,0s-0.2,0.1-0.5,0.4c-0.2,0.2-0.5,0.4-0.7,0.6c-0.2,0.1-0.4,0.2-0.5,0.3
		c-0.3,0.2-0.4,0.3-0.6,0.5c0.1,0,0.1,0,0.1,0s-0.3,0-0.4,0.1c0,0-0.1,0-0.2,0c-0.1,0-0.2,0.1-0.3,0.1c-0.2,0.1-0.2,0-0.2,0l0,0.1
		c0,0-0.2,0-0.3,0c0,0,0,0,0,0c0,0,0,0,0,0c0,0-0.1,0-0.1,0.1c0,0,0,0-0.1,0c0,0,0.1,0.2,0.1,0.2c0,0-0.5,0.3-0.5,0.3c0,0,0,0,0,0.1
		c0,0,0,0.1,0,0.1c0,0.1,0.1,0.1,0.1,0.1s-0.1,0-0.1,0c-0.1,0-0.2,0.1-0.3,0.1c0,0-0.1,0-0.1,0c0,0,0.1,0.2-0.1,0.4
		c-0.2,0.2-0.2,0.2-0.3,0.3c0,0-0.1,0-0.1,0c-0.1,0-0.1-0.1-0.1-0.1c0,0.1,0,0.1-0.1,0.2c-0.1,0.1-0.1,0.3-0.1,0.4
		c-0.1-0.1-0.1-0.2-0.3-0.1c-0.1,0-0.2,0.2-0.3,0.3c0,0,0-0.1,0,0c0,0-0.1,0.5-0.5,0.9c0-0.1,0-0.3,0-0.4c0,0-0.1,0.1-0.4,0.2
		C7,21.9,7.1,22,7.1,22s0-0.2,0.1-0.4c0.2-0.2,0.2-0.3,0.2-0.3c0,0,0,0,0,0c0,0-0.1,0-0.1-0.1c0,0,0.3-0.1,0.2-0.3
		c0-0.2-0.1-0.3-0.2-0.4c0,0,0.1-0.1,0.1-0.1c0,0-0.1-0.1-0.1-0.2c0,0,0-0.1,0-0.1c0,0,0-0.1,0-0.1c0-0.1-0.1-0.2-0.1-0.2
		c0,0,0.1,0,0.1,0s-0.1-0.1-0.1-0.2c0-0.1,0-0.2-0.1-0.2c0,0,0.1,0,0.1,0c0,0-0.1-0.1,0-0.1c0,0,0.1,0,0.1,0.1
		c0-0.1-0.1-0.2-0.1-0.2c0,0,0.2,0,0.3,0c0.1,0.1,0.2,0.2,0.2,0.2s0.1,0.1,0.2,0.1c0.1,0.1,0.3,0.2,0.5,0.3c0.1,0,0.2,0,0.3,0
		c0,0,0.1,0,0.1,0c0,0,0,0,0,0c0,0,0-0.1-0.1-0.1c0,0,0.1,0,0.1,0s0-0.1-0.1-0.2c0,0,0.1,0,0.1-0.1c0,0-0.1-0.1-0.1-0.1
		c0,0,0-0.1,0.1-0.1c0,0-0.1-0.1-0.1-0.1c0,0,0.1,0,0.1,0c0,0-0.2,0-0.2-0.1c-0.1,0-0.1-0.1-0.2-0.1s-0.1,0-0.2-0.1c0,0,0.1,0,0.1,0
		c0,0,0,0,0.1,0c0,0,0,0,0.1-0.1c0,0,0.1,0,0.1,0c0,0-0.1,0-0.2-0.1c-0.1-0.1-0.1-0.1-0.2-0.1c0,0-0.1,0-0.2,0c-0.1,0-0.1,0-0.1,0
		s-0.3,0-0.8-0.3c-0.5-0.3-0.7-0.6-0.7-0.6c0,0-0.1,0-0.1-0.1C6.1,17.4,5.8,17.2,5.8,16.9L5.8,16.9z"/>
	<path fill-rule="evenodd" fill="#CAA13E" d="M13,5.2c0,0,0.1,0,0.1,0.1c0.1,0.1,0.2,0.3-0.1,0.5c0.1,0,0.1,0,0.2,0
		C13.1,6,13,6.1,13,6.3C13,6.4,13,6.5,13,6.5s-0.1,0.1-0.1,0.4C13,6.8,13,6.7,13.1,6.7c0.1-0.1,0.3-0.2,0.5-0.3c0,0,0,0.1,0,0.1
		c0,0,0.2-0.2,0.5-0.1c0.1,0,0.1,0.2,0.1,0.2s0.1-0.1,0.2,0c0.1,0.1,0.2,0.3,0.3,0.4c0,0,0.1,0.1,0.2,0.2c0.1,0.2,0.2,0.4,0.3,0.6
		c0-0.1,0-0.3,0.3-0.2c0.3,0.1,0.6,0.3,0.9,0.7c0.3,0.4,0.3,0.9,0.5,1.1C16.9,9.6,17,9.9,17,10c0,0.1,0,0.5,0.2,1.6
		c0.1-0.3,0.2-1.1,0.2-1.1l0.1-0.6l0.1-2l-2.1-1.7L14,5l-1.1,0.1L13,5.2z"/>
	<path fill-rule="evenodd" fill="#B59544" d="M16.8,8.2c0,0,0-0.2-0.5-0.5c-0.5-0.3-0.9-0.3-1.2-0.6c-0.3-0.2-0.5-0.7-0.7-0.9
		c-0.2-0.2-0.2-0.6-0.2-0.6l0.6-0.5l0.9-1.3L16.4,3l0.4,0.5l0.5,0.6l0.3,1.2l0.1,1.7L16.8,8.2z"/>
	<path fill-rule="evenodd" fill="#C89D3A" d="M17.4,10.3c0-0.3,0-0.5-0.1-0.8c-0.1-0.4-0.4-1.1-0.5-1.4c-0.1-0.3,0-0.3,0-0.3
		c0.1,0,0.3-0.2,0.4-0.6s0.5-0.4,0.5-0.4l0.2-0.2l0.3,0.8l0.3,0.8l0.1,0.6l0.1,0.5l-0.2,1L17.7,11L17.4,10.3z"/>
	<path fill-rule="evenodd" fill="#CEB052" d="M6.4,21.9L6.4,21.9C6.5,21.9,6.5,21.9,6.4,21.9c0.1-0.1,0.1-0.1,0.1-0.1
		c0,0,0.1,0,0.2,0s0.2,0.1,0.2,0.1c0.1,0,0.3-0.1,0.6-0.1c0.4,0.1,0.5,0.3,0.7,0.5c0.2,0.1,0.3,0.1,0.3,0.1h0.1c0,0,0.1-0.1,0.1-0.1
		c0.1,0,0.1,0.1,0.1,0.1c0.1,0,0.3-0.1,0.4,0c0.1,0,0.1,0.1,0.1,0.1c0,0.1,0,0.2-0.1,0.2c-0.1,0.1-0.2,0.2-0.3,0.3
		c0,0,0.1,0,0.1,0.1C8.2,22.8,7.3,22.4,6.4,21.9z"/>
	<path fill-rule="evenodd" fill="#CCA847" d="M16.8,18c0,0,0.3-0.4,0.4-0.6c0.1-0.2-0.3-2.8-0.3-2.8l0.9-2.9l0-0.9
		c0,0,0-0.9,0.1-1.2c0.1,0.2,0.5,0.5,0.6,0.6c0-0.3,0.2-0.8,0.1-1.4c0.1,0.1,0.2,1.2,0.2,1.2l0.2,0.8l0.2,0.8l0.2,0.8l0.1,0.6
		l0.1,0.1l0.1,0.2l0.1,0.3l0.2,0.6l0.1,0.5l0.1,0.9c0,0.1,0,0.1,0,0.2c0,0.1,0,0.2,0,0.2c0,0,0,0.2,0,0.4c0,0.2,0,0.3-0.1,0.4
		C20,16.9,20,17.6,20,17.6l-0.2-0.1c0,0,0-0.2-0.1-0.4s-0.3-0.2-0.4-0.2c-0.1,0-0.3,0.1-0.4,0.1c-0.1,0.1-0.2,0.3-0.4,0.3
		c-0.2,0.1-0.5,0.1-0.7,0.2c-0.2,0-0.4,0.2-0.6,0.3C17.1,17.9,16.9,18,16.8,18z"/>
	<path fill-rule="evenodd" fill="#C39D3C" d="M16.8,22.3C16.8,22.3,16.8,22.3,16.8,22.3c1.4-0.6,2.7-1.5,3.7-2.7c0-0.4,0-0.8,0-0.9
		c0-0.3,0-0.6,0-0.8c0-0.2-0.1-0.9-0.2-1.1c-0.1-0.2-0.2-0.3-0.2-0.3c0,0-0.1,0.4-0.1,0.5c0,0.1,0,0.3,0,0.4c0,0,0,0,0-0.1
		c0,0.1,0,0.1-0.1,0.1c0,0,0-0.1,0-0.1c0,0,0,0,0-0.1c0,0,0-0.1,0-0.1c0,0-0.1,0.1-0.1,0.3c0,0.2,0,0.2-0.1,0.2c0,0-0.1,0.1-0.1,0.1
		c0,0.1,0.1,0.1,0.1,0.1c0,0.1-0.1,0.3-0.1,0.4c0,0.1,0,0.3,0,0.4c0,0.1,0,0.2-0.1,0.2c0.1,0,0.1,0,0.1,0s0.1,0.3-0.1,0.5
		c-0.1,0.1-0.1,0.1-0.1,0.2c-0.1,0.1-0.2,0.3-0.2,0.4c0,0,0-0.1,0-0.1c0,0-0.2,0.2-0.3,0.4c-0.1,0.2-0.3,0.2-0.3,0.2
		c0,0-0.1,0.1,0,0.2c0,0-0.1,0-0.2,0.2c0,0.1-0.1,0.2-0.2,0.2c-0.1,0.1-0.2,0.1-0.3,0.1c0,0,0.1,0,0.1,0c0,0.1-0.2,0.1-0.3,0.2
		c-0.1,0.1-0.2,0.2-0.3,0.3c0,0.1-0.1,0.1-0.2,0.1c0,0,0.1,0.1,0.1,0.1c0,0-0.1,0-0.2,0.1C16.9,22.2,16.8,22.3,16.8,22.3z"/>
	<path fill-rule="evenodd" fill="#D2BA6B" d="M14.1,23.2c0.1-0.1,0.2-0.1,0.2-0.1c0.3-0.1,0.6-0.1,0.8-0.2c0.1,0,0.2-0.1,0.4-0.1
		c0,0,0,0.1,0,0.1C15,23,14.5,23.1,14.1,23.2z"/>
	<path fill-rule="evenodd" fill="#C0993A" d="M19.7,15.2c0,0-0.1,0.3-0.2,0.5c-0.1,0.2-0.2,0.5-0.2,0.5c0-0.1,0-0.1,0-0.2
		c-0.1,0.1-0.5,0.3-0.6,0.4c-0.1,0.1-0.2,0.2-0.3,0.3c0.1-0.3,0.2-0.5,0.2-0.6c-0.1,0.1-0.8,0.6-1.1,1L16.4,18
		c-0.1,0.1-0.2,0.1-0.4,0.2c-0.2,0.1-0.4,0.1-0.6,0.2c0-0.1,0.1-0.2,0.2-0.3c0.1-0.1,0.4-0.4,0.4-0.6c0-0.2,0.1-0.3,0-0.4
		c-0.1,0-0.2,0-0.3,0c-0.1,0-0.2,0.1-0.2,0.1s0.1-0.4,0.2-0.7c-0.1,0-0.3,0-0.3,0s0.2-0.4,0.7-0.7c-0.1,0-0.2,0.1-0.4,0.1
		c-0.2,0.1-0.5,0.2-0.7,0.3c0.1-0.2,0.9-1.3,1.3-2.3s0.6-1.3,0.7-1.8c0.1-0.3,0-0.7,0.1-1c0-0.4,0.1-0.7,0-0.9
		c0.1,0.1,0.6,0.6,0.6,1.5c0,0.9-0.4,2.2-0.9,2.9c0.1,0,0.4,0.1,0.7-0.5c0.3-0.5,0.3-0.7,0.4-0.9c0,0.1,0,0.2,0,0.2s0.4-0.5,0.7-1.2
		c0,0.3,0.2,0.6,0,1.1c-0.2,0.5-0.4,0.6-0.4,0.6s0.1,0,0.3-0.1c0,0.1,0,0.2,0.1,0.2c0.1,0,0.1,0.1,0.1,0.1c0.1-0.1,0.1-0.2,0.2-0.2
		c0,0.2,0,0.8,0,1.2c0.1,0,0.3,0,0.4-0.3c-0.1,0.3-0.1,0.4,0,0.6C19.6,15.3,19.7,15.2,19.7,15.2z"/>
	<path fill-rule="evenodd" fill="#A88F33" d="M14.6,4.5c0,0-0.1,0.1-0.4,0.1c-0.2,0-0.2-0.1-0.5-0.1c-0.5,0-2.4,0.3-2.7,0.3
		c-0.2,0,0.7,0.1,0.7,0.1l2.4,0l0.5,0l0.2-0.4L14.6,4.5z"/>
	<path fill-rule="evenodd" fill="#E3C571" d="M8.5,9.1c0,0-0.3,0.2-0.4,0.4C7.9,9.7,7.9,9.8,7.7,10c0,0,0.1,0,0.1,0c0,0,0,0,0,0.1
		c0,0,0.1,0,0.1,0c0,0-0.2,0.1-0.1,0.3C7.9,10.4,8,10.4,8,10.4s0,0.1,0.1,0.1c0.3,0,0.6-0.1,0.8-0.1c0.2,0,0.2,0.1,0.4,0.2
		c0.1,0.2,0.2,0.2,0.2,0.2s0.1-0.2,0.1-0.4c0.1-0.1,0.1-0.3,0.1-0.4L9.5,9.3L9.1,8.7L8.5,9L8.5,9.1z"/>
	<path fill-rule="evenodd" fill="#D8B65B" d="M9,9c0,0,0,0.1,0.2,0.1c0,0,0,0,0,0.1c0,0,0,0.1,0,0.1c0,0,0,0,0.1,0c0,0,0,0.1,0,0.2
		c0,0,0,0.1,0,0.1c0,0,0,0,0,0s0,0.1,0.1,0.2c0,0,0,0,0,0c0,0,0,0,0,0.1c0,0,0,0,0,0c0,0,0,0.3,0.1,0.5c0,0,0,0,0,0c0,0,0,0.1,0,0.2
		c0,0.1,0,0.2,0,0.2c0,0,0.1-0.1,0.1-0.1c0.1,0,0.2-0.1,0.2-0.3c0-0.1,0.1-0.2,0.1-0.3c0,0,0,0.1,0,0.1c0,0,0.1,0,0.1,0l0-0.2
		l0.1-0.5L10.3,9l0.5-0.8l0.9-0.7l0.8,0.2l0.7-0.9L12,6.1L11,6.2l-1,1.4L9.2,8.8L9,9z"/>
	<path fill-rule="evenodd" fill="#D3AE4D" d="M14.8,7c0,0-0.1,0-0.3,0.1c-0.2,0.1-0.3,0.1-0.4,0.3C14,7.6,14,7.7,14,7.7
		s0.1-0.1,0.2-0.1c0.1,0,0.2,0,0.2,0c0,0,0,0,0,0.1c0,0,0.2,0,0.2,0.1c0,0.1,0,0.2-0.1,0.2c0,0-0.1,0.1-0.2,0.1c0,0.1,0,0.1,0,0.2
		c0,0.1-0.1,0.2-0.3,0.5c-0.2,0.2-0.3,0.4-0.3,0.4S13.6,9,13.5,8.8c0,0-0.2,0.1-0.2,0.1l-0.5-1.7l0-0.1c0,0,0-0.1,0.1-0.1
		c-0.1,0-0.1,0-0.2-0.1c-0.1-0.1-0.2-0.2-0.3-0.3c0,0-0.1-0.1-0.2-0.1c-0.1,0-0.2,0-0.2,0s0.1,0,0.1-0.1c-0.1,0-0.1,0-0.3,0
		c-0.2,0-0.2,0-0.3,0c-0.1,0-0.2,0.1-0.2-0.1c0,0-0.1,0-0.2,0.1C11,6.5,11,6.6,10.8,6.7c0,0.1,0,0.1-0.1,0.2c0,0.1-0.1,0.1-0.2,0.3
		c-0.1,0.2-0.1,0.4-0.3,0.7c-0.2,0.2,0-0.6,0-0.6l0.4-0.9l1.1-1l1.6-0.1L13.5,6l0.8,0.3L14.8,7z"/>
	<path fill-rule="evenodd" fill="#CAA13E" d="M15,7.2l-0.7-1l-0.5-0.4c0,0-0.3-0.6-0.4-0.6c0,0-0.3-0.1-0.5-0.1l0,0.1
		c0,0,0.1,0,0.1,0.1c0.1,0.1,0.1,0.3-0.1,0.5c0.1,0,0.1,0,0.2,0C13.1,6,13,6.1,13,6.3C13,6.4,13,6.5,13,6.5s-0.1,0.1-0.1,0.4
		C13,6.8,13,6.7,13.1,6.7c0.1-0.1,0.3-0.2,0.5-0.3c0,0,0,0.1,0,0.1c0,0,0.2-0.2,0.5-0.1c0.1,0,0.1,0.2,0.1,0.2s0.1,0,0.2,0
		c0.1,0.1,0.2,0.3,0.3,0.4c0,0,0.1,0.1,0.2,0.2c0.1,0.2,0.2,0.4,0.3,0.6c0-0.1,0-0.2,0.2-0.2L15,7.2z"/>
	<path fill-rule="evenodd" fill="#F4EFC8" d="M4.7,10c0,0-0.1-0.1,0-0.4c0-0.2,0.1-0.3,0.1-0.7c0-0.3,0.2-0.8,0.2-0.8l0.6-0.3L6.2,8
		l0.1,0.6L5.8,8.9c0,0,0,0.1-0.2,0.2C5.4,9.3,5.2,9.4,5.2,9.5c0,0.1-0.1,0.1-0.1,0.2c0,0-0.2,0-0.3,0.1C4.7,9.9,4.7,9.9,4.7,10z"/>
	<path fill-rule="evenodd" fill="#EBCC73" d="M6,9.9c0,0-0.1,0-0.1,0.1c0-0.1-0.1-0.4-0.1-0.8c0-0.3,0-0.4,0.1-0.5
		c0.1-0.1,0.4-0.2,0.3-0.4C6.1,8.1,5.9,8,5.7,8c-0.2,0-0.3,0.4-0.4,0.5C5.2,8.7,5,8.7,5,8.7C4.9,8.8,5,8.9,5,9c0,0-0.1,0.1-0.1,0.2
		c-0.2,0.3-0.5,0.6-0.5,0.9c0-0.2,0-0.2,0.1-0.4l0,0l0.2-0.6l0.1-0.5l0.3-0.9l0.5-0.9l0.5-0.5l0.5,0l0.1,0.7l0.3,1.4l0.6,0.7l-1,0.6
		L6,9.9z"/>
	<path fill-rule="evenodd" fill="#E5C66B" d="M6.3,10.1c0,0-0.1,0-0.1,0c0,0-0.1,0,0-0.1c0,0,0.1-0.1,0.1-0.1c0,0,0-0.1-0.1-0.1
		c0,0-0.1,0-0.1,0s0,0-0.1,0c0,0,0,0,0.1,0C6,9.9,6,9.9,5.9,9.9c0.1,0,0.1-0.1,0.2-0.1s0.1,0,0.1,0c0,0-0.1-0.1-0.1-0.1
		c0,0,0-0.1,0-0.2c0-0.1,0-0.2,0-0.2c0,0,0.1-0.1,0.1-0.1c0,0,0-0.1,0.1-0.1c0,0,0.1,0,0.1-0.1C6.4,9,6.5,9,6.5,9c0,0,0,0.1,0,0.1
		s0.1-0.1,0.3,0c0.1,0.1,0.4,0.1,0.4,0.1l0.1,0.2L6.6,10L6.3,10.1L6.3,10.1z"/>
	<path fill-rule="evenodd" fill="#E6BD62" d="M7.3,9.2c0,0-0.2,0.1-0.3,0.2c0,0,0.1,0,0.1,0.1c0,0-0.2,0.1-0.2,0.2
		C6.7,9.7,6.7,9.9,6.6,9.9c0,0.1-0.2,0.2-0.3,0.2c0.2,0,0.5-0.2,0.6-0.2c0,0.1,0,0.1,0.1,0.1c0.1,0,0.3,0,0.5-0.1
		c0.3-0.2,0.2-0.3,0.3-0.4C8,9.5,8.1,9.3,8.2,9.3c0.1-0.1,0.2-0.1,0.2-0.1s0-0.1,0-0.1c0,0,0,0,0,0c0,0,0.2-0.1,0.5-0.2c0,0,0,0,0,0
		c0,0,0,0,0,0c0,0,0,0,0,0C9,8.9,9,9,9,9c0,0,0.1-0.2,0.1-0.2l0.2-0.6V7.8l-0.2,0L8,8.3L7.3,9L7.3,9.2z"/>
	<path fill-rule="evenodd" fill="#B6933F" d="M10.6,6.6c0.1,0,0.1,0,0.2-0.1c0,0.1,0,0.1-0.1,0.3C10.5,7,10.5,7,10.4,7.2
		c-0.1,0.2-0.1,0.4-0.2,0.5c0,0,0.1,0,0.1,0c0,0-0.1,0.1-0.1,0.1c0,0.1-0.1,0.2-0.2,0.3C9.9,8.2,9.7,8.2,9.5,8.4
		C9.3,8.7,9.1,8.9,9,9c0.1-0.1,0.1-0.3,0.1-0.4c0-0.1,0-0.3,0-0.4c0-0.2,0-0.3,0.2-0.6c0.2-0.3,0.4-1.2,0.4-1.2l0.6-0.2L10.6,6.6z"
		/>
	<path fill-rule="evenodd" fill="#C49937" d="M10.2,6.3c0,0-0.2,0.3-0.2,0.5c0,0.2,0,0.2,0,0.3c0,0.1,0,0.1,0,0.2
		C10,7.2,10,7.1,10.1,7.1c0.2-0.1,0.3-0.2,0.4-0.3c0.1-0.1,0.1-0.2,0.3-0.4c-0.1,0-0.2,0-0.2,0c0.1-0.1,0.3-0.2,0.5-0.4
		c0.2-0.2,0.2-0.2,0.6-0.4c-0.1,0-0.2,0-0.3,0c0-0.1,0.2-0.1,0.3-0.3c0.1-0.1-0.1-0.3-0.1-0.3l-1,0.6L10.2,6.3z"/>
	<path fill-rule="evenodd" fill="#DFC068" d="M7.4,5.8l0-0.2l0.3-0.5L8,4.3V3.2l0-0.7L8,2.1l0-0.1l0-0.1l0.2,0.1l0.3,0.5l0,0.9
		L8.4,4.9l-1,1L7.4,5.8z"/>
	<path fill-rule="evenodd" fill="#A88F33" d="M8.1,1.9c0,0-0.2,0-0.2,0.6c0,0.6-0.1,1-0.1,1.3c0,0.3-0.1,0.5-0.1,0.7
		c0,0.2,0,0.4-0.1,0.6c0,0.1-0.1,0.3-0.3,0.5C7.1,5.8,6.8,5.9,6.7,5.9C6.7,5.9,6.2,6,6,6.1C6,6.1,5.9,6.1,5.8,6.3
		C5.5,6.5,5.2,6.9,5,7.3C4.6,8,4.3,9.9,4.3,9.9l0.1-0.1c0,0,0-0.2,0.2-0.5C4.7,9,4.7,8.7,4.9,8.1C5,7.9,5.1,7.6,5.3,7.3
		C5.5,6.9,5.7,6.6,6,6.4C6.5,6.1,6.9,6,6.9,6l0.5-0.3c0,0,0.1-0.2,0.2-0.4C7.8,5,8.1,4.7,8.1,4.2C8.2,3.6,8,3.1,8,2.7
		C8,2.3,8,2,8.1,1.9C8.2,1.9,8.1,1.9,8.1,1.9z"/>
	<path fill-rule="evenodd" fill="#C99E3D" d="M8.1,4.9c0,0,0.2-0.6,0.3-1.1c0-0.1,0.1-0.2,0.1-0.3c0-0.5,0.1-0.7,0-0.9
		c0-0.2-0.2-0.4-0.3-0.5C8.1,2,8.1,2,8.1,1.9c0,0,0.1-0.1,0.2-0.1c0.2,0,0.3,0.1,0.4,0.2c0.2,0.2,0.3,0.8,0.3,0.8l0.1,0.8l0.3,1
		L8.1,4.9z"/>
	<path fill-rule="evenodd" fill="#B58634" d="M10.3,4.4c0,0,0,0-0.1,0c0,0.1,0,0.1-0.1,0.2c-0.1,0-0.8,0-0.8,0S8.9,4.5,8.8,4
		c-0.1-0.3,0.1-0.7,0-1C8.7,2.6,8.6,2.5,8.6,2.4c0-0.1,0-0.2,0-0.2c0,0-0.1,0-0.1,0c0,0,0-0.1,0-0.1c0,0,0.2,0,0.4,0.2
		C9,2.3,9,2.4,9,2.4c0,0,0.3,0.2,0.4,0.4C9.5,3,9.7,3.7,9.7,3.8c0,0,0,0.1,0.1,0.2C9.9,4.1,10.1,4.3,10.3,4.4z"/>
	<path fill-rule="evenodd" fill="#A88F33" d="M9,2.4C9.2,2.6,9.3,2.8,9.4,3c0.1,0.3,0.2,0.5,0.3,0.6C9.6,3.4,9.5,3,9.4,2.8
		C9.3,2.6,9.1,2.5,9,2.4z"/>
	<path fill-rule="evenodd" fill="#E6C367" d="M7.7,5.6c0,0-0.2,0-0.6,0.2C7,5.9,6.9,5.9,6.8,6C6.5,6.1,6.2,6.2,6,6.3c0,0,0,0,0,0
		s0,0.1,0.1,0.2c0,0-0.4,0.3-0.3,1.2c0.1,0,0.2-0.1,0.2-0.1c0,0,0,0.1,0.1,0.1c0,0,0.1,0,0.2-0.2c0,0.1-0.1,0.6,0.2,0.9
		c0.1-0.1,0.2-0.3,0.2-0.3l0-0.1c0,0,0-0.3,0.1-0.5C6.9,7.4,7,7.2,7,7.2L7.8,6L7.7,5.6z"/>
	<path fill-rule="evenodd" fill="#DCBA5A" d="M6.9,7.3c0,0-0.1,0-0.1,0.1c0,0,0-0.2,0.1-0.4C7,6.8,7.3,6.6,7.4,6.4
		c0.1-0.1,0-0.5,0.5-0.9c0.5-0.4,0.6-0.6,0.6-0.6l0.8-0.4l0.9,0.4L9.8,6.7L9.4,7.6L8,7.3L6.9,7.3z"/>
	<path fill-rule="evenodd" fill="#E9CE77" d="M7.5,6.8l0.2-0.2V6.5c0,0,0.2-0.1,0.4-0.3C8.3,6,8.6,5.6,8.8,5.6
		c0.3,0,0.3,0.6,0.3,0.7c0,0.1,0,0.5,0.1,0.7c0.1,0.2-0.6,0.9-0.6,0.9L8.1,8.2L7.5,6.8z"/>
	<path fill-rule="evenodd" fill="#CDAE50" d="M8,8.7c0,0,0.1-0.2,0-0.3c0.1-0.1,0.2-0.3,0.2-0.3s0.1-0.2,0.3-0.4
		C8.9,7.4,9,7.3,9.1,7.1c0-0.1,0-0.2,0-0.3c0,0,0.1,0,0.1,0.1c0,0,0.2,0.2,0.2,0.5c0,0.3-0.2,0.5-0.2,0.5S9.1,7.9,9.1,8
		C9,8.1,8.9,8.1,8.8,8.1c0,0,0,0,0.1,0c0,0-0.2,0-0.2,0.1C8.5,8.2,8.3,8.5,8.2,8.6C8.1,8.6,8,8.7,8,8.7z"/>
	<path fill-rule="evenodd" fill="#D2A83E" d="M14.5,4.9c-0.2-0.1-0.5-0.1-0.7-0.1c-0.4,0-1,0-1.6,0c-0.6,0-1.2-0.2-2-0.3
		c-0.1-0.1-0.5-0.4-1.5,0.3c0.1,0,0.8-0.2,1,0.1c0.2,0.3,0.2,0.8,0.1,0.9C9.8,6.2,9.6,6.6,9.5,6.8C9.4,7.1,9.4,7.2,9.4,7.4
		C9.3,7.6,9.2,7.7,9.3,7.9c0.1-0.1,0.2-0.1,0.3-0.4c0.2-0.4,0.1-0.6,0.4-1c0.3-0.3,0.7-0.8,0.9-0.9c0.2-0.1,1.6-0.8,3-0.1
		C14.2,5.5,14.5,4.9,14.5,4.9z"/>
	<path fill-rule="evenodd" fill="#C29637" d="M9.3,4.6C9.3,4.6,9.3,4.6,9.3,4.6c0-0.1,0-0.1-0.1-0.1c0,0-0.3-0.1-0.5,0
		C8.4,4.5,8.1,4.9,8,5.1C7.9,5.3,7.7,5.6,7.5,5.7c0,0,0,0,0,0c0,0,0,0,0,0c0,0,0,0,0,0l0,0c0,0,0.3-0.1,0.6-0.5C8.6,5,8.9,4.8,9,4.7
		C9.1,4.7,9.2,4.7,9.3,4.6z"/>
	<path fill-rule="evenodd" fill="#AC8132" d="M15.9,3.2c0,0-0.1,0.1-0.1,0.2c-0.2,0.2-0.4,0.4-0.6,0.6c-0.2,0.2-0.4,0.4-0.6,0.6
		c-0.2,0.3-0.5,0.6-0.6,0.6c-0.1,0.1-0.1,0.2-0.1,0.3c0,0-0.1,0-0.1,0c0,0,0,0.1,0.1,0.1c0,0.1,0.1,0.2,0.2,0.2
		c0,0.1,0.1,0.1,0.1,0.2c0,0,0.2,0,0.4-0.3c0.2-0.3,0.4-0.6,0.4-0.6l0.4-0.6L15.6,4l0.3-0.5L15.9,3.2z"/>
	<path fill-rule="evenodd" fill="#A88F33" d="M16.3,2.8c0,0-0.2,0.2-0.3,0.3c-0.1,0.1-0.3,0.4-0.3,0.4l0.1,0l0.4-0.3L16.3,2.8
		L16.3,2.8z"/>
	<path fill-rule="evenodd" fill="#A67A2E" d="M16.2,18.2c0,0,0-0.2,0.1-0.3c0.1-0.1,0.3-0.2,0.5-0.8c0.2-0.5,0.3-0.6,0.3-0.6
		s-0.4,0.3-0.7,0.4c0.1-0.1,0.1-0.2,0.1-0.3c0,0-0.2-0.1-0.2-0.1c0.1-0.1,0.1-0.3,0.3-0.4c0.2-0.2,0.6-0.4,0.9-0.7
		c0.3-0.2,0.9-0.8,0.9-0.9c0,0.1,0.1,0.1,0.1,0.1s-0.3,0.4-0.4,0.6C18,15.6,18,15.7,18,15.7l0.3-0.1c0,0,0.1,0.3-0.3,0.7
		c0.2-0.1,0.2,0,0.3-0.1c-0.1,0.1-0.3,0.2-0.5,0.6c-0.2,0.3-0.4,0.7-0.8,1C16.5,18,16.2,18.2,16.2,18.2z"/>
	<path fill-rule="evenodd" fill="#8C6228" d="M15.2,5.1c0,0-0.2,0.3-0.2,0.6c0,0.1,0,0.1,0,0.2c0,0.2,0,0.5,0,0.6c0-0.1,0-0.1,0-0.1
		c0,0.1-0.1,0.3-0.1,0.4c0-0.1-0.1-0.3-0.1-0.5c0-0.3,0-0.3,0-0.4c0,0.1-0.1,0.2-0.1,0.2c0-0.1-0.1-0.1-0.1-0.2c0,0-0.1,0.1-0.1,0.1
		c0,0,0-0.1,0-0.2c0-0.1,0-0.2,0-0.3c0-0.1,0.1-0.3,0.3-0.4c0.2-0.2,0.4-0.7,0.5-0.8c0.1-0.1,0.3-0.7,0.3-0.7h0.2l-0.3,0.7
		c0,0-0.2,0.4-0.3,0.5c-0.1,0.1-0.3,0.5-0.4,0.7c0.1-0.1,0.1-0.1,0.2-0.2C15,5.3,15.2,5.1,15.2,5.1z"/>
	<path fill-rule="evenodd" fill="#CBA94C" d="M16.3,2.8c0,0.1-0.1,0.2-0.2,0.3c-0.1,0.1-0.4,0.3-0.5,0.5c-0.1,0.1-0.3,0.6-0.2,1
		c0-0.1,0.1-0.3,0.3-0.5c0.2-0.2,0.4-0.5,0.5-0.7s0.1-0.4,0.1-0.4l0,0L16.3,2.8L16.3,2.8z"/>
	<path fill-rule="evenodd" fill="#A88F33" d="M20.2,15.6c0,0-0.1-0.2-0.1-0.4c0-0.2,0-0.2,0-0.4c0-0.1-0.1-0.1-0.1-0.1
		c0,0,0-0.2,0-0.3s0-0.3,0-0.3c0,0-0.1,0-0.1-0.2c0-0.1-0.1-0.2-0.1-0.3c0,0-0.1-0.1-0.1-0.1c0-0.1,0.1-0.1,0.1-0.2
		c0-0.1-0.1,0-0.1,0c0,0,0-0.2,0-0.2c0,0-0.1,0.1-0.1,0c0,0,0-0.3-0.1-0.4c0-0.2-0.1-0.3-0.1-0.3c0,0-0.3-0.8-0.3-1
		C19,11.3,19,11.1,19,11c0-0.1,0-0.3,0-0.3c0,0,0,0.1,0,0.1c0,0-0.1-0.3-0.1-0.4c0-0.1-0.1-0.2-0.1-0.4c0-0.1-0.1-0.5-0.1-0.7
		c0-0.2,0-0.3,0-0.4c0-0.1,0-0.3,0-0.4c0-0.2-0.1-0.5-0.2-0.7c-0.1-0.3-0.5-1.2-0.5-1.4c0-0.1,0.1,0,0.1,0s0.2,0.4,0.3,0.8
		c0.1,0.3,0.2,0.6,0.3,0.6c0,0,0.2,0.3,0.3,0.9c0.1,0.5,0.1,1,0.2,1.3c0,0.2,0,0.3,0.1,0.5c0.1,0.2,0.1,0.4,0.2,0.6
		c0.1,0.2,0.2,0.4,0.2,0.6c0,0.2,0,0.4,0.1,0.5c0,0.1,0.1,0.3,0.1,0.5c0.1,0.3,0.2,0.6,0.3,0.8c0.2,0.4,0.2,0.8,0.3,1
		C20.2,14.8,20.3,15.4,20.2,15.6z"/>
	<path fill-rule="evenodd" fill="#BE9C44" d="M16.3,2.7L16.3,2.7C16.3,2.8,16.3,2.8,16.3,2.7c0,0.1,0,0.2,0,0.2c0,0.1,0,0.1,0,0.2
		c0,0.1,0,0.2-0.1,0.5c0,0.1-0.1,0.1-0.1,0.2C16,3.9,16,3.9,16,3.9c0.1,0,0.3-0.2,0.4-0.2c-0.1,0.1-0.2,0.1-0.3,0.3c0,0,0.1,0,0.2,0
		c0.2,0,0.5-0.1,0.7-0.1c0.2,0,0.1-0.3,0.1-0.3l-0.3-0.6L16.3,2.7L16.3,2.7z"/>
	<path fill-rule="evenodd" fill="#A17C34" d="M17.6,7.1c0,0-0.2-0.2-0.3-1c-0.1-0.8-0.1-1.9-0.1-1.9l-0.2-0.4c0,0,0-0.3-0.1-0.4
		c-0.1-0.1-0.3-0.3-0.4-0.4c-0.1-0.1-0.2-0.2-0.2-0.2c0-0.1,0.2-0.3,0.7-0.3c0.5,0,0.7,0.3,0.7,0.4c0.1,0.1,0.3,0.5,0.4,1.4
		c0.1,0.8,0.1,0.9,0.1,1.2c0,0.2-0.1,0.5-0.2,0.9C17.9,6.6,17.8,7,17.6,7.1z"/>
	<path fill-rule="evenodd" fill="#8C6228" d="M16.9,7.8c0.1,0,0.2,0,0.2-0.1c0.1,0,0.3,0,0.5-0.2c0,0.1,0,0.2,0,0.4
		c0-0.1,0.1-0.1,0.1-0.1c0,0.1,0.1,0.3-0.2,0.8c0.1-0.1,0.2-0.1,0.2-0.1c0,0.1,0.1,0.4-0.1,0.6c-0.1,0.1-0.2,0.1-0.2,0.1
		c0,0,0-0.1,0-0.1c0-0.1,0-0.1,0-0.1c-0.1,0-0.1-0.1-0.2-0.1c-0.2-0.2-0.4-0.4-0.4-0.6C16.8,8,17,8,17,8c0,0,0,0,0-0.1
		C17,7.9,17,7.8,16.9,7.8z"/>
	<path fill-rule="evenodd" fill="#92723A" d="M15.4,5.4C15.4,5.4,15.4,5.3,15.4,5.4c-0.1,0,0-0.1,0-0.1c0-0.1,0.1-0.1,0.1-0.1
		c0,0.1,0,0.1,0,0.1s0.1-0.1,0.2-0.2c0.1-0.1,0.2-0.1,0.2-0.1c0-0.1,0-0.1,0-0.1c0,0,0.1-0.1,0.2-0.2c0,0,0.1-0.1,0.1-0.1
		c0,0,0.1,0,0.2-0.1c0.1-0.1,0.2-0.1,0.3-0.2c0.1-0.1,0.3-0.1,0.3-0.1c0,0,0.1-0.2,0.1-0.3c0.1,0,0.4,0.3,0.6,0.8
		c0.1,0.4-0.1,0.9-0.1,1.2c-0.1,0.3-0.1,0.5-0.2,0.6c-0.1,0.2-0.5,0.4-0.6,0.5c-0.1,0.1-0.3,0.3-0.3,0.5c0,0.1,0.2,0.2,0.2,0.2
		c0,0,0,0.1,0.1,0c0.1,0,0.1,0,0.1,0c0,0,0,0,0,0s0,0,0,0c0,0,0,0.2-0.4,0.2c0,0-0.1,0-0.1,0c0.1,0,0.1,0,0.1-0.1
		c-0.1,0-0.2,0-0.3,0c0,0,0.1-0.1,0.1-0.1c0,0,0,0,0,0c-0.1,0-0.1,0.1-0.1,0.1c0,0-0.1,0.1-0.2,0.2c0-0.1,0-0.2,0.1-0.3
		c0,0-0.1,0.1-0.1,0.1c0-0.1,0-0.1,0-0.2C16,7.2,16.1,7,16.1,7l0.6-1.1l0.1-0.8L15.4,5.4z"/>
	<path fill-rule="evenodd" fill="#B18E3E" d="M15.4,5.4C15.4,5.4,15.4,5.4,15.4,5.4c0,0.1,0,0.1,0,0.2c0,0-0.1,0.1-0.1,0.1
		c0,0.1-0.1,0.1-0.1,0.1c0,0,0,0.2-0.1,0.3c0,0-0.1,0.1-0.1,0.2C15,6.4,15,6.5,15,6.5c0,0.1,0,0.3,0,0.3s0-0.1,0.1-0.1
		c0,0-0.1,0.1-0.1,0.1c0,0,0.1-0.1,0.2-0.2c0.2-0.1,0.4-0.4,0.7-0.5c-0.1,0-0.2,0-0.2,0c0.1,0,0.5-0.6,0.7-0.6c0,0,0,0,0-0.1l-0.2,0
		l-0.4,0.1l-0.1-0.3L15.4,5.4z"/>
	<path fill-rule="evenodd" fill="#543E26" d="M16,7.2c0,0-0.1,0.1-0.1,0.2c0,0-0.1-0.1-0.1-0.1c-0.1-0.1-0.2-0.3-0.4-0.2
		c0-0.1,0-0.1,0-0.2c0,0,0.2-0.1,0.3-0.3c0.1-0.1,0.2-0.2,0.2-0.4c0,0,0.1-0.1,0.2-0.1c0.1-0.1,0.3-0.2,0.3-0.3
		c-0.1,0-0.2,0.1-0.4,0.1c0.1,0,0.2-0.1,0.2-0.2c0,0,0.1,0,0.1,0c0,0,0,0-0.1,0c0,0,0,0,0,0s0,0,0,0c0,0-0.1,0-0.1,0
		s-0.1,0.1-0.2,0.1c0,0,0-0.1,0-0.1s-0.1,0-0.2,0c-0.1,0-0.3,0.1-0.4,0.2c0,0,0,0,0,0c0,0,0,0,0,0s0,0,0-0.1c0-0.1,0.1-0.2,0.2-0.3
		c0.1-0.1,0.1-0.2,0.1-0.2l0.3-0.1l0.8-0.2l0.5,0l-0.1,0.4L16.9,6l-0.3,0.6l-0.3,0.4L16,7.2z"/>
	<path fill-rule="evenodd" fill="#806031" d="M17.4,5.5c0,0-0.3,0.4-0.4,0.5c0.1-0.1,0.4-0.9,0.5-1.1c0,0-0.1,0,0-0.4
		c-0.1,0.2-0.1,0.3-0.2,0.3c-0.1,0.1-0.1,0-0.1,0c0,0,0,0,0-0.1c0,0-0.3,0-0.5,0S16.3,4.9,16,5c-0.2,0.1-0.3,0.1-0.3,0.1
		c-0.1,0-0.1,0.1-0.1,0.1c0,0-0.1,0.1-0.2,0.1c0,0-0.1,0.1-0.1,0.1c0,0,0,0,0,0c0,0,0.1,0,0.2-0.1c0.1-0.1,0.2-0.1,0.3-0.2
		C16.2,5,16.3,5.1,16.4,5C16.5,5,16.7,5,16.8,5c0.1,0,0.4,0,0.4,0c0,0,0,0,0,0.1c0,0,0,0,0,0.1C17.1,5.4,17,5.6,17,5.8
		c-0.1,0.2-0.2,0.3-0.2,0.4c0,0.1-0.2,0.3-0.3,0.5c-0.1,0.1-0.2,0.2-0.2,0.2c0,0-0.3,0.2-0.2,0.3c0,0,0.3-0.1,0.5-0.3
		c0.2-0.2,0.2-0.4,0.4-0.5c0.2-0.1,0.3-0.3,0.3-0.5C17.3,5.7,17.3,5.7,17.4,5.5z"/>
	<path fill-rule="evenodd" fill="#B6903C" d="M10.4,8.5c0,0,0,0.2-0.1,0.3C10.1,8.9,10,9,9.9,9.1c0,0.1,0.2,0.2,0.2,0.2
		S10,9.5,10,9.6c0,0.1,0,0.2,0,0.3c0,0,0,0,0,0c0,0,0,0.1,0.1,0.2s0.2,0.1,0.2,0.1c0,0,0,0,0,0.1c0,0,0.1-0.2,0.1-0.3
		c0.1-0.2,0.1-0.1,0.1-0.4c0-0.2,0.2-0.6,0.2-0.6l0.1-0.3l-0.2-0.2L10.4,8.5z"/>
	<path fill-rule="evenodd" fill="#685026" d="M10.8,8.9c0,0.1-0.1,0.1-0.1,0.2c-0.1,0.1-0.1,0.2-0.2,0.2c-0.1,0-0.2,0-0.1,0.1
		c0,0.1,0.1,0.1,0.1,0.2c0.1,0,0.1,0.1,0.1,0.2c0,0,0.1,0,0.1-0.1c0-0.1,0.4-0.7,0.4-0.7H10.8z"/>
	<path fill-rule="evenodd" fill="#D4B968" d="M12.1,7.4c0,0,0-0.1,0-0.1c0-0.1-0.2-0.1-0.3-0.1C11.8,7,11.6,7,11.5,7
		c0,0,0.1-0.1,0-0.1c0,0-0.2,0.1-0.2,0.1c0,0-0.1,0.1-0.2,0.1c0,0-0.1,0.1-0.1,0c0,0,0,0-0.1,0s-0.2,0.1-0.2,0.2
		c0,0.1-0.1,0.2-0.3,0.4c-0.2,0.2-0.3,0.3-0.2,0.4c0.1,0.1,0.1,0,0.1,0.1c0,0.1,0,0.1,0,0.2c0,0.1-0.1,0.2,0,0.2c0.1,0,0.3,0,0.3,0
		c0.1,0.1,0,0.2,0.1,0.3c0.1,0,0.3,0,0.3,0l0.5-0.3L12,8.3l0.3-0.5L12.1,7.4L12.1,7.4z"/>
	<path fill-rule="evenodd" fill="#CCA849" d="M11.7,8.6c0,0-0.1-0.1,0-0.2c0.1-0.1,0.3-0.2,0.3-0.2c0,0,0,0,0,0
		C12,8,12,7.9,12.1,7.9c0,0-0.1-0.1-0.1-0.1c-0.1,0-0.2,0.1-0.2,0.1s-0.1,0-0.1,0s0.1,0,0.1-0.1c0-0.1,0-0.1,0-0.1s0.3-0.1,0.3-0.2
		c0-0.1,0-0.1,0.1-0.2c0,0,0.2-0.1,0.3-0.1c0.1,0,0,0.2,0,0.2s0.2-0.2,0.4-0.3c0.1,0,0.2-0.1,0.2-0.1c0.1,0,0.2,0.1,0.3,0.4
		c0,0.2,0,0.3,0,0.5c0,0.2,0,0.5,0,0.7c0,0.1,0.1,0.1,0.1,0.1c0,0,0,0.1-0.1,0.1c-0.1,0.1-0.1,0.2-0.1,0.2c0,0,0,0.1,0,0.1
		c0,0-0.1,0.1-0.1,0.1c0,0-0.1,0.1-0.1,0.1s0,0-0.1,0c-0.1,0-0.1,0-0.1,0c0,0-0.1,0-0.1-0.2c0-0.1-0.5-0.4-0.5-0.4L11.7,8.6
		L11.7,8.6z"/>
	<path fill-rule="evenodd" fill="#585136" d="M10.7,9.8c0,0,0.2,0.2,0.9,0.2c0.3,0,0.5,0,0.5-0.1c0.1,0,0.4-0.1,0.7-0.5
		C13.1,9.2,13,9.1,13,9.1l-0.2,0l-0.5,0.1l-1.5,0.6L10.7,9.8z"/>
	<path fill-rule="evenodd" fill="#252211" d="M11.3,9.9c0,0-0.6,0.1-0.6-0.3c0-0.4,0.4-0.8,0.5-0.9c0.1-0.1,0.3-0.2,0.3-0.2H12
		l0.1,0.3l-0.1,0.6L11.3,9.9z"/>
	<path fill-rule="evenodd" fill="#C3B378" d="M11.9,8.7c0,0-0.1-0.1-0.4,0c-0.3,0.2-0.5,0.5-0.5,0.7c0,0.2,0.2,0.4,0.6,0.4
		c0.3,0,0.4,0,0.5,0c0,0-0.1-0.1-0.1-0.1L11.9,8.7z"/>
	<path fill-rule="evenodd" fill="#E6D89C" d="M11.7,8.8c0,0,0,0-0.1,0c-0.1,0-0.2,0.1-0.3,0.2c-0.1,0-0.1,0.1-0.1,0.1
		c-0.1,0.1-0.2,0.4-0.2,0.5c0.1,0.1,0.2,0.3,0.7,0.2L11.7,8.8L11.7,8.8z"/>
	<path fill-rule="evenodd" fill="#252211" d="M11.6,9c0,0-0.1,0.1-0.1,0.3c0,0.2,0.1,0.5,0.5,0.5c0.3,0,0.5-0.4,0.8-0.6
		C12.9,9.1,13,9.1,13,9.1s-0.2-0.2-0.6-0.4c-0.5-0.3-1-0.3-1.3,0.1c0.1,0,0.6-0.1,0.6-0.1l0.2,0.1L11.6,9z"/>
	<path fill-rule="evenodd" fill="#6F674D" d="M12.2,9.2C12.2,9.2,12.2,9.2,12.2,9.2c0.1-0.1,0.1-0.1,0.1,0c0,0,0,0.1,0,0.1
		C12.3,9.3,12.2,9.3,12.2,9.2z M12.1,9C12.1,9,12.1,9,12.1,9C12.1,8.9,12.1,8.9,12.1,9c0.1-0.1,0.1,0,0.1,0C12.2,9,12.1,9,12.1,9
		C12.1,9,12.1,9,12.1,9C12.1,9,12.1,9,12.1,9z"/>
	<path fill-rule="evenodd" fill="#AC924C" d="M6.8,9.1c0,0,0.2,0.1,0.3,0.1c0.2,0,0.4-0.2,0.5-0.3c0.1-0.1,0.1-0.1,0.2-0.2
		c0-0.1,0.1-0.1,0.1-0.1C8,8.6,8,8.5,8,8.5c0,0-0.1,0.1-0.2,0.1c-0.1,0-0.2,0.1-0.3,0.1C7.6,8.8,7,9,7,9L6.8,9.1z"/>
	<path fill-rule="evenodd" fill="#9F8E57" d="M7.1,7.7c0,0,0.1-0.1,0.2-0.1c0.2,0,0.5-0.1,0.5-0.1l0.3,0.1L8.2,8L8,8.4L7.7,8.6
		L7.5,8.1L7.1,7.7z"/>
	<path fill-rule="evenodd" fill="#EAC970" d="M6.7,8L6.7,8c-0.1,0.1-0.1,0,0-0.1c0-0.1,0.1-0.4,0.3-0.6c0.1-0.2,0.1-0.2,0.1-0.2
		c0,0-0.1,0-0.1,0c0,0,0.1-0.2,0.3-0.3c0.1-0.1,0.2-0.1,0.3,0c0.1,0.1,0.2,0.1,0.3,0.1C7.9,6.9,8,6.8,8,6.8S8,6.9,8,7
		C7.9,7.2,7.6,7.4,7.6,7.4L7,7.9L6.7,8z"/>
	<path fill-rule="evenodd" fill="#D7BC6B" d="M7.2,7.6c0,0,0.4,0.1,0.6-0.1c0,0,0,0,0,0c0,0,0,0,0,0c0,0,0,0,0,0c0,0,0,0,0.1,0
		c0,0,0,0,0,0c0,0,0,0,0,0c0,0,0,0,0,0s0,0.1,0,0.1c0,0,0,0-0.1,0c0,0,0,0.1,0,0.1C7.9,7.9,7.9,8,8.1,8c0,0,0.1,0.1-0.2,0.4
		c0,0-0.1,0.1-0.1,0.1c0,0,0,0.1,0,0.1c0,0,0.4-0.2,0.5-0.5c0.1-0.4,0.1-0.7,0.1-1.1c0-0.1,0-0.2,0-0.2C8.3,6.8,8.1,6.8,8,6.9
		C7.9,7,7.8,7.2,7.6,7.4C7.3,7.5,7.3,7.5,7.2,7.6z"/>
	<path fill-rule="evenodd" fill="#585136" d="M6.6,8.1c0,0-0.1,0.1-0.1,0.2c0,0.2,0,0.4,0.1,0.5c0,0.1,0.2,0.3,0.4,0.3
		c0.1,0,0.1,0,0.2,0C7.2,9.1,7.3,9,7.4,9c0.1-0.1,0.2-0.1,0.2-0.1c0,0-0.6-0.5-0.6-0.5L6.6,8.1L6.6,8.1z"/>
	<path fill-rule="evenodd" fill="#453A25" d="M7.2,8.9c0,0,0.1,0,0.2-0.1C7.4,8.8,7,8.4,7,8.4l0,0.5L7.2,8.9z"/>
	<path fill-rule="evenodd" fill="#84754B" d="M6.7,8.1c0,0-0.1,0.1-0.1,0.1c0,0.1,0,0.4,0,0.5C6.7,8.8,6.8,9,7,9
		c0.1,0,0.2-0.1,0.2-0.1c0,0-0.1,0-0.2-0.1c0,0,0-0.1,0-0.2c0-0.1,0-0.1,0-0.2c0.1-0.1,0.1-0.2,0.1-0.2l0.2-0.3H7L6.7,8.1L6.7,8.1z"
		/>
	<path fill-rule="evenodd" fill="#252211" d="M6.6,8.2c0,0,0.2-0.3,0.4-0.3c0.2-0.1,0.2,0,0.2,0L7.1,8.1L7,8.3l0,0.1
		c0,0,0,0.2,0.1,0.4c0.1,0.1,0.2,0.1,0.3,0.1c0.1,0,0.2-0.1,0.3-0.3c0.1-0.2,0.2-0.5,0-0.7C7.6,7.6,7.3,7.6,7.2,7.6S6.8,7.7,6.6,8.2
		z"/>
	<path fill-rule="evenodd" fill="#F7F7E7" d="M11.5,9.1c-0.1,0,0-0.2,0.1-0.3c0.1-0.1,0.2-0.1,0.3-0.1c0.1,0,0.1,0,0.1,0.1
		c0,0.1-0.1,0.2-0.2,0.2C11.7,9.1,11.6,9.1,11.5,9.1z"/>
	<path fill-rule="evenodd" fill="#F8F6DE" d="M7.7,8c0.1,0,0.1,0,0.1,0.1c0,0.1,0,0.2-0.1,0.2c-0.1,0-0.1-0.1-0.1-0.1c0,0,0,0,0-0.1
		C7.6,8.1,7.6,8,7.7,8z"/>
	<path fill-rule="evenodd" fill="#D4C38B" d="M6.9,8c0,0-0.1,0.1-0.2,0.2c0,0.1-0.1,0.2,0,0.3c0,0.1,0.1,0.2,0.1,0.2
		c0,0,0.1,0.1,0.1,0.1c0,0,0.1-0.1,0.1-0.1C7,8.6,7,8.4,7,8.3C7.1,8.1,6.9,8,6.9,8z"/>
	<path fill-rule="evenodd" fill="#E2D59D" d="M6.9,8C6.9,8,6.9,8,6.9,8c0,0.1,0,0.1,0.1,0.2c0,0.1,0,0.1,0,0.1c0,0,0.1,0,0.1,0
		c0-0.1,0.1-0.1,0.1-0.1c0,0,0.1,0,0.1,0c0,0,0.1,0,0.1-0.1C7.4,8.1,7.3,8,7.3,8c0,0,0-0.1,0-0.1c0,0-0.2,0-0.2,0.1
		C7,7.9,6.9,8,6.9,8z"/>
	<path fill-rule="evenodd" fill="#CBAC5A" d="M10,12.1l0.3-0.1l0.1,0.1c0,0,0.1,0.1,0.1,0.1c0,0.1-0.1,0.1-0.1,0.2c0,0,0,0.1,0,0.1
		s-0.3,0.4,0.2,0.9c-0.1,0.1-0.3,0.1-0.4,0.2c0.1,0,0.2,0,0.2,0.1c0.1,0,0.1,0.1,0.1,0.1c0.1,0,0.1,0.1,0.1,0.1c0,0-0.1-0.1-0.2,0
		c0,0.1-0.5,0-0.5,0l-0.8,0.2c0,0,0-0.1-0.1-0.2c-0.1-0.1-0.2,0-0.3-0.1c-0.2-0.1-0.2-0.3-0.2-0.3c0.1,0,0.2-0.1,0.4-0.1
		c0,0,0-0.1,0-0.1c0-0.1,0.1-0.1,0.1-0.2c0,0,0.1,0,0.2-0.1c0.1-0.1,0.2-0.2,0.2-0.2c0.1,0,0.1,0,0.3-0.1c0.1-0.1,0.1-0.2,0.1-0.2
		S10,12.2,10,12.1z"/>
	<path fill-rule="evenodd" fill="#D6BC6F" d="M9.2,12.1c0,0,0,0,0.1,0c0.1,0,0.8-0.1,0.9-0.1c0.2,0,0.8,0,1.1,0.1
		c0.3,0.1,0.6,0.1,0.8,0.2c0.2,0,0.2,0.1,0.2,0.1c0,0,0,0-0.1,0c0,0-0.5-0.2-0.7-0.2c-0.2,0-0.7-0.1-1-0.1c-0.3,0-0.4,0-0.6,0
		C9.8,12.1,9.4,12.2,9.2,12.1C9.1,12.2,9.2,12.2,9.2,12.1z"/>
	<path fill-rule="evenodd" fill="#DFC677" d="M10.7,13.7c0,0,0.4,0.2,0.5,0.5c0.1,0.2-0.1,0.3-0.1,0.3s0.2,0,0.2,0.1
		c0,0.1-0.4,0.3-0.6,0.4c-0.3,0.1-0.2,0.1-0.4,0.1c-0.1,0-0.4,0-0.5,0.1c-0.1,0.1,0,0.2,0,0.2c0,0,0.2,0,0.2,0s0,0.1-0.4,0.1
		c-0.3,0-0.4,0-0.4,0.1c0,0,0.1,0,0.2,0c0.2,0,0.4,0,0.4,0s-0.1,0.1-0.2,0.1c-0.2,0.1-0.5,0.1-0.6,0.2c0,0,0.1,0.1,0.2,0.1
		C9,16,8.9,16,8.9,16.1c0,0,0.1,0,0.1,0s-0.2,0.2-0.3,0.2c-0.1,0-0.6,0.3-0.8,0.3c-0.5-0.1-0.5-0.6-0.6-0.7c-0.2-0.1-0.3,0.1-0.4,0
		c0.1-0.1,0.1-0.1,0.2-0.1c-0.1,0-0.5-0.3-0.5-0.3c0-0.1-0.1-0.2-0.1-0.3c-0.1-0.1-0.2-0.3-0.3-0.5c-0.2-0.3-0.2-0.5-0.4-0.7
		c0,0,0.1,0,0.1,0l1.4,0.5l2.5,0.1l0.7-0.9L10.7,13.7z"/>
	<path fill-rule="evenodd" fill="#C4A859" d="M7,15.1C7,15.1,7,15.1,7,15.1c0.1,0.1,0.2,0.1,0.2,0.2c0,0,0.1-0.1,0.2,0
		c0.1,0.1,0.2,0,0.3,0c0.1,0,0.1,0,0.1,0s0,0,0.1-0.1c0.1,0,0.1,0,0.2-0.1c0.1,0,0.1,0,0.2,0c0,0,0.2,0.2,0.8,0
		c0.6-0.2,0.7-0.3,0.8-0.2c0,0,0-0.1,0.2-0.1c0-0.1-0.1-0.3-0.1-0.3l-0.7-0.2H8.8l-1.1,0.2l-0.6,0.4L7,15.1z"/>
	<path fill-rule="evenodd" fill="#927D49" d="M6.6,14.7c0,0,0,0.1,0.2,0.2C7,15,7,15.1,7,15.1s0,0,0.1-0.1c0,0,0-0.1,0.1-0.1
		c0.1,0,0.3,0,0.3,0c0,0,0-0.1,0.1-0.1c0.1,0,0.1,0.1,0.2,0.1c0,0,0.1,0,0.1,0c0,0,0-0.2,0.1-0.3c0.1-0.1,0.3-0.1,0.3,0
		c0,0,0,0.1,0.1,0.1s0.1,0,0.2,0c0.1,0,0.1,0,0.2,0.1c0,0,0.1,0,0.1-0.1c0,0,0.1,0,0.2-0.2c0,0,0.1-0.1,0.1-0.1c0.1,0,0.2,0,0.3,0.1
		c0,0-0.1,0-0.1,0.1c0,0,0.1,0.1,0.1,0.1c0,0,0,0.1,0.1,0.1c0.1,0,0.2,0,0.4,0c0.1,0,0.3,0.1,0.3,0.1c0,0,0,0,0.1,0c0.1,0,0.1,0,0,0
		c0,0,0.1,0,0.1,0c0,0,0.1-0.1,0.1-0.1c0.1,0,0.1,0,0.1-0.1c0-0.1-0.1-0.1-0.1-0.1s0.1-0.1,0.1-0.1c0.1-0.1,0.2-0.2,0.2-0.3
		c0-0.2-0.2-0.3-0.2-0.3l-1.2,0.4l-1.4-0.1L6.6,14.7z"/>
	<path fill-rule="evenodd" fill="#6E6342" d="M5.6,11.3c0,0,0,0-0.1,0.2c0,0.1,0,0.1,0,0.2c0,0.1-0.3,0.9-0.2,1.2
		c0.1,0.3,0.2,0.4,0.3,0.6c0,0,0,0.1,0.1,0.1c0,0.1,0,0.3,0,0.4c0,0.1,0.1,0.1,0.1,0.2c0.1,0.1,0.3,0.2,0.4,0.3
		c0.1,0.1,0.3,0.4,0.5,0.4c0.1,0,0.3,0,0.4-0.1c0.1-0.1,0.2-0.2,0.3-0.2c0.1,0,0.2-0.1,0.3-0.1c0.2,0,0.3,0,0.4,0
		c0.1,0,0.5,0.1,0.7,0.1c0.1,0,0.3,0,0.4-0.1c0.3-0.1,0.6-0.2,0.8-0.3c0.1,0,0.2-0.1,0.3-0.1c0.2,0,0.3-0.1,0.4-0.2
		c-0.1-0.1-0.1-0.2-0.5-0.2c-0.4,0-0.9,0.3-1.2,0.3c-0.2,0-0.4,0.1-0.6,0c-0.3-0.1-0.3-0.2-0.3-0.2S7.8,13.5,7.7,13
		c-0.1-0.5,0-0.9,0.3-1.2c0.1-0.1,0.1-0.2,0.1-0.2s0.2-0.3,0.1-0.5c-0.1-0.3-0.5-0.2-0.5-0.2L5.6,11.3z"/>
	<path fill-rule="evenodd" fill="#39331F" d="M5.9,12.1c0,0,0,0.1,0,0.1c0,0.1,0,0.1,0.2,0.3c0.1,0.1,0.1,0.3,0.1,0.3s0.1,0,0.3-0.1
		c0.1-0.1,0.2,0.1,0.2,0.1c0,0,0.1,0,0.1,0c0,0,0.1,0,0.1,0c0,0,0.2,0.2,0.3,0.3C7.3,13,7.4,13.1,7.4,13c0.1,0,0.1-0.1,0.1-0.2
		c0,0,0-0.1-0.1-0.1c0-0.1-0.1-0.1-0.1-0.2c0-0.1,0.1-0.3,0.1-0.3c0,0-0.1,0-0.3,0C6.9,12.3,5.9,12.1,5.9,12.1z"/>
	<path fill-rule="evenodd" fill="#292311" d="M6.4,13c0,0-0.1-0.1-0.1-0.6c0,0,0.1,0,0.1,0C6.5,12.4,6.5,12.8,6.4,13z"/>
	<path fill-rule="evenodd" fill="#252211" d="M5.6,10.9C5.6,10.9,5.6,10.8,5.6,10.9c0,0-0.2,0.3,0,0.8c0.1,0.5,0.5,0.8,0.9,0.8
		c0.4,0,0.7-0.2,0.9-0.5c0.1-0.1,0.2-0.3,0.3-0.4c0.2-0.2,0.3-0.2,0.3-0.4c0-0.3-0.4-0.5-0.9-0.6c-0.5-0.2-1-0.1-1.2,0
		C5.8,10.6,5.7,10.7,5.6,10.9z"/>
	<path fill-rule="evenodd" fill="#3F3824" d="M7.3,13.1L7.3,13.1c0,0,0-0.2,0.1-0.2c0.1,0,0.1,0.1,0.1,0.1c0,0,0,0.1-0.1,0.1
		C7.3,13.2,7.3,13.1,7.3,13.1z"/>
	<path fill-rule="evenodd" fill="#2D2815" d="M7.1,12.5C7.1,12.5,7.1,12.5,7.1,12.5c0.1,0,0.3,0,0.3,0c0.1,0,0.1,0.1,0.1,0.1
		s-0.2,0-0.3,0C7.1,12.6,7.1,12.5,7.1,12.5z"/>
	<path fill-rule="evenodd" fill="#82764F" d="M8,12.5c0,0-0.1-0.1-0.2-0.1c0,0,0,0,0,0c0,0,0,0,0,0l-0.1,0c0,0,0,0,0,0
		c0,0,0.1,0,0.1,0.1c0,0,0,0.1,0,0.1C7.8,12.6,7.8,12.6,8,12.5C7.9,12.6,8,12.5,8,12.5z"/>
	<path fill-rule="evenodd" fill="#2D2816" d="M7,12.9c0,0,0-0.1,0.1-0.1c0.1,0,0.2,0.1,0.2,0.1L7.2,13C7.2,13,7.2,12.9,7,12.9z"/>
	<path fill-rule="evenodd" fill="#574F35" d="M7.8,12.3c0,0-0.1,0.1-0.2,0.1c0,0,0-0.1,0-0.1S7.7,12.2,7.8,12.3
		C7.8,12.3,7.8,12.3,7.8,12.3z"/>
	<path fill-rule="evenodd" fill="#82764F" d="M8.1,12.4C8.1,12.4,8.1,12.4,8.1,12.4C8.1,12.4,8.2,12.4,8.1,12.4
		C8.2,12.4,8.2,12.4,8.1,12.4C8.2,12.4,8.2,12.5,8.1,12.4C8.2,12.5,8.1,12.5,8.1,12.4C8.1,12.5,8.1,12.5,8.1,12.4
		C8.1,12.4,8.1,12.4,8.1,12.4z M8.4,12.2C8.4,12.2,8.5,12.2,8.4,12.2C8.5,12.2,8.5,12.2,8.4,12.2c0.1,0,0.1,0,0.1,0c0,0,0,0.1,0,0.1
		c0,0,0,0-0.1,0C8.5,12.3,8.5,12.2,8.4,12.2z"/>
	<path fill-rule="evenodd" fill="#6E6342" d="M7.8,12.5c0,0,0,0,0.1,0.1C7.9,12.5,7.8,12.6,7.8,12.5C7.8,12.6,7.8,12.5,7.8,12.5z"/>
	<path fill-rule="evenodd" fill="#585136" d="M7.7,12C7.7,12,7.7,12,7.7,12c0.1,0,0.1,0,0.1,0c0,0,0,0,0,0c0,0,0,0,0.1,0
		c0,0,0,0,0,0c0,0,0,0,0,0c0,0,0,0,0.1,0c0,0,0,0.1,0,0.1c0,0-0.1,0-0.1,0c0,0,0.1,0.1,0.1,0.1s0,0-0.1,0C7.9,12.2,7.7,12.1,7.7,12z
		 M7.9,11.7C7.9,11.7,7.9,11.7,7.9,11.7C7.9,11.7,7.9,11.7,7.9,11.7c-0.1,0,0,0.2,0,0.2C8,12,8,12.1,8.1,12.1c0,0,0.1,0,0.1,0
		c0,0,0-0.1,0-0.2c0-0.2,0-0.3,0-0.3c0,0-0.1,0-0.1,0C8,11.5,7.9,11.7,7.9,11.7z"/>
	<path fill-rule="evenodd" fill="#574F35" d="M7.8,12.7c0,0-0.1,0-0.1,0c-0.1,0-0.1,0.1-0.1,0.1c0,0,0.1,0,0.1,0
		C7.7,12.8,7.8,12.8,7.8,12.7z"/>
	<path fill-rule="evenodd" fill="#82764F" d="M7.9,12.9C7.9,12.8,7.9,12.8,7.9,12.9C7.9,12.8,7.9,12.8,7.9,12.9
		C7.9,12.8,7.9,12.8,7.9,12.9c0.1,0,0.1,0,0.1,0c0,0,0,0.1-0.1,0.1S7.9,12.9,7.9,12.9z M8.3,12.8C8.3,12.8,8.2,12.8,8.3,12.8
		C8.2,12.8,8.2,12.8,8.3,12.8C8.3,12.8,8.3,12.8,8.3,12.8C8.3,12.8,8.3,12.8,8.3,12.8c0.1,0,0.1-0.1,0.1-0.1c0,0,0,0,0,0
		c0,0,0,0,0,0.1C8.4,12.9,8.4,12.9,8.3,12.8C8.3,12.9,8.3,12.8,8.3,12.8z M8.7,12.7C8.7,12.7,8.7,12.7,8.7,12.7c0,0-0.1,0.1-0.1,0.1
		c-0.1,0-0.1,0-0.1,0c0,0,0-0.1,0.1-0.1c0,0,0,0,0,0C8.6,12.7,8.7,12.7,8.7,12.7C8.8,12.7,8.8,12.7,8.7,12.7
		C8.8,12.7,8.7,12.7,8.7,12.7z M8.9,12.1C8.9,12.1,8.8,12.2,8.9,12.1C8.8,12.2,8.8,12.2,8.9,12.1C8.8,12.2,8.8,12.1,8.9,12.1
		C8.8,12.1,8.8,12.1,8.9,12.1C8.8,12.1,8.8,12.1,8.9,12.1c0-0.1,0-0.1,0-0.1c0,0,0.1,0,0.1,0C9,12.1,8.9,12.1,8.9,12.1
		C8.9,12.1,8.9,12.2,8.9,12.1z M8.4,13.3C8.4,13.3,8.4,13.3,8.4,13.3C8.4,13.3,8.4,13.3,8.4,13.3C8.4,13.3,8.4,13.3,8.4,13.3
		C8.4,13.3,8.4,13.3,8.4,13.3c0.1,0,0.1,0,0.1,0c0,0,0,0,0,0C8.6,13.2,8.5,13.2,8.4,13.3C8.5,13.2,8.5,13.2,8.4,13.3
		C8.5,13.2,8.5,13.2,8.4,13.3C8.4,13.2,8.4,13.2,8.4,13.3C8.4,13.3,8.4,13.3,8.4,13.3z M8.2,13.5C8.2,13.5,8.2,13.5,8.2,13.5
		c0.1,0,0.1,0.1,0.1,0.1S8.3,13.6,8.2,13.5C8.2,13.6,8.2,13.5,8.2,13.5C8.2,13.5,8.2,13.5,8.2,13.5C8.2,13.5,8.2,13.5,8.2,13.5z
		 M8,13.2C8.1,13.2,8.1,13.2,8,13.2C8.1,13.2,8.1,13.2,8,13.2C8.1,13.2,8.1,13.2,8,13.2c0.1-0.1,0.1,0,0.1,0c0,0,0,0.1,0,0.1
		c0,0,0,0.1-0.1,0.1c0,0-0.1,0-0.1,0C8,13.3,8,13.3,8,13.2C8,13.2,8,13.2,8,13.2z"/>
	<path fill-rule="evenodd" fill="#6E6342" d="M8.1,13.2C8.1,13.2,8.1,13.2,8.1,13.2C8.1,13.2,8.1,13.3,8.1,13.2
		C8.1,13.3,8.1,13.3,8.1,13.2C8.1,13.3,8.1,13.2,8.1,13.2z"/>
	<path fill-rule="evenodd" fill="#585136" d="M7.8,13.1C7.8,13.1,7.9,13.1,7.8,13.1C7.9,13.1,7.9,13.2,7.8,13.1
		c0.1,0.1,0.1,0.1,0,0.1C7.8,13.2,7.7,13.2,7.8,13.1C7.7,13.2,7.7,13.1,7.8,13.1C7.8,13.1,7.8,13.1,7.8,13.1z"/>
	<path fill-rule="evenodd" fill="#574F35" d="M7.8,13.1C7.8,13.1,7.7,13.2,7.8,13.1c-0.1,0.1-0.2,0.2-0.2,0.2c0,0,0,0,0-0.1
		c0,0-0.1,0.1-0.1,0.1c0,0.1,0.1,0.1,0.2,0.1c0.1,0,0.1,0,0.1,0c0-0.1-0.1-0.1-0.1-0.2c0-0.1-0.1-0.1,0-0.1
		C7.8,13.3,7.8,13.2,7.8,13.1C7.8,13.2,7.8,13.1,7.8,13.1z"/>
	<path fill-rule="evenodd" fill="#252211" d="M5.6,13.3C5.6,13.3,5.6,13.3,5.6,13.3c0.1,0,0.4-0.1,0.7-0.1c0.2,0,0.5,0.1,0.7,0.1
		c0.4,0.1,0.9,0.3,1.2,0.4c0.1,0,0.2,0.1,0.2,0.1C8.7,14,8.7,14,8.8,14c0.2,0,0.3,0,0.5-0.1c0.2-0.1,0.6-0.1,0.9-0.1
		c0.1,0,0.2,0,0.3-0.1c0,0-0.3,0.3-0.9,0.4c-0.3,0-0.5,0-0.8,0c-0.2,0-0.3,0-0.4-0.1c-0.1,0-0.4-0.1-0.6-0.2
		c-0.2-0.1-0.4-0.1-0.7-0.1C6.5,13.6,5.8,13.4,5.6,13.3z"/>
	<path fill-rule="evenodd" fill="#CFB66C" d="M4.9,12.1c-0.2,0.1-0.3,0.3-0.5,0.4l-0.5,0.4c-0.2,0.1-0.3,0.2-0.5,0.4
		s-0.3,0.2-0.5,0.3c0.2-0.1,0.3-0.2,0.5-0.4c0.2-0.1,0.3-0.2,0.5-0.4l0.5-0.4C4.5,12.3,4.7,12.2,4.9,12.1z M4,13.5
		c0,0,0.2-0.1,0.4-0.3c0.3-0.2,0.6-0.6,0.7-0.6L4,13.5z"/>
	<path fill-rule="evenodd" fill="#CFB66C" d="M4,13.5c0.1-0.1,0.2-0.2,0.3-0.2l0.1-0.1c0,0,0.1-0.1,0.1-0.1c0.1-0.1,0.2-0.2,0.3-0.3
		c0,0,0.1-0.1,0.1-0.1c0,0,0.1,0,0.1-0.1c0,0,0,0,0.1,0c0,0,0,0-0.1,0.1c0,0,0,0-0.1,0.1c0,0-0.1,0.1-0.1,0.1
		c-0.1,0.1-0.2,0.2-0.3,0.2c-0.1,0.1-0.2,0.2-0.3,0.2C4.2,13.3,4.1,13.4,4,13.5z M5.2,12.7c0,0-0.6,0.6-0.8,0.7L5.2,12.7z"/>
	<path fill-rule="evenodd" fill="#CFB66C" d="M5.2,12.7c-0.1,0.1-0.1,0.1-0.2,0.2L4.8,13c-0.1,0.1-0.1,0.1-0.2,0.2
		c-0.1,0.1-0.1,0.1-0.2,0.2l0.2-0.2c0.1-0.1,0.1-0.1,0.2-0.2L5,12.9C5,12.8,5.1,12.7,5.2,12.7z M5.2,13c-0.1,0.2-0.1,0.3-0.2,0.5
		c-0.2,0.3-0.4,0.7-0.5,0.9L5.2,13z"/>
	<path fill-rule="evenodd" fill="#CFB66C" d="M5.2,13c0,0.1,0,0.1,0,0.2c0,0.1,0,0.1-0.1,0.2c0,0.1-0.1,0.1-0.1,0.2
		c0,0.1-0.1,0.1-0.1,0.2l-0.2,0.3c-0.1,0.1-0.1,0.2-0.2,0.3c0.1-0.1,0.1-0.2,0.2-0.4c0.1-0.1,0.1-0.2,0.2-0.4c0-0.1,0.1-0.1,0.1-0.2
		S5,13.4,5,13.4c0-0.1,0.1-0.1,0.1-0.2C5.1,13.1,5.2,13.1,5.2,13z"/>
	<path fill-rule="evenodd" fill="#DEC270" d="M5.9,14.6c0,0-0.2,0.3-0.2,0.6C5.8,15,5.8,14.8,5.9,14.6z M6.1,14.9c0,0-0.1,0.7-0.1,1
		C6,15.5,6,15.5,6.1,14.9z M7.4,15.9c0,0-0.3,0.8-0.3,1.1C7.1,16.8,7.2,16.3,7.4,15.9z"/>
	<path fill-rule="evenodd" fill="#CBAF59" d="M8,14.6c0,0,0.5,0.8,0.8,1.4C8.7,15.6,8.5,15,8,14.6z"/>
	<path fill-rule="evenodd" fill="#E3C677" d="M9.3,15.7c0.3,0.5,0.5,0.9,0.7,1.4C9.9,16.8,9.8,16.2,9.3,15.7z"/>
	<path fill-rule="evenodd" fill="#ECD592" d="M13,16.8c0.1-0.1,0.2-0.3,0.4-0.4c0.1-0.1,0.2-0.1,0.4-0.2c0.1-0.1,0.2-0.2,0.4-0.3
		c0.4-0.2,0.1-0.4,0.1-0.4c0,0,0.1-0.1,0.1-0.1c0.1-0.1,0.2-0.2,0.2-0.3c0-0.3-0.1-0.6-0.3-0.8c0.2,0,0.6-0.1,0.8-0.1
		c0.3-0.1,0.4-0.2,0.4-0.2s-0.2-0.3,0.1-0.6c0.3-0.3,0.5-0.4,0.6-0.8c-0.2,0-0.5-0.1-1.2,0.2c0,0,0.1,0,0.1,0.1c0,0-0.4,0.1-0.6,0.3
		c-0.3,0.2-0.3,0.4-0.6,0.6c-0.3,0.1-0.6,0.1-0.9,0.2c-0.2,0.1-0.3,0.2-0.4,0.3c0,0,0,0.1,0,0.1c0,0-0.2,0.3-0.3,0.3
		c0,0.1,0.1,0.1,0.1,0.1s-0.1,0.1-0.3,0.1c0.1,0.1,0.2,0.2,0.5,0.4c0,0-0.1,0.1-0.1,0.2c0,0.1,0.2,0.2,0.6,0.3c-0.2,0-0.5,0.1-0.8,0
		c-0.4,0-0.4-0.1-0.6,0c0,0,0.1,0,0.1,0.1c-0.1,0-0.4,0-0.5,0.1c-0.1,0.2-0.2,0.4-0.2,0.6c-0.1,0-0.1,0.1-0.1,0.2
		c0,0.1,0.2,0.2,0.3,0.2c0.1,0.1,0.1,0.1,0.2,0.1c0.1,0,0.3-0.1,0.4-0.1c0.1,0,0.2,0.1,0.2,0.1s0.3-0.1,0.3-0.1c0,0,0,0.2,0,0.2
		C12.6,17,12.9,16.9,13,16.8z"/>
</g>
</svg>
