<?xml version="1.0" encoding="utf-8"?>
<!-- Generator: Adobe Illustrator 27.4.1, SVG Export Plug-In . SVG Version: 6.00 Build 0)  -->
<svg version="1.2" baseProfile="tiny" id="Layer_1" xmlns="http://www.w3.org/2000/svg" xmlns:xlink="http://www.w3.org/1999/xlink"
	 x="0px" y="0px" viewBox="0 0 24 24" overflow="visible" xml:space="preserve">
<g id="surface1">
	<path fill="#FFFFFF" d="M24,12c0,6.6-5.4,12-12,12S0,18.6,0,12S5.4,0,12,0S24,5.4,24,12z"/>
	<path fill="#FA4212" d="M20.3,4.3c4.1,4.3,4.1,11.1,0,15.4L12.6,12L20.3,4.3z"/>
	<path fill="#BD072F" d="M12,12.6l7.7,7.6l-0.3,0.2l-4,1.6c-1,0.5-2.1,0.8-3.1,1.3c-0.2,0.1-0.4,0.1-0.6,0l-3.9-1.7l-3-1.2l-0.5-0.2
		L12,12.6z"/>
	<path fill="#FF8000" d="M12.4,0.8l7.3,3l-4.9,4.8L10,13.4l-4.9,4.8H5.1L12.4,0.8z"/>
	<path fill="#B70C02" d="M0.6,12L11.1,1.6c-2.5,6-5,11.9-7.5,17.9l-0.1,0.1C1.6,17.4,0.6,14.8,0.6,12z"/>
</g>
</svg>
