<?xml version="1.0" encoding="utf-8"?>
<!-- Generator: Adobe Illustrator 27.4.1, SVG Export Plug-In . SVG Version: 6.00 Build 0)  -->
<svg version="1.2" baseProfile="tiny" id="Layer_1" xmlns="http://www.w3.org/2000/svg" xmlns:xlink="http://www.w3.org/1999/xlink"
	 x="0px" y="0px" viewBox="0 0 24 24" overflow="visible" xml:space="preserve">
<g id="surface1">
	<path fill="#BE1E2D" d="M24,12c0,6.6-5.4,12-12,12S0,18.6,0,12S5.4,0,12,0S24,5.4,24,12z"/>
	<path fill="#FFFFFF" d="M19.8,8.5c-0.2-0.1-0.5-0.3-0.7-0.5c-0.2-0.2-0.5-0.4-0.7-0.5l-0.2-0.1C17.8,7.2,17.4,7,17,6.8
		c-2.4-0.6-4.8-1.1-7.2-1.7L5.2,4v0.2c0,0,0,0.1,0,0.1c0,0.1,0,0.3,0,0.4c0.2,0.7,0.5,1.3,0.7,2l1,2.8c1.4,3.8,2.8,7.5,4.1,11.2
		c0.1,0.1,0.1,0.2,0.2,0.4l0.1,0.1l0.1,0.2l0.3-0.2c0.1-0.1,0.2-0.1,0.3-0.2c0.3-0.3,0.5-0.7,0.8-1.1l1.8-2.6
		c1.8-2.6,3.6-5.2,5.4-7.7c0.2-0.2,0.2-0.4,0.2-0.6C20.2,8.8,20,8.6,19.8,8.5z M11.5,6.3l5.1,1.2h0.1l-0.1,0.1
		c-1.2,1.2-2.4,2.5-3.6,3.7L12.4,12c0,0-0.1,0.1-0.1,0.1c0,0,0,0-0.1-0.1c-1.5-1.7-3-3.5-4.5-5.2L6.4,5.1L11.5,6.3z M6.1,5.8
		l3.9,4.5c0.6,0.7,1.3,1.5,1.9,2.2c0.1,0.1,0.2,0.3,0.2,0.4c-0.2,2-0.4,4-0.6,6l-0.1,0.9L6.1,5.8z M11.9,19.8l0.4-4
		c0.1-0.9,0.2-1.8,0.3-2.7c0-0.1,0.1-0.2,0.2-0.3c1.8-0.9,3.6-1.8,5.5-2.7l0.7-0.4L11.9,19.8z M14.5,11.2l-0.9,0.4l0.3-0.3l3.3-3.5
		h0.1l1.1,0.7c0.2,0.2,0.4,0.3,0.6,0.4C17.6,9.7,16.1,10.5,14.5,11.2z"/>
</g>
</svg>
