<?xml version="1.0" encoding="utf-8"?>
<!-- Generator: Adobe Illustrator 27.9.0, SVG Export Plug-In . SVG Version: 6.00 Build 0)  -->
<svg version="1.2" baseProfile="tiny" id="Layer_1" xmlns="http://www.w3.org/2000/svg" xmlns:xlink="http://www.w3.org/1999/xlink"
	 x="0px" y="0px" viewBox="0 0 24 24" overflow="visible" xml:space="preserve">
<image width="51" height="57" xlink:href="165E0F39.jpg"  transform="matrix(1 0 0 1 -8180 -8180)">
</image>
<image width="200" height="200" xlink:href="165E0F3B.jpg"  transform="matrix(1 0 0 1 -8180 -8180)">
</image>
<circle fill="#D91A5F" cx="12" cy="12" r="12"/>
<g>
	<path fill="#FEFCFD" d="M15,15.3c-0.1,2-2,3.3-3.9,2.4c-0.4-0.2-0.7-0.4-1-0.7c-1.7-1.7-3.5-3.5-5.2-5.2c-1-1-1.3-2.3-0.7-3.4
		C5,6.8,6.9,6.2,8.4,7.6C9.2,8.4,10,9.2,10.8,10c1.1,1.1,2.2,2.2,3.3,3.3C14.7,14,15,14.6,15,15.3z"/>
	<circle fill="#FEFCFD" cx="17.5" cy="9.5" r="2.7"/>
</g>
</svg>
