<svg width="48" height="58" viewBox="0 0 48 58" fill="none" xmlns="http://www.w3.org/2000/svg">
<path d="M47.5496 23.8501V37.4199C47.5485 39.4504 46.8975 41.4272 45.6919 43.061C44.4863 44.6949 42.7895 45.9 40.8496 46.5V48.1999C40.847 50.541 39.9158 52.7855 38.2605 54.4409C36.6051 56.0963 34.3607 57.0274 32.0196 57.03H23.8697C23.2862 57.03 22.7266 56.7983 22.314 56.3857C21.9014 55.9732 21.6696 55.4135 21.6696 54.8301C21.6696 54.2466 21.9014 53.687 22.314 53.2744C22.7266 52.8618 23.2862 52.6301 23.8697 52.6301H32.0196C33.1929 52.6249 34.3167 52.1563 35.1463 51.3267C35.976 50.497 36.4444 49.3732 36.4496 48.1999V46.79C34.2459 46.391 32.2495 45.2378 30.8027 43.5283C29.3559 41.8188 28.5488 39.6593 28.5196 37.4199V31.27C28.5812 29.7983 29.2093 28.4073 30.2724 27.3877C31.3356 26.3681 32.7516 25.7988 34.2246 25.7988C35.6977 25.7988 37.1137 26.3681 38.1768 27.3877C39.24 28.4073 39.868 29.7983 39.9297 31.27V37.9499C39.8972 38.3667 39.7088 38.7559 39.402 39.0398C39.0952 39.3236 38.6926 39.4812 38.2746 39.4812C37.8567 39.4812 37.454 39.3236 37.1472 39.0398C36.8404 38.7559 36.6521 38.3667 36.6197 37.9499V31.27C36.6197 30.9548 36.5575 30.6427 36.4369 30.3516C36.3163 30.0604 36.1396 29.7959 35.9167 29.573C35.6939 29.3501 35.4293 29.1733 35.1381 29.0527C34.8469 28.9321 34.5348 28.8701 34.2196 28.8701C33.9045 28.8701 33.5924 28.9321 33.3012 29.0527C33.01 29.1733 32.7454 29.3501 32.5225 29.573C32.2997 29.7959 32.123 30.0604 32.0023 30.3516C31.8817 30.6427 31.8196 30.9548 31.8196 31.27V37.46C31.786 38.2971 31.9219 39.1324 32.2191 39.9158C32.5163 40.6991 32.9687 41.4144 33.5492 42.0185C34.1296 42.6227 34.826 43.1033 35.5968 43.4316C36.3676 43.76 37.1968 43.9294 38.0346 43.9294C38.8724 43.9294 39.7016 43.76 40.4724 43.4316C41.2432 43.1033 41.9397 42.6227 42.5201 42.0185C43.1005 41.4144 43.5529 40.6991 43.8501 39.9158C44.1473 39.1324 44.2832 38.2971 44.2496 37.46V23.8901C44.2443 18.4575 42.0839 13.2487 38.2424 9.40722C34.4009 5.56575 29.1923 3.40519 23.7596 3.3999C21.0581 3.3856 18.3813 3.91432 15.888 4.95434C13.3946 5.99436 11.1357 7.52458 9.24508 9.45434C7.3545 11.3841 5.87084 13.6741 4.88217 16.1882C3.89349 18.7023 3.41997 21.3894 3.48965 24.0901V37.73C3.48965 39.377 4.1439 40.9565 5.3085 42.1211C6.4731 43.2857 8.05262 43.9399 9.69961 43.9399C11.3466 43.9399 12.9262 43.2857 14.0908 42.1211C15.2554 40.9565 15.9096 39.377 15.9096 37.73V31.54C15.9096 30.9035 15.6568 30.2931 15.2067 29.843C14.7566 29.3929 14.1461 29.1401 13.5096 29.1401C12.8731 29.1401 12.2627 29.3929 11.8126 29.843C11.3625 30.2931 11.1096 30.9035 11.1096 31.54V37.97C11.1096 38.4076 10.9358 38.8273 10.6264 39.1367C10.3169 39.4461 9.89723 39.6201 9.45962 39.6201C9.02201 39.6201 8.60231 39.4461 8.29287 39.1367C7.98344 38.8273 7.80966 38.4076 7.80966 37.97V31.54C7.77744 30.7707 7.90112 30.003 8.17331 29.2827C8.44549 28.5625 8.86053 27.9046 9.39346 27.3489C9.92639 26.7932 10.5662 26.3509 11.2744 26.0488C11.9827 25.7467 12.7447 25.5911 13.5146 25.5911C14.2846 25.5911 15.0466 25.7467 15.7548 26.0488C16.4631 26.3509 17.1029 26.7932 17.6358 27.3489C18.1688 27.9046 18.5838 28.5625 18.856 29.2827C19.1282 30.003 19.2518 30.7707 19.2196 31.54V37.73C19.063 40.143 17.9939 42.406 16.2296 44.0596C14.4652 45.7131 12.1377 46.6333 9.71963 46.6333C7.30154 46.6333 4.97405 45.7131 3.20968 44.0596C1.44531 42.406 0.376291 40.143 0.219632 37.73V24.1301C0.150146 20.9948 0.709479 17.8771 1.86459 14.9614C3.0197 12.0458 4.74718 9.39111 6.9451 7.15405C9.14301 4.91699 11.7668 3.14292 14.6616 1.93652C17.5564 0.730116 20.6636 0.115995 23.7996 0.130121C30.0893 0.143299 36.118 2.64543 40.5683 7.09008C45.0185 11.5347 47.5285 17.5605 47.5496 23.8501Z" fill="#1C58F6"/>
</svg>

