<svg width="66" height="63" viewBox="0 0 66 63" fill="none" xmlns="http://www.w3.org/2000/svg">
<g opacity="0.4">
<path d="M27.2795 3L26.3995 3.1499C26.1195 3.2099 25.7595 3.2401 25.3995 3.3501L23.9995 3.73999C21.0785 4.59514 18.3373 5.9743 15.9095 7.81006C12.3985 10.496 9.56321 13.9647 7.62952 17.9399C7.38952 18.4999 7.13952 19.0601 6.87952 19.6301L6.69953 20.0601C6.63953 20.2101 6.58955 20.36 6.53955 20.51L6.23957 21.4099C5.82661 22.6237 5.49258 23.8632 5.23957 25.1201C5.09957 25.7501 5.04953 26.41 4.94953 27.05L4.81952 28.05C4.81952 28.38 4.81952 28.71 4.75952 29.05C4.75952 29.71 4.70957 30.36 4.67957 31.05C4.64957 31.74 4.73954 32.37 4.77954 33.05V34.05L4.91956 35.05C5.01956 35.7001 5.09955 36.35 5.21955 36.99C5.47288 38.26 5.80689 39.5125 6.21955 40.74L6.52954 41.6499L6.68952 42.1101L6.88953 42.54L7.66956 44.26C7.79815 44.5459 7.94513 44.8232 8.10956 45.0901L8.56952 45.8901L9.02954 46.6899C9.18448 46.9499 9.35479 47.2003 9.53955 47.4399L10.5396 48.8999C10.8996 49.3599 11.2896 49.79 11.6696 50.23L12.2195 50.8801C12.4095 51.1001 12.6195 51.28 12.8195 51.48L14.0095 52.6201C14.4095 52.9901 14.8395 53.3001 15.2495 53.6201L15.8596 54.1101L16.1595 54.3501L16.4796 54.5601L17.7296 55.3601L18.3395 55.75L18.9695 56.0701C19.7448 56.5039 20.5502 56.8815 21.3795 57.2L22.5195 57.6401C22.7095 57.7101 22.8895 57.7901 23.0795 57.8501L23.6295 58C24.3495 58.18 25.0195 58.39 25.6295 58.53L27.3795 58.8C27.6395 58.8 27.8895 58.8899 28.1295 58.9099H28.7996L29.7996 58.96H30.6696V59.96H29.7695L28.6796 59.8901H27.9896C27.7496 59.8901 27.4895 59.81 27.2195 59.76L25.4095 59.46C24.7595 59.31 24.0695 59.0901 23.3195 58.8801L22.7595 58.72C22.5695 58.66 22.3795 58.58 22.1895 58.51L21.0095 58.03C20.1606 57.6888 19.3355 57.2914 18.5396 56.8401L17.8995 56.5L17.2795 56.0901L15.9995 55.24L15.6696 55.03L15.3596 54.78L14.7396 54.27C14.3296 53.92 13.8796 53.6 13.4796 53.22L12.2695 52.02C12.0695 51.82 11.8495 51.6299 11.6595 51.4099C11.4695 51.1899 11.2896 50.96 11.0996 50.73C10.7196 50.27 10.3295 49.8301 9.95954 49.3501L8.95954 47.8401C8.77452 47.5902 8.60423 47.3297 8.44953 47.0601C8.28953 46.7901 8.13957 46.52 7.98957 46.24C7.83957 45.96 7.67953 45.6899 7.51953 45.4099C7.35707 45.135 7.21017 44.8514 7.07953 44.5601C6.81953 43.9801 6.55956 43.39 6.29956 42.79L6.09955 42.3501L5.94953 41.8801L5.63953 40.95C5.22917 39.6913 4.89523 38.4091 4.63953 37.1101C4.51953 36.4501 4.44956 35.7801 4.35956 35.1101L4.21955 34.1101V33.1101C4.21955 32.4401 4.14953 31.7701 4.13953 31.1101C4.12953 30.4501 4.20951 29.7701 4.24951 29.1101C4.24951 28.7701 4.24952 28.4401 4.31952 28.1101L4.45954 27.1101C4.56954 26.4601 4.62954 25.7901 4.77954 25.1101C5.05061 23.8393 5.40129 22.5869 5.82953 21.3601C5.93953 21.0601 6.03954 20.76 6.14954 20.45C6.19954 20.3 6.24957 20.15 6.30957 20.01L6.50952 19.5701L7.27954 17.8701C9.271 13.8912 12.1646 10.4325 15.7296 7.77002C18.1823 5.94936 20.948 4.59364 23.8895 3.77002L25.2996 3.39014C25.7096 3.29014 26.0696 3.25996 26.3596 3.20996L27.2795 3Z" fill="#1C58F6"/>
<path d="M23.2802 52.5703C23.6783 52.7613 24.0596 52.9854 24.4202 53.2402C24.792 53.4506 25.1435 53.6949 25.4702 53.9702C25.6502 54.1302 25.8302 54.3002 26.0002 54.4802C26.1702 54.6602 26.1602 54.6703 26.2402 54.7803C26.3283 54.8664 26.4086 54.9601 26.4802 55.0603C27.023 55.7887 27.3862 56.635 27.5402 57.5303C27.6234 57.9517 27.6603 58.3809 27.6502 58.8103C27.138 58.7045 26.636 58.554 26.1502 58.3604C25.9295 58.2769 25.7155 58.1766 25.5102 58.0603C25.2902 57.9203 25.0702 57.7804 24.8602 57.6204C24.4364 57.2967 24.0624 56.9125 23.7502 56.4802C23.4668 56.0572 23.2729 55.5809 23.1802 55.0803C23.098 54.6657 23.0677 54.2424 23.0902 53.8203C23.1035 53.3976 23.1673 52.9779 23.2802 52.5703Z" fill="#1C58F6"/>
<path d="M19.4102 50.6992C19.7734 50.9567 20.1086 51.2518 20.4102 51.5793C21.1021 52.1845 21.6606 52.9268 22.0502 53.7593C22.4326 54.5574 22.621 55.4346 22.6002 56.3193C22.6038 56.7362 22.5601 57.1522 22.4702 57.5593C22.0004 57.3467 21.5489 57.0959 21.1202 56.8093C20.7162 56.5269 20.3528 56.1905 20.0402 55.8093C19.6935 55.4152 19.404 54.9741 19.1802 54.4993C18.8639 53.6444 18.8116 52.7143 19.0302 51.8293C19.1145 51.4397 19.242 51.0606 19.4102 50.6992Z" fill="#1C58F6"/>
<path d="M15.8899 48.0098C16.181 48.3176 16.4422 48.6525 16.6699 49.0098C16.8599 49.3498 17.1299 49.6698 17.3299 50.0798C17.5535 50.5112 17.7248 50.9676 17.8399 51.4397C18.0449 52.2755 18.062 53.1465 17.8899 53.9897C17.8141 54.3823 17.6933 54.765 17.5299 55.1299C17.1238 54.8275 16.7426 54.4931 16.3899 54.1299C15.7188 53.3869 15.2323 52.496 14.9699 51.5298C14.8221 50.6626 14.9371 49.771 15.2999 48.9697C15.4587 48.6279 15.6567 48.3058 15.8899 48.0098Z" fill="#1C58F6"/>
<path d="M12.9097 44.5996C13.1315 44.9629 13.3221 45.3441 13.4797 45.7395C13.5497 45.9095 13.6096 46.0996 13.6896 46.2996C13.7696 46.4996 13.8397 46.6894 13.9097 46.8994C14.0474 47.3513 14.1313 47.818 14.1597 48.2896C14.1748 48.526 14.1748 48.7631 14.1597 48.9995C14.1441 49.2141 14.1174 49.4278 14.0797 49.6396C14.0068 50.0132 13.8962 50.3782 13.7496 50.7295C13.6109 51.0835 13.4296 51.4193 13.2097 51.7295C13.2097 51.7295 13.0997 51.6194 12.9297 51.4094C12.6957 51.147 12.4881 50.8625 12.3097 50.5596C12.0757 50.1477 11.8782 49.716 11.7197 49.2695C11.5276 48.7998 11.4291 48.2971 11.4297 47.7896C11.4398 46.9443 11.7046 46.1217 12.1896 45.4294C12.394 45.1238 12.6359 44.8451 12.9097 44.5996Z" fill="#1C58F6"/>
<path d="M10.6 40.5898C10.7489 40.9797 10.8659 41.381 10.95 41.7898C11.1414 42.6288 11.2021 43.4923 11.13 44.3499C11.0672 44.7895 10.9497 45.2195 10.78 45.6299C10.6443 45.9778 10.477 46.3126 10.28 46.6299C10.079 46.9322 9.84412 47.2105 9.58002 47.4597L9.37006 47.0999C9.19457 46.8014 9.05682 46.4821 8.96002 46.1497C8.8045 45.7148 8.69069 45.2662 8.62006 44.8098C8.57859 44.5717 8.55186 44.3313 8.54004 44.0898C8.55137 43.8418 8.5781 43.5946 8.62006 43.3499C8.77426 42.5547 9.17274 41.8275 9.76001 41.2698C10.0107 41.0091 10.2929 40.7807 10.6 40.5898Z" fill="#1C58F6"/>
<path d="M9.08065 36.1396C9.15065 36.5394 9.19075 36.9439 9.20064 37.3496C9.20064 37.7096 9.20064 38.1296 9.20064 38.5396C9.17318 38.9777 9.0926 39.4109 8.96065 39.8296C8.70124 40.5626 8.27703 41.2263 7.72066 41.7695C7.4794 42.0099 7.21093 42.2212 6.92067 42.3994C6.92067 42.3994 6.86066 42.2595 6.78066 42.0195C6.69261 41.6908 6.62579 41.3568 6.58065 41.0195C6.40016 40.1115 6.46929 39.1715 6.78066 38.2996C7.05769 37.5834 7.55943 36.9764 8.21065 36.5696C8.48247 36.3921 8.77454 36.2478 9.08065 36.1396Z" fill="#1C58F6"/>
<path d="M8.40957 31.4102C8.40833 31.8056 8.37491 32.2004 8.30959 32.5903C8.24238 32.9688 8.15219 33.3427 8.03957 33.7102C7.93925 34.1175 7.78805 34.5108 7.58956 34.8804C7.21915 35.5236 6.69307 36.0633 6.05959 36.4502C5.78343 36.6326 5.48409 36.7774 5.16958 36.8804C5.15962 36.7506 5.15962 36.62 5.16958 36.4902C5.16958 36.2402 5.16958 35.9002 5.16958 35.4902C5.15838 34.6016 5.39003 33.7268 5.83956 32.9602C6.23521 32.3434 6.82164 31.873 7.50954 31.6204C7.79866 31.51 8.10145 31.4391 8.40957 31.4102Z" fill="#1C58F6"/>
<path d="M8.62012 26.5903C8.54844 26.9652 8.44473 27.3331 8.31012 27.6902C8.17986 28.032 8.02958 28.366 7.86011 28.6902C7.6953 29.0499 7.48344 29.3862 7.2301 29.6902C6.7644 30.2233 6.16826 30.6266 5.50006 30.8603C5.20407 30.9709 4.8947 31.0414 4.58008 31.0703C4.6198 30.6326 4.68999 30.1982 4.7901 29.7703C4.93874 28.934 5.31598 28.1552 5.88007 27.5203C6.36511 27.0147 7.0062 26.6872 7.70007 26.5903C8.00528 26.548 8.31491 26.548 8.62012 26.5903Z" fill="#1C58F6"/>
<path d="M9.72937 21.8895C9.59607 22.2368 9.4321 22.5714 9.23938 22.8895C9.05485 23.1891 8.85104 23.4762 8.62933 23.7494C8.40666 24.0589 8.14446 24.338 7.84937 24.5795C7.31283 24.9855 6.6776 25.241 6.00934 25.3195C5.71066 25.3592 5.40806 25.3592 5.10938 25.3195C5.22572 24.9122 5.37281 24.5145 5.54938 24.1295C5.70461 23.7795 5.89209 23.4448 6.10938 23.1295C6.34214 22.7902 6.63739 22.4982 6.97937 22.2694C7.53186 21.895 8.19343 21.7156 8.85938 21.7594C9.15381 21.7645 9.4463 21.8084 9.72937 21.8895Z" fill="#1C58F6"/>
<path d="M11.7 17.4694C11.516 17.7649 11.3051 18.0428 11.07 18.2995C10.8473 18.5539 10.5994 18.785 10.33 18.9894C10.0608 19.2329 9.76171 19.4414 9.44 19.6095C8.86679 19.8799 8.2302 19.987 7.60004 19.9194C7.30962 19.8998 7.0234 19.8393 6.75 19.7394C6.9295 19.39 7.13689 19.0556 7.37006 18.7394C7.57657 18.435 7.81086 18.1506 8.07001 17.8896C8.36902 17.6295 8.70631 17.4169 9.07001 17.2594C9.65746 17.0171 10.3099 16.9818 10.92 17.1593C11.1922 17.229 11.4543 17.3332 11.7 17.4694Z" fill="#1C58F6"/>
<path d="M14.4699 13.5398C13.7841 14.2681 12.9183 14.8028 11.9599 15.0898C11.3706 15.229 10.7543 15.2012 10.1799 15.0097C9.91212 14.9275 9.65651 14.8097 9.41992 14.6596C9.64868 14.3584 9.90296 14.0775 10.1799 13.8198C10.6889 13.3119 11.3355 12.9643 12.0399 12.8198C12.638 12.7053 13.2574 12.8044 13.7899 13.0998C14.0369 13.2124 14.266 13.3606 14.4699 13.5398Z" fill="#1C58F6"/>
<path d="M17.9498 10.2693H17.8898L17.7198 10.3694C17.5288 10.4893 17.3319 10.5993 17.1298 10.6992C16.558 10.9771 15.935 11.1337 15.2998 11.1592C14.7198 11.1785 14.1466 11.0292 13.6498 10.7292C13.4146 10.6007 13.199 10.4391 13.0098 10.2493C13.2768 10.0151 13.561 9.80133 13.8598 9.60938C14.1354 9.42207 14.4392 9.28009 14.7598 9.18921C15.0831 9.08581 15.4203 9.03195 15.7598 9.0293C16.3417 9.04708 16.9012 9.25829 17.3498 9.62939C17.5755 9.8171 17.777 10.032 17.9498 10.2693Z" fill="#1C58F6"/>
<path d="M21.9901 7.75007C21.909 7.78322 21.8254 7.81005 21.7401 7.83015L21.1301 8.02009C20.5424 8.17666 19.9268 8.19724 19.3301 8.08015C18.9256 8.00107 18.5407 7.84281 18.1974 7.61458C17.8542 7.38634 17.5595 7.09253 17.3301 6.75007C17.6169 6.58058 17.9181 6.43676 18.2301 6.32014C18.8523 6.11622 19.515 6.06801 20.1601 6.18001C20.7086 6.31546 21.195 6.63284 21.5401 7.08015C21.7186 7.28299 21.8699 7.50814 21.9901 7.75007Z" fill="#1C58F6"/>
<path d="M26.44 6.15958L25.59 6.22964C25.0072 6.25576 24.4261 6.14973 23.89 5.91958C23.4008 5.6977 22.9771 5.35325 22.66 4.91958C22.509 4.71992 22.3846 4.50151 22.29 4.26968L22.55 4.1896C22.7672 4.12053 22.9924 4.08031 23.22 4.06973C23.8387 4.01012 24.4628 4.09928 25.04 4.32974C25.532 4.57016 25.9296 4.9677 26.17 5.45962C26.285 5.68255 26.3755 5.91719 26.44 6.15958Z" fill="#1C58F6"/>
<path d="M19.8701 62.4594C20.4585 62.6687 21.0642 62.826 21.6801 62.9294C22.2625 62.9752 22.8477 62.9752 23.4301 62.9294C23.7324 62.909 24.033 62.8691 24.3301 62.8095L24.7601 62.7094C24.9031 62.6605 25.0434 62.6039 25.1801 62.5395C26.0514 62.1148 26.7555 61.4108 27.1801 60.5395C27.3721 60.1606 27.5101 59.7567 27.5901 59.3395C27.0576 59.297 26.5226 59.297 25.9901 59.3395H25.2501C25.0001 59.3395 24.7301 59.3395 24.4601 59.3395C23.9019 59.3968 23.3538 59.5278 22.8301 59.7294C22.3473 59.9076 21.8874 60.1425 21.4601 60.4294C21.1209 60.6827 20.8092 60.9711 20.5301 61.2895C20.2557 61.6462 20.0335 62.04 19.8701 62.4594Z" fill="#1C58F6"/>
<path d="M14.3799 59.34C14.8993 59.6523 15.4407 59.9262 15.9999 60.1599C17.0755 60.559 18.2308 60.6963 19.3699 60.56C20.2788 60.3579 21.0886 59.8452 21.6599 59.1101C21.913 58.8079 22.1218 58.4711 22.2799 58.1101C21.7846 57.9417 21.2762 57.8145 20.7599 57.7299C20.3099 57.6799 19.8299 57.5299 19.2999 57.4899C18.7588 57.42 18.211 57.42 17.6699 57.4899C16.7783 57.5972 15.9319 57.9426 15.2199 58.4899C14.9007 58.7317 14.6178 59.018 14.3799 59.34Z" fill="#1C58F6"/>
<path d="M9.59961 55.1497C10.0355 55.5466 10.5001 55.911 10.9896 56.2397C11.4472 56.5409 11.9411 56.7828 12.4596 56.9597C12.9841 57.1648 13.5375 57.2864 14.0996 57.3198C14.988 57.3293 15.849 57.0125 16.5196 56.4297C16.8263 56.1861 17.093 55.8961 17.3096 55.5698C16.8676 55.3141 16.4062 55.0933 15.9296 54.9097C15.0382 54.4386 14.0632 54.1465 13.0596 54.0498C12.1971 53.9564 11.3259 54.1125 10.5496 54.4997C10.2011 54.6657 9.88053 54.8849 9.59961 55.1497Z" fill="#1C58F6"/>
<path d="M5.70996 50.0501C6.05602 50.5123 6.43359 50.9501 6.83997 51.3602C7.02055 51.5467 7.21082 51.7237 7.40997 51.8902C7.61997 52.0502 7.84997 52.2002 8.08997 52.3502C8.55023 52.6404 9.04821 52.8657 9.56995 53.0201C9.80937 53.0792 10.0538 53.1161 10.3 53.1302C10.5212 53.1265 10.7417 53.1064 10.96 53.0702C11.3313 53.0007 11.6891 52.8723 12.02 52.69C12.3528 52.5229 12.6567 52.3036 12.92 52.0401C12.92 52.0401 12.81 51.9301 12.6 51.7601C12.39 51.5901 12.0799 51.3902 11.7499 51.1202C11.3848 50.8236 10.9969 50.5561 10.59 50.3202C10.1403 50.0799 9.67211 49.8758 9.18994 49.7101C8.39474 49.4471 7.54058 49.4195 6.72998 49.6302C6.36955 49.7143 6.02507 49.856 5.70996 50.0501Z" fill="#1C58F6"/>
<path d="M2.83984 44.2701C3.09107 44.7748 3.37499 45.2625 3.68982 45.7301C4.25408 46.6243 5.03938 47.358 5.96985 47.8602C6.37053 48.0661 6.81003 48.1852 7.25983 48.2101C7.62087 48.2181 7.98121 48.1744 8.32983 48.0802C8.68371 47.9904 9.0212 47.8451 9.32983 47.65C9.32983 47.65 9.23982 47.5202 9.06982 47.3202C8.89982 47.1202 8.66984 46.8401 8.39984 46.5201C8.09626 46.1583 7.76166 45.8237 7.39984 45.5201C7.21447 45.3528 7.01733 45.1992 6.80988 45.0602C6.6195 44.9022 6.4153 44.7618 6.19983 44.6403C5.49816 44.2283 4.69279 44.0269 3.87982 44.0602C3.52492 44.0803 3.17473 44.1509 2.83984 44.2701Z" fill="#1C58F6"/>
<path d="M1.12988 37.9901C1.2786 38.5172 1.45897 39.0348 1.66992 39.5402C1.8577 40.006 2.09225 40.4517 2.36993 40.8703C2.67025 41.2963 3.02681 41.6797 3.42993 42.0102C4.04065 42.514 4.81961 42.7677 5.60992 42.7201C5.95181 42.7073 6.28943 42.6399 6.60992 42.5202L6.41992 42.1601C6.30992 41.9301 6.1599 41.6102 5.9599 41.2602C5.49838 40.4426 4.92256 39.6951 4.24988 39.0402C3.6559 38.5189 2.92895 38.1728 2.1499 38.0402C1.81434 37.9724 1.47047 37.9555 1.12988 37.9901Z" fill="#1C58F6"/>
<path d="M0.620117 31.5293C0.660622 32.054 0.737453 32.5753 0.850098 33.0894C0.943362 33.5688 1.08404 34.0377 1.27008 34.4893C1.47794 34.9531 1.74699 35.387 2.07007 35.7793C2.55375 36.3673 3.23075 36.7642 3.9801 36.8992C4.31124 36.9533 4.64897 36.9533 4.9801 36.8992C4.9801 36.8992 4.98008 36.7593 4.89008 36.5193C4.80008 36.2793 4.75012 35.9393 4.62012 35.5193C4.32716 34.6526 3.92024 33.8288 3.4101 33.0693C2.94912 32.4519 2.32609 31.9741 1.61011 31.6892C1.29022 31.5856 0.956354 31.5317 0.620117 31.5293Z" fill="#1C58F6"/>
<path d="M1.27976 25.1201C1.22658 25.6249 1.20654 26.1327 1.21976 26.6401C1.22332 27.1106 1.27359 27.5795 1.36979 28.04C1.4827 28.5174 1.65747 28.9778 1.88975 29.4099C2.24173 30.0642 2.80607 30.5793 3.48978 30.8701C3.77548 30.9929 4.07961 31.0672 4.38975 31.0901C4.39537 30.6451 4.3653 30.2002 4.29978 29.76C4.1784 28.8853 3.93956 28.0309 3.58976 27.22C3.26639 26.5424 2.76524 25.9653 2.13975 25.55C1.87568 25.3654 1.58594 25.2206 1.27976 25.1201Z" fill="#1C58F6"/>
<path d="M3.1402 19.0195C3.00161 19.4783 2.89469 19.946 2.82019 20.4194C2.74264 20.8619 2.7025 21.3103 2.7002 21.7595C2.72156 22.2352 2.80562 22.7058 2.9502 23.1594C3.16091 23.8519 3.59744 24.4541 4.19019 24.8696C4.43845 25.0431 4.71154 25.1778 5.00018 25.2695C5.07892 24.8501 5.12906 24.4258 5.15021 23.9995C5.17967 23.59 5.17967 23.179 5.15021 22.7695C5.12601 22.3287 5.06582 21.8905 4.97021 21.4595C4.77843 20.7553 4.41014 20.1118 3.90021 19.5896C3.67876 19.3604 3.4222 19.168 3.1402 19.0195Z" fill="#1C58F6"/>
<path d="M6.05983 13.46C5.85419 13.8651 5.6738 14.2825 5.51979 14.71C5.37551 15.1116 5.2586 15.5225 5.16981 15.9399C5.10485 16.3909 5.10485 16.849 5.16981 17.3C5.25463 17.9968 5.55938 18.6482 6.03981 19.1599C6.2403 19.3775 6.47301 19.563 6.72981 19.71C6.87459 19.3314 6.99482 18.944 7.0898 18.55C7.18257 18.1683 7.24941 17.7809 7.28981 17.3901C7.36314 16.9744 7.38665 16.5514 7.35981 16.1301C7.31201 15.417 7.08121 14.7282 6.68977 14.1301C6.51545 13.8757 6.30301 13.6496 6.05983 13.46Z" fill="#1C58F6"/>
<path d="M9.93033 8.66992C9.66346 9.00424 9.42272 9.35868 9.21029 9.72998C8.74905 10.4272 8.46735 11.2277 8.39029 12.0601C8.351 12.7385 8.52212 13.4125 8.88028 13.99C9.02714 14.2381 9.20905 14.4637 9.42032 14.6599C9.62461 14.3403 9.80507 14.006 9.96029 13.6599C10.2944 12.959 10.53 12.2154 10.6603 11.45C10.7239 10.7688 10.6209 10.0824 10.3603 9.44995C10.2566 9.17 10.1117 8.90708 9.93033 8.66992Z" fill="#1C58F6"/>
<path d="M14.5802 4.82031H14.5102C14.4372 4.86528 14.3701 4.91893 14.3102 4.98022C14.1602 5.13022 13.9402 5.34034 13.7202 5.60034C13.1797 6.16848 12.7762 6.85253 12.5402 7.60034C12.3823 8.2375 12.4242 8.90772 12.6602 9.52026C12.7527 9.7799 12.8806 10.0255 13.0402 10.2502C13.2929 9.98606 13.5236 9.7017 13.7302 9.40015C13.9002 9.13015 14.1102 8.84027 14.3102 8.53027C14.5075 8.20121 14.6621 7.84833 14.7702 7.48022C14.9603 6.85381 14.9844 6.18883 14.8402 5.55029C14.7884 5.29591 14.7009 5.05015 14.5802 4.82031Z" fill="#1C58F6"/>
<path d="M19.8203 2.0498L19.5304 2.1897C19.3014 2.32617 19.0811 2.47664 18.8704 2.63989C18.2751 3.07228 17.7805 3.62822 17.4204 4.26978C17.1629 4.83602 17.0793 5.46605 17.1804 6.07983C17.2213 6.34907 17.2987 6.61151 17.4104 6.85986C17.6901 6.65667 17.9542 6.43254 18.2003 6.1897C18.7379 5.7608 19.1863 5.23103 19.5204 4.62988C19.7975 4.0779 19.9381 3.46744 19.9304 2.84985C19.9281 2.57958 19.8911 2.31067 19.8203 2.0498Z" fill="#1C58F6"/>
<path d="M25.4395 0.469727C25.0895 0.532111 24.7519 0.65038 24.4395 0.819824C23.8153 1.10552 23.2596 1.52148 22.8095 2.03979C22.4578 2.51099 22.2652 3.08174 22.2595 3.66968C22.2511 3.92494 22.2746 4.18025 22.3295 4.42969L22.5795 4.30981C22.7395 4.23981 22.9395 4.09975 23.1895 3.98975C23.7679 3.69897 24.2815 3.29424 24.6995 2.7998C25.0483 2.33717 25.2845 1.79956 25.3895 1.22974C25.441 0.979914 25.4579 0.724154 25.4395 0.469727Z" fill="#1C58F6"/>
<path d="M30.8301 2.71945C30.594 2.89727 30.3431 3.05449 30.0801 3.18942C29.5343 3.48937 28.931 3.67005 28.3102 3.71945C27.6963 3.79294 27.0739 3.74202 26.4802 3.56955C26.1987 3.49332 25.9244 3.3929 25.6602 3.2695C25.866 3.06187 26.0941 2.87738 26.3401 2.71945C26.864 2.31781 27.4886 2.0688 28.1451 1.99997C28.8016 1.93115 29.4644 2.0453 30.0602 2.32956C30.3295 2.43284 30.5875 2.56342 30.8301 2.71945Z" fill="#1C58F6"/>
<path d="M39.0295 3.17969L39.9095 3.31982C40.1995 3.31982 40.5495 3.39976 40.9095 3.49976L42.3096 3.87988C45.2322 4.6882 47.9813 6.02708 50.4196 7.82983C53.9584 10.4654 56.8344 13.8892 58.8195 17.8298L59.5895 19.5298L59.7795 19.9597C59.8395 20.0997 59.8895 20.2497 59.9395 20.3997L60.2595 21.2998C60.6722 22.5205 61.0063 23.7664 61.2595 25.0298C61.4095 25.6698 61.4695 26.3297 61.5795 26.9797L61.7195 27.9797C61.7695 28.2997 61.7696 28.6397 61.7896 28.9797C61.7896 29.6397 61.8595 30.3097 61.8995 30.9797C61.9395 31.6497 61.8495 32.3197 61.8195 32.9797V33.9797L61.6895 34.9797C61.5895 35.6397 61.5195 36.3097 61.3995 36.9797C61.1486 38.2732 60.8146 39.5493 60.3995 40.7998L60.0895 41.7197L59.9395 42.1897L59.7396 42.6299L58.9695 44.3899C58.841 44.679 58.694 44.9594 58.5295 45.2297C58.3795 45.5097 58.2195 45.7798 58.0695 46.0498C57.9195 46.3198 57.7596 46.5999 57.6096 46.8699C57.4571 47.1377 57.2867 47.395 57.0995 47.6399C56.7595 48.1499 56.4095 48.6397 56.0995 49.1497C55.7895 49.6597 55.3395 50.0598 54.9695 50.5198L54.4095 51.1897C54.2195 51.4097 53.9996 51.5998 53.7996 51.7998L52.5995 52.9897C52.1995 53.3697 51.7595 53.6897 51.3495 53.9897L50.7296 54.4998L50.4196 54.7498L50.0995 54.9597L48.8295 55.7998L48.2095 56.2097L47.5695 56.5398C46.7804 56.9908 45.9619 57.3883 45.1196 57.7297L43.9495 58.1997C43.7495 58.2797 43.5695 58.3597 43.3795 58.4197L42.8195 58.5798C42.0795 58.7798 41.3895 58.9997 40.7495 59.1497L38.9495 59.4497C38.6795 59.4497 38.4196 59.5498 38.1796 59.5798H37.4995L36.4196 59.6497L35.5195 59.6997V58.6997H36.3895H37.3895H38.0496C38.2896 58.6997 38.5296 58.6298 38.7996 58.5898L40.5396 58.3198C41.1596 58.1798 41.8296 57.9798 42.5396 57.7898L43.0795 57.6497C43.2695 57.5897 43.4495 57.5097 43.6295 57.4397L44.7695 56.9998C45.5904 56.6804 46.3889 56.3064 47.1595 55.8799L47.7896 55.5598L48.3895 55.1697L49.6295 54.3699L49.9495 54.1697L50.2495 53.9297L50.8596 53.4497C51.2596 53.1197 51.6895 52.8097 52.0895 52.4497L53.2795 51.2698C53.4795 51.0698 53.6895 50.8897 53.8795 50.6797L54.4296 50.0298C54.7996 49.5898 55.1896 49.1697 55.5496 48.7097L56.5496 47.2498C56.7333 47.0128 56.9036 46.7658 57.0596 46.5098L57.5095 45.7197L57.9695 44.9197C58.132 44.6551 58.2789 44.3815 58.4095 44.0999L59.1895 42.3899L59.3795 41.9597L59.5396 41.5098L59.8495 40.5999C60.2597 39.3818 60.5937 38.1394 60.8495 36.8799C60.9695 36.2399 61.0495 35.5897 61.1495 34.9397L61.2896 33.9397L61.3495 32.9397C61.3495 32.2797 61.4195 31.6297 61.4395 30.9397C61.4595 30.2497 61.4396 29.6397 61.3596 28.9397C61.3596 28.6197 61.3596 28.2897 61.2996 27.9397L61.1696 26.9397C61.0696 26.2997 61.0195 25.6498 60.8795 25.0198C60.6266 23.7694 60.2925 22.5368 59.8795 21.3298L59.5795 20.4297C59.5795 20.2897 59.4896 20.1397 59.4296 19.9897L59.2396 19.5698C58.9896 18.9998 58.7395 18.4399 58.4995 17.8799C56.5714 13.9379 53.7582 10.4948 50.2795 7.81982C47.8777 6.01209 45.1668 4.65667 42.2795 3.81982L40.8895 3.42969C40.4795 3.31969 40.1195 3.28974 39.8895 3.22974L39.0295 3.17969Z" fill="#1C58F6"/>
<path d="M46.48 62.4602C45.8916 62.6695 45.286 62.8268 44.67 62.9302C44.0876 62.976 43.5025 62.976 42.92 62.9302C42.6177 62.9105 42.317 62.8706 42.02 62.8103L41.59 62.7102C41.447 62.6613 41.3068 62.6047 41.17 62.5403C40.2987 62.1156 39.5947 61.4116 39.17 60.5403C38.9726 60.1628 38.831 59.7586 38.75 59.3403C39.2858 59.298 39.8242 59.298 40.36 59.3403H41.1C41.35 59.3403 41.62 59.3403 41.89 59.3403C42.4482 59.3976 42.9963 59.5286 43.52 59.7302C44.412 60.0359 45.2061 60.5746 45.82 61.2903C46.0944 61.647 46.3167 62.0408 46.48 62.4602Z" fill="#1C58F6"/>
<path d="M51.9703 59.34C51.4509 59.6522 50.9095 59.9261 50.3503 60.1598C49.2747 60.559 48.1195 60.6963 46.9803 60.5599C46.0715 60.3578 45.2616 59.8451 44.6903 59.11C44.4372 58.8078 44.2284 58.4711 44.0703 58.11C44.5656 57.9416 45.0741 57.8144 45.5903 57.7299C46.0403 57.6799 46.5204 57.5299 47.0504 57.4899C47.5881 57.42 48.1326 57.42 48.6703 57.4899C49.5655 57.5954 50.4154 57.9409 51.1303 58.4899C51.4495 58.7316 51.7324 59.018 51.9703 59.34Z" fill="#1C58F6"/>
<path d="M56.75 55.1501C56.3118 55.5486 55.8438 55.9131 55.35 56.2401C54.8946 56.5451 54.4001 56.7872 53.88 56.9601C53.3593 57.1663 52.8091 57.2879 52.25 57.3202C51.359 57.3275 50.4955 57.0112 49.82 56.4301C49.5177 56.1848 49.2547 55.895 49.04 55.5702C49.4793 55.3158 49.9373 55.095 50.41 54.9101C51.3056 54.4403 52.2836 54.1484 53.29 54.0502C54.1493 53.9559 55.0176 54.1121 55.79 54.5002C56.1425 54.6646 56.4665 54.8839 56.75 55.1501Z" fill="#1C58F6"/>
<path d="M60.6396 50.0501C60.2936 50.5123 59.916 50.9501 59.5096 51.3602C59.3296 51.5302 59.1496 51.7202 58.9396 51.8902C58.7296 52.0602 58.4996 52.2002 58.2596 52.3502C57.7969 52.6423 57.2953 52.8678 56.7697 53.0201C56.5337 53.0796 56.2926 53.1166 56.0497 53.1302C55.8247 53.1278 55.6003 53.1043 55.3796 53.0602C55.0082 52.9966 54.65 52.8714 54.3196 52.69C53.9908 52.5213 53.6905 52.3021 53.4297 52.0401C53.4297 52.0401 53.5396 51.9301 53.7496 51.7601C53.9596 51.5901 54.2697 51.3902 54.5897 51.1202C55.3497 50.4922 56.2217 50.0136 57.1597 49.7101C57.9549 49.4471 58.8091 49.4195 59.6197 49.6302C59.9793 49.7168 60.3233 49.8584 60.6396 50.0501Z" fill="#1C58F6"/>
<path d="M63.4998 44.2701C63.2546 44.7761 62.974 45.2639 62.6598 45.7301C62.0955 46.6243 61.3102 47.358 60.3798 47.8602C59.9791 48.0661 59.5396 48.1852 59.0898 48.2101C58.7255 48.2174 58.3619 48.1738 58.0098 48.0802C57.656 47.9901 57.3186 47.8448 57.0098 47.65C57.0098 47.65 57.0998 47.5202 57.2698 47.3202C57.4398 47.1202 57.6698 46.8401 57.9298 46.5201C58.2365 46.1612 58.5709 45.8269 58.9298 45.5201C59.1132 45.3505 59.3105 45.1966 59.5198 45.0602C59.7102 44.9022 59.9143 44.7618 60.1298 44.6403C60.8314 44.2283 61.6368 44.0269 62.4498 44.0602C62.8083 44.0775 63.1622 44.1482 63.4998 44.2701Z" fill="#1C58F6"/>
<path d="M65.2202 37.9901C65.0715 38.5172 64.8912 39.0348 64.6802 39.5402C64.4925 40.006 64.2579 40.4517 63.9802 40.8703C63.6792 41.2989 63.319 41.6826 62.9102 42.0102C62.4703 42.3606 61.9474 42.5917 61.3921 42.6811C60.8368 42.7704 60.2679 42.715 59.7402 42.5202C59.7966 42.3966 59.86 42.2763 59.9302 42.1601C60.4556 40.9955 61.1912 39.9379 62.1002 39.0402C62.6942 38.5189 63.4211 38.1728 64.2002 38.0402C64.5358 37.9724 64.8796 37.9555 65.2202 37.9901Z" fill="#1C58F6"/>
<path d="M65.7301 31.5293C65.6896 32.054 65.6127 32.5753 65.5001 33.0894C65.4068 33.5688 65.2661 34.0377 65.0801 34.4893C64.8685 34.9511 64.5998 35.3845 64.2801 35.7793C63.7964 36.3673 63.1195 36.7642 62.3701 36.8992C62.039 36.9533 61.7013 36.9533 61.3701 36.8992C61.3701 36.8992 61.3701 36.7593 61.4601 36.5193C61.5277 36.1803 61.6179 35.8462 61.7301 35.5193C62.0231 34.6526 62.4299 33.8288 62.9401 33.0693C63.401 32.4519 64.0241 31.9741 64.7401 31.6892C65.06 31.5856 65.3939 31.5317 65.7301 31.5293Z" fill="#1C58F6"/>
<path d="M65.0502 25.1201C65.1033 25.6249 65.1234 26.1327 65.1102 26.6401C65.1066 27.1106 65.0563 27.5795 64.9601 28.04C64.8472 28.5174 64.6724 28.9778 64.4401 29.4099C64.0881 30.0642 63.5238 30.5793 62.8401 30.8701C62.5544 30.9929 62.2503 31.0672 61.9401 31.0901C61.9345 30.6451 61.9646 30.2002 62.0301 29.76C62.1515 28.8853 62.3904 28.0309 62.7402 27.22C63.0633 26.5453 63.5603 25.9689 64.1802 25.55C64.4483 25.3661 64.7412 25.2214 65.0502 25.1201Z" fill="#1C58F6"/>
<path d="M63.1998 19.0195C63.3392 19.4788 63.4495 19.9463 63.5298 20.4194C63.6074 20.8619 63.6475 21.3103 63.6498 21.7595C63.6285 22.2352 63.5444 22.7058 63.3998 23.1594C63.1857 23.8502 62.7499 24.4514 62.1599 24.8696C61.9116 25.0431 61.6385 25.1778 61.3499 25.2695C61.2711 24.8501 61.221 24.4258 61.1998 23.9995C61.1704 23.59 61.1704 23.179 61.1998 22.7695C61.224 22.3287 61.2842 21.8905 61.3798 21.4595C61.5674 20.7535 61.9363 20.109 62.4498 19.5896C62.6689 19.362 62.9219 19.1697 63.1998 19.0195Z" fill="#1C58F6"/>
<path d="M60.2802 13.46C60.4918 13.8636 60.6756 14.2812 60.8302 14.71C60.9745 15.1116 61.0914 15.5225 61.1802 15.9399C61.2452 16.3909 61.2452 16.849 61.1802 17.3C61.0954 17.9968 60.7907 18.6482 60.3102 19.1599C60.1097 19.3775 59.877 19.563 59.6202 19.71C59.4699 19.3334 59.3495 18.9456 59.2602 18.55C59.1674 18.1683 59.1006 17.7809 59.0602 17.3901C58.9869 16.9744 58.9634 16.5514 58.9902 16.1301C59.038 15.417 59.2688 14.7282 59.6602 14.1301C59.8328 13.8775 60.0417 13.6516 60.2802 13.46Z" fill="#1C58F6"/>
<path d="M56.4206 8.66016C56.6858 8.99915 56.9264 9.3568 57.1405 9.73022C57.6018 10.4274 57.8835 11.2279 57.9605 12.0603C57.9998 12.7387 57.8287 13.4127 57.4706 13.9902C57.3237 14.2384 57.1418 14.4639 56.9306 14.6602C56.7263 14.3405 56.5458 14.0063 56.3905 13.6602C56.0564 12.9593 55.8209 12.2156 55.6905 11.4502C55.622 10.7689 55.7251 10.0814 55.9906 9.4502C56.0966 9.16821 56.2413 8.90229 56.4206 8.66016Z" fill="#1C58F6"/>
<path d="M51.7699 4.82031H51.8399C51.9112 4.86343 51.9753 4.91732 52.0299 4.98022C52.1899 5.13022 52.3999 5.34034 52.6299 5.60034C53.1703 6.16848 53.574 6.85253 53.8099 7.60034C53.9678 8.2375 53.9258 8.90772 53.6899 9.52026C53.5973 9.7799 53.4695 10.0255 53.3099 10.2502C53.0573 9.98606 52.8265 9.7017 52.6199 9.40015C52.4499 9.13015 52.2399 8.84027 52.0399 8.53027C51.8434 8.19952 51.6856 7.84714 51.5699 7.48022C51.3875 6.85223 51.3669 6.1884 51.5099 5.55029C51.5616 5.29591 51.6492 5.05015 51.7699 4.82031Z" fill="#1C58F6"/>
<path d="M46.5302 2.0498L46.8102 2.1897C47.0441 2.32336 47.268 2.47394 47.4802 2.63989C48.0755 3.07228 48.5701 3.62822 48.9302 4.26978C49.1878 4.83602 49.2713 5.46605 49.1702 6.07983C49.1293 6.34907 49.0519 6.61151 48.9402 6.85986C48.6604 6.65667 48.3964 6.43254 48.1502 6.1897C47.6126 5.7608 47.1642 5.23103 46.8302 4.62988C46.5531 4.0779 46.4125 3.46744 46.4202 2.84985C46.4164 2.57917 46.4535 2.30942 46.5302 2.0498Z" fill="#1C58F6"/>
<path d="M40.9096 0.469727C41.2595 0.532111 41.5971 0.65038 41.9096 0.819824C42.5337 1.10552 43.0895 1.52148 43.5396 2.03979C43.7853 2.38086 43.9545 2.77086 44.0357 3.18335C44.1168 3.59583 44.1079 4.02096 44.0095 4.42969L43.7696 4.30981C43.6096 4.23981 43.4096 4.09975 43.1596 3.98975C42.5795 3.70161 42.0653 3.29649 41.6496 2.7998C41.2968 2.33949 41.0601 1.8009 40.9596 1.22974C40.908 0.979914 40.8912 0.724154 40.9096 0.469727Z" fill="#1C58F6"/>
<path d="M43.0206 52.5703C42.6265 52.7629 42.2486 52.9869 41.8906 53.2402C41.5188 53.4506 41.1673 53.6949 40.8406 53.9702C40.6606 54.1302 40.4807 54.3002 40.3107 54.4802C40.1407 54.6602 40.1506 54.6703 40.0706 54.7803C39.9821 54.8688 39.8986 54.9623 39.8206 55.0603C39.2981 55.7938 38.9556 56.6399 38.8206 57.5303C38.7374 57.9517 38.7005 58.3809 38.7106 58.8103C39.2228 58.7045 39.7248 58.554 40.2106 58.3604C40.4305 58.275 40.6443 58.1747 40.8506 58.0603C41.0706 57.9203 41.2906 57.7804 41.5006 57.6204C41.9244 57.2967 42.2984 56.9125 42.6106 56.4802C42.8951 56.0589 43.0861 55.5816 43.1706 55.0803C43.2608 54.6668 43.2944 54.2429 43.2706 53.8203C43.241 53.3947 43.1569 52.9746 43.0206 52.5703Z" fill="#1C58F6"/>
<path d="M46.9402 50.6992C46.5783 50.9584 46.2433 51.2534 45.9402 51.5793C45.2544 52.1878 44.6999 52.9295 44.3102 53.7593C43.929 54.5578 43.7405 55.4347 43.7602 56.3193C43.7566 56.7362 43.8002 57.1522 43.8902 57.5593C44.3573 57.3477 44.8056 57.0968 45.2302 56.8093C45.6396 56.53 46.0067 56.1932 46.3202 55.8093C46.6669 55.4152 46.9565 54.9741 47.1802 54.4993C47.4945 53.6436 47.5432 52.7132 47.3202 51.8293C47.2383 51.4391 47.1108 51.0597 46.9402 50.6992Z" fill="#1C58F6"/>
<path d="M50.4602 48.0098C50.1691 48.3176 49.908 48.6525 49.6802 49.0098C49.4902 49.3498 49.2202 49.6698 49.0202 50.0798C48.7966 50.5112 48.6253 50.9676 48.5102 51.4397C48.3001 52.2749 48.283 53.147 48.4602 53.9897C48.5358 54.3812 48.6532 54.7635 48.8102 55.1299C49.2209 54.8293 49.6055 54.4948 49.9602 54.1299C50.6313 53.3869 51.1178 52.496 51.3802 51.5298C51.528 50.6626 51.4131 49.771 51.0502 48.9697C50.8915 48.6279 50.6934 48.3058 50.4602 48.0098Z" fill="#1C58F6"/>
<path d="M53.4398 44.5996C53.218 44.9629 53.0274 45.3441 52.8699 45.7395C52.7999 45.9095 52.7299 46.0996 52.6599 46.2996C52.5899 46.4996 52.5098 46.6894 52.4398 46.8994C52.2192 47.5761 52.1409 48.2911 52.2098 48.9995C52.2204 49.2145 52.2472 49.4286 52.2899 49.6396C52.3627 50.0132 52.4733 50.3782 52.6199 50.7295C52.7586 51.0835 52.9399 51.4193 53.1599 51.7295C53.1599 51.7295 53.2698 51.6194 53.4398 51.4094C53.6738 51.147 53.8815 50.8625 54.0599 50.5596C54.2898 50.1456 54.4871 49.7142 54.6498 49.2695C54.837 48.7983 54.9353 48.2965 54.9398 47.7896C54.9297 46.9443 54.6649 46.1217 54.1799 45.4294C53.9693 45.1226 53.7206 44.8439 53.4398 44.5996Z" fill="#1C58F6"/>
<path d="M55.7496 40.5996C55.5941 40.9838 55.4769 41.3824 55.3996 41.7896C55.2096 42.6287 55.1456 43.4916 55.2096 44.3496C55.2756 44.7897 55.3965 45.2197 55.5696 45.6296C55.7053 45.9776 55.8727 46.3123 56.0696 46.6296C56.2706 46.932 56.5055 47.2103 56.7696 47.4595L56.9796 47.0996C57.1551 46.8011 57.2928 46.4818 57.3896 46.1494C57.5405 45.7131 57.6543 45.265 57.7296 44.8096C57.7711 44.5714 57.7978 44.331 57.8096 44.0896C57.7983 43.8415 57.7716 43.5944 57.7296 43.3496C57.5754 42.5545 57.1769 41.8273 56.5896 41.2695C56.341 41.0094 56.0584 40.7841 55.7496 40.5996Z" fill="#1C58F6"/>
<path d="M57.2802 36.1396C57.2042 36.5386 57.164 36.9435 57.1602 37.3496C57.1602 37.7096 57.1602 38.1296 57.1602 38.5396C57.1876 38.9777 57.2682 39.4109 57.4001 39.8296C57.6596 40.5626 58.0838 41.2263 58.6401 41.7695C58.8789 42.0128 59.1477 42.2244 59.4401 42.3994C59.4401 42.3994 59.5001 42.2595 59.5801 42.0195C59.6682 41.6908 59.735 41.3568 59.7802 41.0195C59.9557 40.1112 59.8867 39.1725 59.5801 38.2996C59.2999 37.5823 58.7946 36.9753 58.1401 36.5696C57.8712 36.3932 57.5826 36.2489 57.2802 36.1396Z" fill="#1C58F6"/>
<path d="M57.9395 31.4102C57.9407 31.8056 57.9742 32.2004 58.0395 32.5903C58.1067 32.9688 58.1969 33.3427 58.3095 33.7102C58.4098 34.1175 58.561 34.5108 58.7595 34.8804C59.1299 35.5236 59.656 36.0633 60.2895 36.4502C60.5656 36.6326 60.865 36.7774 61.1795 36.8804C61.1895 36.7506 61.1895 36.62 61.1795 36.4902C61.1795 36.2402 61.1795 35.9002 61.1795 35.4902C61.1907 34.6016 60.959 33.7268 60.5095 32.9602C60.1138 32.3434 59.5274 31.873 58.8395 31.6204C58.5504 31.51 58.2476 31.4391 57.9395 31.4102Z" fill="#1C58F6"/>
<path d="M57.7305 26.5903C57.7963 26.9665 57.9002 27.335 58.0405 27.6902C58.1707 28.032 58.321 28.366 58.4905 28.6902C58.6553 29.0499 58.8671 29.3862 59.1205 29.6902C59.5862 30.2233 60.1823 30.6266 60.8505 30.8603C61.1465 30.9709 61.4558 31.0414 61.7704 31.0703C61.73 30.6321 61.6564 30.1974 61.5505 29.7703C61.4103 28.9333 61.0359 28.1531 60.4705 27.5203C59.984 27.0166 59.3436 26.6894 58.6505 26.5903C58.3452 26.548 58.0357 26.548 57.7305 26.5903Z" fill="#1C58F6"/>
<path d="M56.6201 21.8895C56.7534 22.2368 56.9174 22.5714 57.1101 22.8895C57.2946 23.1891 57.4984 23.4762 57.7201 23.7494C57.9428 24.0589 58.205 24.338 58.5001 24.5795C59.034 24.9835 59.6654 25.2388 60.3301 25.3195C60.6321 25.3594 60.9381 25.3594 61.2401 25.3195C61.1238 24.9122 60.9767 24.5145 60.8001 24.1295C60.6449 23.7795 60.4574 23.4448 60.2401 23.1295C60.0074 22.7902 59.7121 22.4982 59.3701 22.2694C58.8176 21.895 58.1561 21.7156 57.4901 21.7594C57.1957 21.7645 56.9032 21.8084 56.6201 21.8895Z" fill="#1C58F6"/>
<path d="M54.6504 17.4694C54.8344 17.7649 55.0453 18.0428 55.2804 18.2995C55.5018 18.5516 55.7462 18.7826 56.0104 18.9894C56.2832 19.233 56.5856 19.4414 56.9104 19.6095C57.4836 19.8799 58.1202 19.987 58.7504 19.9194C59.0408 19.8998 59.327 19.8393 59.6004 19.7394C59.4209 19.39 59.2136 19.0556 58.9804 18.7394C58.7739 18.435 58.5395 18.1506 58.2804 17.8896C57.9814 17.6295 57.6441 17.4169 57.2804 17.2594C56.6929 17.0171 56.0406 16.9818 55.4304 17.1593C55.1583 17.229 54.8961 17.3332 54.6504 17.4694Z" fill="#1C58F6"/>
<path d="M51.8799 13.5398C52.1076 13.7801 52.3552 14.0008 52.6199 14.1997C53.1541 14.5964 53.7529 14.8976 54.3899 15.0898C54.9791 15.229 55.5955 15.2012 56.1699 15.0097C56.4377 14.9275 56.6933 14.8097 56.9299 14.6596C56.7012 14.3584 56.4469 14.0775 56.1699 13.8198C55.6609 13.3119 55.0143 12.9643 54.3099 12.8198C53.7118 12.7053 53.0925 12.8044 52.5599 13.0998C52.3129 13.2124 52.0838 13.3606 51.8799 13.5398Z" fill="#1C58F6"/>
<path d="M48.4004 10.2695H48.4604L48.6304 10.3696C48.82 10.4917 49.0171 10.6018 49.2204 10.6995C49.7922 10.9773 50.4152 11.1339 51.0504 11.1594C51.6304 11.1787 52.2035 11.0294 52.7004 10.7295C52.9334 10.5976 53.1485 10.4363 53.3404 10.2495C53.0733 10.0154 52.7892 9.80158 52.4904 9.60962C52.2149 9.42231 51.911 9.28034 51.5904 9.18945C51.2664 9.08727 50.9299 9.03015 50.5904 9.01953C50.0079 9.04313 49.4492 9.25756 49.0004 9.62964C48.7709 9.81335 48.5689 10.0287 48.4004 10.2695Z" fill="#1C58F6"/>
<path d="M44.3594 7.75007C44.4405 7.78322 44.5241 7.81005 44.6094 7.83015L45.2194 8.02009C45.807 8.17666 46.4226 8.19724 47.0193 8.08015C47.4239 8.00107 47.8088 7.84281 48.152 7.61458C48.4953 7.38634 48.79 7.09253 49.0193 6.75007C48.7326 6.58058 48.4314 6.43676 48.1194 6.32014C47.4972 6.11622 46.8344 6.06801 46.1893 6.18001C45.6399 6.31323 45.1528 6.63106 44.8094 7.08015C44.6309 7.28299 44.4796 7.50814 44.3594 7.75007Z" fill="#1C58F6"/>
<path d="M39.9102 6.15958L40.7601 6.22964C41.3429 6.25576 41.9241 6.14973 42.4601 5.91958C42.9494 5.6977 43.3731 5.35325 43.6901 4.91958C43.8412 4.71992 43.9656 4.50151 44.0602 4.26968L43.8002 4.1896C43.583 4.12053 43.3577 4.08031 43.1301 4.06973C42.5114 4.01012 41.8875 4.09928 41.3102 4.32974C40.8183 4.57016 40.4206 4.9677 40.1802 5.45962C40.0652 5.68255 39.9747 5.91719 39.9102 6.15958Z" fill="#1C58F6"/>
<path d="M35.5195 2.89912C35.7577 2.74154 36.0126 2.61086 36.2795 2.50923C37.0225 2.2267 37.8313 2.16519 38.6085 2.33198C39.3856 2.49877 40.0979 2.88667 40.6595 3.44917C40.3945 3.57039 40.1203 3.67075 39.8395 3.74922C39.2492 3.9217 38.6301 3.97263 38.0195 3.89912C37.4021 3.84833 36.8023 3.66793 36.2595 3.36933C36.0005 3.23306 35.753 3.07565 35.5195 2.89912Z" fill="#1C58F6"/>
</g>
<path d="M31.3395 19.6899H31.2795L25.7995 22.6401L24.9795 19.3901L31.8595 15.71H35.4995V47.27H31.3795L31.3395 19.6899Z" fill="#1C58F6"/>
</svg>

