<svg width="58" height="58" viewBox="0 0 24 24" fill="none" xmlns="http://www.w3.org/2000/svg">
<path fill-rule="evenodd" clip-rule="evenodd" d="M6.21 7.01001C4.30305 7.01001 2.75 8.55538 2.75 10.47V17.79C2.75 19.6958 4.30421 21.25 6.21 21.25H13.58C15.4869 21.25 17.04 19.7046 17.04 17.79V10.47C17.04 8.56422 15.4858 7.01001 13.58 7.01001H6.21ZM1.25 10.47C1.25 7.72464 3.47695 5.51001 6.21 5.51001H13.58C16.3142 5.51001 18.54 7.7358 18.54 10.47V17.79C18.54 20.5354 16.3131 22.75 13.58 22.75H6.21C3.47579 22.75 1.25 20.5242 1.25 17.79V10.47Z" fill="#0045FF"/>
<path opacity="0.34" fill-rule="evenodd" clip-rule="evenodd" d="M5.5 1.5C5.91421 1.5 6.25 1.83579 6.25 2.25V4C6.25 4.41421 5.91421 4.75 5.5 4.75C5.08579 4.75 4.75 4.41421 4.75 4V2.25C4.75 1.83579 5.08579 1.5 5.5 1.5Z" fill="#0045FF"/>
<path opacity="0.34" fill-rule="evenodd" clip-rule="evenodd" d="M9.5 1.5C9.91421 1.5 10.25 1.83579 10.25 2.25V4C10.25 4.41421 9.91421 4.75 9.5 4.75C9.08579 4.75 8.75 4.41421 8.75 4V2.25C8.75 1.83579 9.08579 1.5 9.5 1.5Z" fill="#0045FF"/>
<path opacity="0.34" fill-rule="evenodd" clip-rule="evenodd" d="M13.5 1.5C13.9142 1.5 14.25 1.83579 14.25 2.25V4C14.25 4.41421 13.9142 4.75 13.5 4.75C13.0858 4.75 12.75 4.41421 12.75 4V2.25C12.75 1.83579 13.0858 1.5 13.5 1.5Z" fill="#0045FF"/>
<path fill-rule="evenodd" clip-rule="evenodd" d="M17.04 8.94995C17.04 8.53574 17.3758 8.19995 17.79 8.19995C20.5231 8.19995 22.75 10.4146 22.75 13.16C22.75 15.8942 20.5243 18.12 17.79 18.12C17.3758 18.12 17.04 17.7842 17.04 17.37V8.94995ZM18.54 9.78155V16.5379C20.0873 16.1937 21.25 14.8083 21.25 13.16C21.25 11.5038 20.088 10.1239 18.54 9.78155Z" fill="#0045FF"/>
<path opacity="0.34" fill-rule="evenodd" clip-rule="evenodd" d="M1.25 12C1.25 11.5858 1.58579 11.25 2 11.25H17.51C17.9242 11.25 18.26 11.5858 18.26 12C18.26 12.4142 17.9242 12.75 17.51 12.75H2C1.58579 12.75 1.25 12.4142 1.25 12Z" fill="#0045FF"/>
</svg>

