<svg width="66" height="66" viewBox="0 0 24 24" fill="none" xmlns="http://www.w3.org/2000/svg">
<path opacity="0.4" fill-rule="evenodd" clip-rule="evenodd" d="M17.9076 2.75C16.8918 2.75 16.0776 3.56421 16.0776 4.58C16.0776 5.55792 16.8298 6.34607 17.7819 6.40782C17.8617 6.40073 17.9435 6.40073 18.0234 6.40782C18.9739 6.34613 19.7293 5.559 19.7376 4.57733C19.7362 3.57086 18.9206 2.75 17.9076 2.75ZM14.5776 4.58C14.5776 2.73579 16.0634 1.25 17.9076 1.25C19.7537 1.25 21.2376 2.74768 21.2376 4.58V4.58536H21.2376C21.2248 6.38428 19.8087 7.84488 18.0248 7.90951C17.984 7.91099 17.9431 7.90913 17.9026 7.90396C17.8622 7.90913 17.8213 7.91099 17.7805 7.90951C15.9975 7.84491 14.5776 6.38403 14.5776 4.58Z" fill="#0045FF"/>
<path opacity="0.4" fill-rule="evenodd" clip-rule="evenodd" d="M16.8081 8.85124C18.3284 8.58491 20.0619 8.83883 21.3222 9.67506L21.3235 9.67596C22.1849 10.2502 22.715 11.0823 22.715 12.01C22.715 12.9377 22.1849 13.7698 21.3235 14.344C20.0726 15.1813 18.3598 15.4342 16.8433 15.1796C16.4348 15.1111 16.1593 14.7243 16.2279 14.3158C16.2964 13.9073 16.6832 13.6318 17.0917 13.7003C18.3146 13.9057 19.6212 13.6789 20.4901 13.0969L20.4915 13.096C21.0401 12.7302 21.215 12.3223 21.215 12.01C21.215 11.6978 21.0402 11.2901 20.4922 10.9245C19.6124 10.3411 18.2863 10.1151 17.0669 10.3287C16.6589 10.4002 16.2702 10.1274 16.1988 9.71941C16.1273 9.31141 16.4001 8.92271 16.8081 8.85124Z" fill="#0045FF"/>
<path opacity="0.4" fill-rule="evenodd" clip-rule="evenodd" d="M2.72754 4.58C2.72754 2.74768 4.21144 1.25 6.05754 1.25C7.90176 1.25 9.38754 2.73579 9.38754 4.58C9.38754 6.38403 7.96769 7.84491 6.1847 7.90951C6.14388 7.91099 6.10302 7.90913 6.06254 7.90396C6.02206 7.90913 5.9812 7.91099 5.94038 7.90951C4.15645 7.84488 2.74041 6.38429 2.72756 4.58536L2.72754 4.58ZM4.22754 4.57733C4.23592 5.559 4.99132 6.34613 5.94179 6.40782C6.02165 6.40073 6.10344 6.40073 6.1833 6.40782C7.13541 6.34607 7.88754 5.55792 7.88754 4.58C7.88754 3.56421 7.07333 2.75 6.05754 2.75C5.04454 2.75 4.22898 3.57087 4.22754 4.57733Z" fill="#0045FF"/>
<path opacity="0.4" fill-rule="evenodd" clip-rule="evenodd" d="M3.47285 10.9245C4.35261 10.3411 5.67871 10.1151 6.89808 10.3287C7.30608 10.4002 7.69477 10.1274 7.76625 9.71941C7.83772 9.31141 7.56491 8.92271 7.15691 8.85124C5.6366 8.58491 3.90307 8.83883 2.64282 9.67506L2.64282 9.67506L2.64147 9.67596C1.78009 10.2502 1.25 11.0823 1.25 12.01C1.25 12.9374 1.77981 13.7693 2.6408 14.3436C3.89176 15.1812 5.60491 15.4343 7.12167 15.1796C7.53017 15.1111 7.80573 14.7243 7.73715 14.3158C7.66857 13.9073 7.28182 13.6318 6.87332 13.7003C5.65036 13.9057 4.34386 13.6789 3.47488 13.0969L3.47353 13.096C2.92491 12.7302 2.75 12.3223 2.75 12.01C2.75 11.6978 2.92477 11.2901 3.47285 10.9245Z" fill="#0045FF"/>
<path fill-rule="evenodd" clip-rule="evenodd" d="M11.91 10.22C10.8942 10.22 10.08 11.0342 10.08 12.05C10.08 13.0279 10.8321 13.816 11.7842 13.8778C11.8652 13.8706 11.9481 13.8707 12.0291 13.8781C12.9718 13.824 13.7315 13.0343 13.74 12.0473C13.7385 11.0408 12.923 10.22 11.91 10.22ZM8.57996 12.05C8.57996 10.2058 10.0657 8.71997 11.91 8.71997C13.7561 8.71997 15.24 10.2177 15.24 12.05V12.0553H15.2399C15.2271 13.8494 13.8147 15.3277 12.0217 15.3797C11.9827 15.3808 11.9436 15.3789 11.905 15.3739C11.8645 15.3791 11.8236 15.381 11.7828 15.3795C9.9998 15.3149 8.57996 13.854 8.57996 12.05Z" fill="#0045FF"/>
<path fill-rule="evenodd" clip-rule="evenodd" d="M12.0037 16.235C13.1722 16.235 14.381 16.526 15.326 17.1559C16.1874 17.7302 16.7175 18.5623 16.7175 19.49C16.7175 20.4175 16.1875 21.2495 15.3263 21.8238C14.3774 22.4582 13.169 22.7525 12 22.7525C10.831 22.7525 9.62258 22.4582 8.67362 21.8238C7.81243 21.2496 7.28247 20.4175 7.28247 19.49C7.28247 18.5623 7.81256 17.7302 8.67395 17.1559L8.67575 17.1547L8.67575 17.1547C9.62473 16.526 10.835 16.235 12.0037 16.235ZM9.50511 18.4046C8.95719 18.7702 8.78247 19.1778 8.78247 19.49C8.78247 19.8023 8.95738 20.2102 9.506 20.5759L9.5069 20.5765C10.1578 21.0119 11.0592 21.2525 12 21.2525C12.9407 21.2525 13.8421 21.0119 14.493 20.5765L14.4939 20.5759C15.0426 20.2102 15.2175 19.8023 15.2175 19.49C15.2175 19.1777 15.0426 18.7698 14.4939 18.404C13.8489 17.974 12.9477 17.735 12.0037 17.735C11.0604 17.735 10.1561 17.9737 9.50511 18.4046Z" fill="#0045FF"/>
</svg>
