<?xml version="1.0" encoding="utf-8"?>
<!-- Generator: Adobe Illustrator 27.4.1, SVG Export Plug-In . SVG Version: 6.00 Build 0)  -->
<svg version="1.2" baseProfile="tiny" id="Layer_1" xmlns="http://www.w3.org/2000/svg" xmlns:xlink="http://www.w3.org/1999/xlink"
	 x="0px" y="0px" viewBox="0 0 24 24" overflow="visible" xml:space="preserve">
<g id="surface1">
	<path fill="#FF9D00" d="M8.9,0.4C2.4,2.1-1.3,8.7,0.4,15.1c1.7,6.4,8.3,10.2,14.7,8.5c6.4-1.7,10.2-8.3,8.5-14.7
		C21.9,2.5,15.3-1.3,8.9,0.4C8.8,0.4,8.8,0.4,8.9,0.4z"/>
	<path fill="#FFFFFF" d="M17.7,10.2c0.2-1.6-1-2.5-2.7-3.1l0.5-2.2l-1.3-0.3l-0.5,2.1c-0.4-0.1-0.7-0.2-1.1-0.3l0.5-2.2L11.9,4
		l-0.5,2.2C11,6.1,10.7,6,10.5,5.9L8.6,5.5L8.3,6.9l1,0.2c0.5,0.1,0.6,0.5,0.6,0.8l-0.6,2.5l-1,3.6c-0.1,0.2-0.2,0.4-0.6,0.3l-1-0.2
		L6,15.6L7.8,16c0.3,0.1,0.6,0.2,1,0.2l-0.6,2.2l1.3,0.3l0.5-2.2c0.4,0.1,0.7,0.2,1.1,0.3L10.6,19l1.3,0.3l0.6-2.2
		c2.3,0.4,4,0.3,4.7-1.8c0.6-1.7,0-2.6-1.2-3.2C16.9,11.9,17.6,11.3,17.7,10.2z M14.7,14.5c-0.4,1.7-3.2,0.8-4.1,0.5l0.7-2.9
		C12.2,12.3,15.1,12.7,14.7,14.5z M15.1,10.1c-0.4,1.5-2.7,0.7-3.5,0.6L12.3,8C13.1,8.2,15.5,8.6,15.1,10.1z"/>
</g>
</svg>
