<svg width="24" height="24" viewBox="0 0 24 24" fill="none" xmlns="http://www.w3.org/2000/svg">
<path d="M23.6383 14.9029C22.0356 21.3315 15.5244 25.2438 9.09503 23.6407C2.66833 22.0381 -1.24401 15.5265 0.359382 9.09837C1.96137 2.66903 8.47253 -1.24361 14.8999 0.359081C21.3289 1.96177 25.241 8.47405 23.6381 14.903L23.6382 14.9029H23.6383Z" fill="#B95C55"/>
<path d="M5.62097 15.76C5.2903 15.76 4.9943 15.7093 4.73297 15.608C4.47697 15.5067 4.2583 15.36 4.07697 15.168C3.89563 14.9813 3.75697 14.752 3.66097 14.48C3.56497 14.208 3.51697 13.9013 3.51697 13.56V11.888H4.96497V13.6C4.96497 13.8027 5.02363 13.9573 5.14097 14.064C5.2583 14.1707 5.44763 14.224 5.70897 14.224H5.97297C6.26097 14.224 6.4663 14.1653 6.58897 14.048C6.71163 13.9307 6.77297 13.7813 6.77297 13.6V11.136H8.22097V13.512C8.22097 13.8213 8.1703 14.112 8.06897 14.384C7.96763 14.656 7.82097 14.8933 7.62897 15.096C7.4423 15.304 7.21297 15.4667 6.94097 15.584C6.66897 15.7013 6.3623 15.76 6.02097 15.76H5.62097ZM6.33297 11.408H4.87697V10.312H6.33297V11.408Z" fill="white"/>
<path d="M10.5856 12.456C10.6176 12.456 10.6443 12.464 10.6656 12.48C10.6923 12.4907 10.7109 12.52 10.7216 12.568C10.7376 12.616 10.7483 12.6907 10.7536 12.792C10.7589 12.8933 10.7616 13.032 10.7616 13.208C10.7616 13.3947 10.7589 13.5413 10.7536 13.648C10.7483 13.7547 10.7376 13.8347 10.7216 13.888C10.7109 13.9413 10.6923 13.9733 10.6656 13.984C10.6443 13.9947 10.6176 14 10.5856 14H10.1936C9.91626 14 9.68159 13.96 9.48959 13.88C9.30293 13.7947 9.15093 13.6827 9.03359 13.544C8.91626 13.4053 8.83093 13.2427 8.77759 13.056C8.72426 12.864 8.69759 12.664 8.69759 12.456V9.12H10.1536V12.328C10.1536 12.4133 10.1963 12.456 10.2816 12.456H10.5856Z" fill="white"/>
<path d="M10.886 12.456C10.9234 12.456 10.9554 12.4453 10.982 12.424C11.0087 12.3973 11.022 12.3653 11.022 12.328C11.022 11.7947 11.1634 11.376 11.446 11.072C11.734 10.7627 12.126 10.608 12.622 10.608C13.1447 10.608 13.5367 10.76 13.798 11.064C14.0594 11.368 14.19 11.7733 14.19 12.28C14.19 12.8133 14.046 13.2347 13.758 13.544C13.47 13.848 13.0727 14 12.566 14C12.4114 14 12.2594 13.9787 12.11 13.936C11.9607 13.8933 11.8327 13.8267 11.726 13.736C11.662 13.7947 11.5927 13.84 11.518 13.872C11.4487 13.904 11.3687 13.9307 11.278 13.952C11.1927 13.9733 11.094 13.9867 10.982 13.992C10.87 13.9973 10.7367 14 10.582 14C10.55 14 10.5234 13.9947 10.502 13.984C10.4754 13.9733 10.4567 13.944 10.446 13.896C10.43 13.8427 10.4194 13.7653 10.414 13.664C10.4087 13.5627 10.406 13.424 10.406 13.248C10.406 13.0613 10.4087 12.9147 10.414 12.808C10.4194 12.7013 10.43 12.624 10.446 12.576C10.4567 12.5227 10.4754 12.4907 10.502 12.48C10.5234 12.464 10.55 12.456 10.582 12.456H10.886ZM12.342 12.28C12.342 12.392 12.366 12.464 12.414 12.496C12.462 12.528 12.5207 12.544 12.59 12.544C12.6487 12.544 12.702 12.528 12.75 12.496C12.798 12.464 12.822 12.392 12.822 12.28C12.822 12.104 12.7447 12.016 12.59 12.016C12.4247 12.016 12.342 12.104 12.342 12.28Z" fill="white"/>
<path d="M18.4182 12.456C18.4502 12.456 18.4768 12.464 18.4982 12.48C18.5195 12.4907 18.5355 12.52 18.5462 12.568C18.5622 12.616 18.5728 12.6907 18.5782 12.792C18.5835 12.8933 18.5862 13.032 18.5862 13.208C18.5862 13.3947 18.5835 13.5413 18.5782 13.648C18.5728 13.7547 18.5622 13.8347 18.5462 13.888C18.5355 13.9413 18.5195 13.9733 18.4982 13.984C18.4768 13.9947 18.4502 14 18.4182 14H17.9622C17.9462 14.3253 17.8848 14.6107 17.7782 14.856C17.6768 15.1013 17.5382 15.3067 17.3622 15.472C17.1862 15.6427 16.9782 15.7707 16.7382 15.856C16.4982 15.9413 16.2368 15.984 15.9542 15.984H14.7622L14.6742 14.44H16.0422C16.2182 14.44 16.3408 14.4053 16.4102 14.336C16.4848 14.2667 16.5222 14.1547 16.5222 14H16.3942C16.0635 14 15.7915 13.9627 15.5782 13.888C15.3648 13.8133 15.1968 13.7093 15.0742 13.576C14.9568 13.4373 14.8742 13.2693 14.8262 13.072C14.7835 12.8747 14.7622 12.656 14.7622 12.416C14.7622 12.1867 14.7968 11.968 14.8662 11.76C14.9355 11.552 15.0368 11.3707 15.1702 11.216C15.3088 11.056 15.4768 10.9307 15.6742 10.84C15.8715 10.744 16.0955 10.696 16.3462 10.696C16.5648 10.696 16.7728 10.728 16.9702 10.792C17.1675 10.856 17.3408 10.96 17.4902 11.104C17.6395 11.2427 17.7568 11.424 17.8422 11.648C17.9328 11.8667 17.9782 12.136 17.9782 12.456H18.4182ZM16.1302 12.32C16.1302 12.4053 16.1462 12.472 16.1782 12.52C16.2102 12.568 16.2822 12.592 16.3942 12.592H16.6102V12.368C16.6102 12.1653 16.5275 12.064 16.3622 12.064C16.2075 12.064 16.1302 12.1493 16.1302 12.32Z" fill="white"/>
<path d="M18.906 12.456C18.938 12.456 18.9673 12.4453 18.994 12.424C19.0206 12.3973 19.034 12.3653 19.034 12.328V11.136H20.482V12.456C20.482 12.712 20.4446 12.936 20.37 13.128C20.3006 13.32 20.202 13.48 20.074 13.608C19.946 13.736 19.7913 13.8347 19.61 13.904C19.434 13.968 19.242 14 19.034 14H18.418C18.386 14 18.3593 13.9947 18.338 13.984C18.3113 13.9733 18.2926 13.944 18.282 13.896C18.266 13.8427 18.2553 13.7653 18.25 13.664C18.2446 13.5627 18.242 13.424 18.242 13.248C18.242 13.0613 18.2446 12.9147 18.25 12.808C18.2553 12.7013 18.266 12.624 18.282 12.576C18.2926 12.5227 18.3113 12.4907 18.338 12.48C18.3593 12.464 18.386 12.456 18.418 12.456H18.906ZM20.706 10.696H18.418V9.6H20.706V10.696Z" fill="white"/>
</svg>
