<svg width="58" height="58" viewBox="0 0 24 24" fill="none" xmlns="http://www.w3.org/2000/svg">
<path opacity="0.4" fill-rule="evenodd" clip-rule="evenodd" d="M6.5 14.25C6.91421 14.25 7.25 14.5858 7.25 15V22C7.25 22.4142 6.91421 22.75 6.5 22.75C6.08579 22.75 5.75 22.4142 5.75 22V15C5.75 14.5858 6.08579 14.25 6.5 14.25Z" fill="#0045FF"/>
<path opacity="0.4" fill-rule="evenodd" clip-rule="evenodd" d="M6.5 1.25C6.91421 1.25 7.25 1.58579 7.25 2V5C7.25 5.41421 6.91421 5.75 6.5 5.75C6.08579 5.75 5.75 5.41421 5.75 5V2C5.75 1.58579 6.08579 1.25 6.5 1.25Z" fill="#0045FF"/>
<path opacity="0.4" fill-rule="evenodd" clip-rule="evenodd" d="M17.5 18.25C17.9142 18.25 18.25 18.5858 18.25 19V22C18.25 22.4142 17.9142 22.75 17.5 22.75C17.0858 22.75 16.75 22.4142 16.75 22V19C16.75 18.5858 17.0858 18.25 17.5 18.25Z" fill="#0045FF"/>
<path opacity="0.4" fill-rule="evenodd" clip-rule="evenodd" d="M17.5 1.25C17.9142 1.25 18.25 1.58579 18.25 2V9C18.25 9.41421 17.9142 9.75 17.5 9.75C17.0858 9.75 16.75 9.41421 16.75 9V2C16.75 1.58579 17.0858 1.25 17.5 1.25Z" fill="#0045FF"/>
<path fill-rule="evenodd" clip-rule="evenodd" d="M4.50556 6.0772C4.35438 6.25257 4.25 6.54853 4.25 7V13C4.25 13.4515 4.35438 13.7474 4.50556 13.9228C4.63885 14.0774 4.90484 14.25 5.5 14.25H7.5C8.09516 14.25 8.36115 14.0774 8.49444 13.9228C8.64562 13.7474 8.75 13.4515 8.75 13V7C8.75 6.54853 8.64562 6.25257 8.49444 6.0772C8.36115 5.92258 8.09516 5.75 7.5 5.75H5.5C4.90484 5.75 4.63885 5.92258 4.50556 6.0772ZM3.36944 5.0978C3.86115 4.52742 4.59516 4.25 5.5 4.25H7.5C8.40484 4.25 9.13885 4.52742 9.63056 5.0978C10.1044 5.64743 10.25 6.35147 10.25 7V13C10.25 13.6485 10.1044 14.3526 9.63056 14.9022C9.13885 15.4726 8.40484 15.75 7.5 15.75H5.5C4.59516 15.75 3.86115 15.4726 3.36944 14.9022C2.89562 14.3526 2.75 13.6485 2.75 13V7C2.75 6.35147 2.89562 5.64743 3.36944 5.0978Z" fill="#0045FF"/>
<path fill-rule="evenodd" clip-rule="evenodd" d="M15.5056 10.0772C15.3544 10.2526 15.25 10.5485 15.25 11V17C15.25 17.4515 15.3544 17.7474 15.5056 17.9228C15.6389 18.0774 15.9048 18.25 16.5 18.25H18.5C19.0952 18.25 19.3611 18.0774 19.4944 17.9228C19.6456 17.7474 19.75 17.4515 19.75 17V11C19.75 10.5485 19.6456 10.2526 19.4944 10.0772C19.3611 9.92258 19.0952 9.75 18.5 9.75H16.5C15.9048 9.75 15.6389 9.92258 15.5056 10.0772ZM14.3694 9.0978C14.8611 8.52742 15.5952 8.25 16.5 8.25H18.5C19.4048 8.25 20.1389 8.52742 20.6306 9.0978C21.1044 9.64743 21.25 10.3515 21.25 11V17C21.25 17.6485 21.1044 18.3526 20.6306 18.9022C20.1389 19.4726 19.4048 19.75 18.5 19.75H16.5C15.5952 19.75 14.8611 19.4726 14.3694 18.9022C13.8956 18.3526 13.75 17.6485 13.75 17V11C13.75 10.3515 13.8956 9.64743 14.3694 9.0978Z" fill="#0045FF"/>
</svg>

